<svg width="360" height="290" viewBox="0 0 360 290" fill="none" xmlns="http://www.w3.org/2000/svg">
<mask id="mask0_3_502" style="mask-type:luminance" maskUnits="userSpaceOnUse" x="1" y="4" width="522" height="276">
<path d="M522.456 4.06921H1.62326V279.784H522.456V4.06921Z" fill="white"/>
</mask>
<g mask="url(#mask0_3_502)">
<path d="M561.936 124.174V168.365C561.936 196.896 550.564 222.779 532.096 241.709C529.088 244.818 525.863 247.726 522.48 250.434C521.414 251.296 520.334 252.132 519.241 252.924C514.103 256.738 508.605 260.078 502.802 262.885C488.911 269.665 473.324 273.452 456.842 273.452H63.5887C20.5061 273.452 -16.5164 247.542 -32.7245 210.444C-3.37348 190.377 43.6235 170.541 98.0776 159.139C103.058 158.089 108.082 157.124 113.176 156.231C122.863 154.533 132.754 153.109 142.785 151.999C143.39 151.926 143.979 151.869 144.584 151.812C152.472 150.976 160.447 150.328 168.479 149.926C169.342 149.869 170.221 149.826 171.1 149.796C171.691 149.766 172.293 149.739 172.898 149.723C174.409 149.65 175.937 149.593 177.461 149.549C179.276 149.492 181.074 149.449 182.886 149.419C183.06 149.406 183.231 149.406 183.405 149.419H183.418C187.693 149.332 191.982 149.332 196.287 149.389H196.301C196.474 149.389 196.632 149.389 196.819 149.403C196.992 149.403 197.163 149.403 197.337 149.416C201.913 149.49 206.506 149.633 211.112 149.878C211.285 149.891 211.456 149.891 211.63 149.907C211.787 149.907 211.961 149.921 212.134 149.937C214.711 150.067 217.272 150.238 219.849 150.442C221.534 150.556 223.218 150.686 224.903 150.846C225.104 150.86 225.321 150.876 225.521 150.903C238.03 152.013 250.538 153.768 262.945 156.228C269.019 157.422 275.079 158.792 281.096 160.346C282.62 158.949 284.234 157.582 285.946 156.228C286.882 155.466 287.831 154.731 288.824 153.998C289.269 153.667 289.717 153.336 290.178 153.019C290.739 152.588 291.315 152.183 291.906 151.782C292.006 151.695 292.123 151.625 292.223 151.565C292.584 151.291 292.929 151.047 293.303 150.816L293.333 150.803C294.713 149.853 296.154 148.917 297.621 147.995C297.779 147.894 297.923 147.794 298.083 147.707C298.24 147.607 298.414 147.507 298.571 147.406C300.326 146.313 302.154 145.233 304.026 144.181C304.2 144.067 304.371 143.98 304.544 143.88C304.718 143.779 304.889 143.679 305.062 143.592C306.359 142.873 307.667 142.151 309.02 141.446C309.194 141.346 309.381 141.245 309.568 141.159C326.511 132.29 347.239 124.545 369.952 118.645C371.737 118.184 373.535 117.723 375.35 117.291C378.041 116.629 380.776 115.994 383.526 115.376C442.182 102.436 511.089 101.758 561.93 124.171L561.936 124.174Z" fill="#E28AB2"/>
<path d="M498.459 249.308C495.451 252.417 492.226 255.325 488.843 258.032C487.777 258.895 486.697 259.73 485.604 260.522C480.466 264.337 474.968 267.676 469.165 270.484L460.284 268.224L453.519 247.352C453.519 247.352 445.66 246.258 436.244 241.118C425.103 235.027 411.79 223.297 406.779 201.041C403.123 184.832 401.538 172.942 399.87 163.83C398.82 158.144 397.724 153.537 396.07 149.636C393.68 143.98 390.066 139.805 383.648 135.961C376.538 131.715 360.3 127.985 346.612 126.705C346.599 126.705 346.582 126.705 346.569 126.691C342.899 126.36 339.399 126.203 336.32 126.246C338.105 125.785 339.904 125.324 341.719 124.893C344.41 124.231 347.144 123.596 349.895 122.977C357.135 124.402 396.921 120.126 413.216 136.265C418.227 141.216 422.977 150.719 426.804 160.346C427.265 161.497 427.71 162.663 428.158 163.83C431.915 173.921 434.579 183.595 435.341 187.767C440.164 214.125 471.959 217.535 488.846 236.047C492.63 240.193 495.812 244.742 498.462 249.305L498.459 249.308Z" fill="#F2A7CD"/>
<path d="M410.658 256.301C421.438 260.376 432.121 264.779 442.744 269.472C437.606 273.286 432.107 276.626 426.305 279.434C412.413 286.213 396.826 290 380.344 290H-12.9085C-55.9911 290 -93.0136 264.09 -109.222 226.992C-114.878 214.109 -118 199.886 -118 184.916V156.155C-73.8676 157.265 -31.2299 162.848 9.99454 172.782C13.8655 173.704 17.7392 174.681 21.5831 175.69C70.7963 188.587 117.953 207.72 163.165 232.781C206.622 223.913 248.251 222.359 288.469 226.49H288.499C304.75 228.145 320.771 230.752 336.575 234.162C355.805 238.307 374.721 243.676 393.389 250.067C399.162 252.039 404.935 254.126 410.664 256.301H410.658Z" fill="#F2A7CD"/>
<path d="M168.471 193.6C168.471 193.6 170.858 190.505 170.416 187.057C169.974 183.609 167.234 182.814 165.2 182.814C165.2 182.814 165.596 174.857 160.358 173.62C155.122 174.857 155.516 182.814 155.516 182.814C153.481 182.814 150.741 183.609 150.299 187.057C149.857 190.505 152.244 193.6 152.244 193.6C152.244 193.6 148.178 195.721 149.77 200.762C151.363 205.802 160.358 207.568 160.358 207.568C160.358 207.568 169.353 205.8 170.945 200.762C172.538 195.721 168.471 193.6 168.471 193.6Z" fill="#E27491"/>
<path d="M167.809 196.831L161.421 203.404L161.009 194.777L165.704 186.555L160.941 193.402L160.358 181.232L159.775 193.402L155.014 186.555L159.709 194.777L159.297 203.404L152.909 196.831L159.224 204.934L158.736 215.126H160.358H161.983L161.494 204.934L167.809 196.831Z" fill="#2A426A"/>
</g>
<path d="M327.203 111.136L315.541 86.9647H349.2L362.359 100.711L327.203 111.136Z" fill="#FF8066"/>
<path d="M362.357 100.702H328.201V157.699H362.357V100.702Z" fill="white"/>
<path d="M328.701 157.699H315.541V86.9647L328.701 100.711V152.658V157.699Z" fill="#F9C3C0"/>
<path d="M335.005 105.301H332.403V110.531H335.005V105.301Z" fill="#2D3962"/>
<path d="M340.826 105.301H338.225V110.531H340.826V105.301Z" fill="#2D3962"/>
<path d="M346.648 105.301H344.046V110.531H346.648V105.301Z" fill="#2D3962"/>
<path d="M352.466 105.301H349.865V110.531H352.466V105.301Z" fill="#2D3962"/>
<path d="M358.288 105.301H355.686V110.531H358.288V105.301Z" fill="#2D3962"/>
<path d="M335.005 115.056H332.403V120.286H335.005V115.056Z" fill="#2D3962"/>
<path d="M340.826 115.056H338.225V120.286H340.826V115.056Z" fill="#2D3962"/>
<path d="M346.648 115.056H344.046V120.286H346.648V115.056Z" fill="#2D3962"/>
<path d="M352.466 115.056H349.865V120.286H352.466V115.056Z" fill="#2D3962"/>
<path d="M358.288 115.056H355.686V120.286H358.288V115.056Z" fill="#2D3962"/>
<path d="M335.005 124.811H332.403V130.041H335.005V124.811Z" fill="#2D3962"/>
<path d="M340.826 124.811H338.225V130.041H340.826V124.811Z" fill="#2D3962"/>
<path d="M346.648 124.811H344.046V130.041H346.648V124.811Z" fill="#2D3962"/>
<path d="M352.466 124.811H349.865V130.041H352.466V124.811Z" fill="#2D3962"/>
<path d="M358.288 124.811H355.686V130.041H358.288V124.811Z" fill="#2D3962"/>
<path d="M335.005 134.567H332.403V139.797H335.005V134.567Z" fill="#2D3962"/>
<path d="M340.826 134.567H338.225V139.797H340.826V134.567Z" fill="#2D3962"/>
<path d="M346.648 134.567H344.046V139.797H346.648V134.567Z" fill="#2D3962"/>
<path d="M352.466 134.567H349.865V139.797H352.466V134.567Z" fill="#2D3962"/>
<path d="M358.288 134.567H355.686V139.797H358.288V134.567Z" fill="#2D3962"/>
<path d="M257.732 130.961L238.252 100.751H265.585L287.566 117.929L257.732 130.961Z" fill="#FF8066"/>
<path d="M287.566 117.921H259.4V155.835H287.566V117.921Z" fill="white"/>
<path d="M260.233 155.835H238.252H216.274V139.121V117.929L238.252 100.751L260.233 117.929V139.121V155.835Z" fill="#F9C3C0"/>
<path d="M253.565 123.523H220.923V125.761H253.565V123.523Z" fill="#2D3962"/>
<path d="M253.565 130.945H220.923V133.183H253.565V130.945Z" fill="#2D3962"/>
<path d="M253.565 138.367H220.923V140.605H253.565V138.367Z" fill="#2D3962"/>
<path d="M253.565 145.789H220.923V148.028H253.565V145.789Z" fill="#2D3962"/>
<path d="M271.111 126.878H267.25V133.283H271.111V126.878Z" fill="#2D3962"/>
<path d="M271.111 138.462H267.25V144.867H271.111V138.462Z" fill="#2D3962"/>
<path d="M282.431 126.878H278.57V133.283H282.431V126.878Z" fill="#2D3962"/>
<path d="M282.431 138.462H278.57V144.867H282.431V138.462Z" fill="#2D3962"/>
<path d="M180.114 129.724L190.658 141.088H232.976L222.429 129.724H180.114Z" fill="#FF8066"/>
<path d="M189.543 119.131L196.325 126.439H223.547L216.762 119.131H189.543Z" fill="#FF8066"/>
<path d="M196.325 126.439V137.032L189.543 129.724H187.229V121.624L189.543 119.131L196.325 126.439Z" fill="#F9C3C0"/>
<path d="M223.544 126.439H196.325V137.033H223.544V126.439Z" fill="white"/>
<path d="M232.973 141.088H190.658V178.435H232.973V141.088Z" fill="white"/>
<path d="M180.114 129.724L169.076 140.763V178.433H190.658V141.088L180.114 129.724Z" fill="#F9C3C0"/>
<path d="M176.485 145.366H172.025V152.791H176.485V145.366Z" fill="#2D3962"/>
<path d="M185.341 145.366H180.882V152.791H185.341V145.366Z" fill="#2D3962"/>
<path d="M176.485 156.92H172.025V164.345H176.485V156.92Z" fill="#2D3962"/>
<path d="M185.341 156.92H180.882V164.345H185.341V156.92Z" fill="#2D3962"/>
<path d="M191.114 123.056V129.404L193.482 131.957V125.609L191.114 123.056Z" fill="#2D3962"/>
<path d="M183.112 178.433H173.53V172.831C173.53 170.186 175.676 168.04 178.321 168.04C180.966 168.04 183.112 170.186 183.112 172.831V178.433Z" fill="#2D3962"/>
<path d="M256.332 164.001C256.332 164.001 258.391 161.331 258.011 158.355C257.629 155.379 255.266 154.693 253.511 154.693C253.511 154.693 253.853 147.829 249.333 146.761C244.817 147.829 245.156 154.693 245.156 154.693C243.401 154.693 241.038 155.379 240.655 158.355C240.273 161.331 242.335 164.001 242.335 164.001C242.335 164.001 238.827 165.832 240.2 170.178C241.572 174.526 249.333 176.051 249.333 176.051C249.333 176.051 257.094 174.526 258.467 170.178C259.839 165.829 256.332 164.001 256.332 164.001Z" fill="#E27491"/>
<path d="M255.762 166.789L250.25 172.459L249.895 165.018L253.945 157.924L249.838 163.83L249.333 153.331L248.831 163.83L244.722 157.924L248.774 165.018L248.419 172.459L242.907 166.789L248.354 173.78L247.934 182.572H249.333H250.736L250.313 173.78L255.762 166.789Z" fill="#2A426A"/>
<path d="M28.7391 171.868C28.7391 171.868 30.798 169.198 30.4182 166.222C30.0357 163.246 27.673 162.56 25.9179 162.56C25.9179 162.56 26.2597 155.697 21.7404 154.628C17.2238 155.697 17.5629 162.56 17.5629 162.56C15.8078 162.56 13.445 163.246 13.0626 166.222C12.6801 169.198 14.7417 171.868 14.7417 171.868C14.7417 171.868 11.2342 173.699 12.6068 178.045C13.9794 182.393 21.7404 183.918 21.7404 183.918C21.7404 183.918 29.5013 182.393 30.8739 178.045C32.2465 173.696 28.7391 171.868 28.7391 171.868Z" fill="#E27491"/>
<path d="M28.1694 174.657L22.6573 180.326L22.3019 172.885L26.3519 165.791L22.2449 171.697L21.7404 161.198L21.2385 171.697L17.1288 165.791L21.1816 172.885L20.8262 180.326L15.3141 174.657L20.7611 181.647L20.3406 190.44H21.7404H23.1428L22.7196 181.647L28.1694 174.657Z" fill="#2A426A"/>
<path d="M144.749 146.492C142.63 147.176 138.331 156.603 139.424 161.111C140.517 165.62 144.749 165.962 144.749 165.962C144.749 165.962 148.981 165.62 150.074 161.111C151.167 156.603 146.868 147.176 144.749 146.492Z" fill="#E27491"/>
<path d="M148.994 158.315L145.354 162.058L145.118 157.145L147.795 152.46L145.08 156.361L144.749 149.427L144.418 156.361L141.703 152.46L144.38 157.145L144.144 162.058L140.504 158.315L144.101 162.932L143.824 168.737H144.749H145.674L145.395 162.932L148.994 158.315Z" fill="#2A426A"/>
<path d="M58.2149 148.12C55.939 148.852 51.3275 158.968 52.4994 163.808C53.6712 168.648 58.2149 169.014 58.2149 169.014C58.2149 169.014 62.7559 168.648 63.9305 163.808C65.1024 158.968 60.4909 148.852 58.2149 148.12Z" fill="#E27491"/>
<path d="M62.7695 160.808L58.8633 164.825L58.611 159.552L61.4837 154.525L58.5703 158.711L58.2149 151.269L57.8596 158.711L54.9462 154.525L57.8189 159.552L57.5666 164.825L53.6577 160.808L57.5205 165.761L57.2221 171.992H58.2149H59.2078L58.9094 165.761L62.7695 160.808Z" fill="#2A426A"/>
<mask id="mask1_3_502" style="mask-type:luminance" maskUnits="userSpaceOnUse" x="133" y="0" width="490" height="200">
<path d="M622.889 0H133.795V199.935H622.889V0Z" fill="white"/>
</mask>
<g mask="url(#mask1_3_502)">
<path d="M311.063 135.369L297.738 149.815H275.144L288.469 135.369H311.063Z" fill="#FF8066"/>
<path d="M292.495 165.796L297.811 160.032H275.218L269.901 165.796H292.495Z" fill="#FF8066"/>
<path d="M297.681 149.815H275.144V160.032H297.681V149.815Z" fill="#F9C3C0"/>
<path d="M297.681 149.815L311.063 135.369L324.444 149.815V160.032L329.634 165.796V211.206H269.901V165.796H292.495L297.681 160.032V149.815Z" fill="white"/>
<path d="M292.495 165.796H269.901V211.209H292.495V165.796Z" fill="#F9C3C0"/>
<path d="M309.164 143.166H312.964C313.203 143.166 313.398 143.361 313.398 143.6V152.669H308.733V143.6C308.733 143.361 308.928 143.166 309.167 143.166H309.164Z" fill="#2D3962"/>
<path d="M302.124 163.542H304.753C304.919 163.542 305.051 163.675 305.051 163.84V173.62H301.823V163.84C301.823 163.675 301.956 163.542 302.122 163.542H302.124Z" fill="#2D3962"/>
<path d="M314.033 175.451H316.662C316.827 175.451 316.96 175.584 316.96 175.75V185.529H313.732V175.75C313.732 175.584 313.865 175.451 314.03 175.451H314.033Z" fill="#2D3962"/>
</g>
</svg>
