<svg width="360" height="347" viewBox="0 0 360 347" fill="none" xmlns="http://www.w3.org/2000/svg">
<g opacity="0.47">
<mask id="mask0_3_134" style="mask-type:luminance" maskUnits="userSpaceOnUse" x="-107" y="0" width="525" height="347">
<path d="M417.444 0H-107V346.683H417.444V0Z" fill="white"/>
</mask>
<g mask="url(#mask0_3_134)">
<path d="M390.468 73.5838C384.104 73.5838 378.267 76.2288 373.703 80.633C370.113 62.8398 356.516 49.5984 340.28 49.5984C328.475 49.5984 318.06 56.5995 311.875 67.26C307.3 64.7176 302.19 63.2924 296.795 63.2924C277.284 63.2924 261.466 81.8817 261.466 104.811C261.466 107.617 261.706 110.355 262.157 113.006C255.449 115.141 249.783 120.254 246.26 127.073C241.526 122.123 235.293 119.108 228.456 119.108C213.657 119.108 201.663 133.207 201.663 150.596C201.663 152.406 201.799 154.175 202.048 155.902C183.425 158.014 168.866 176.452 168.866 198.894C168.866 206.964 170.756 214.517 174.034 220.979C168.063 222.552 163.015 226.982 159.98 232.988C156.137 224.195 149.257 217.544 140.961 214.954C143.116 210.061 144.34 204.515 144.34 198.627C144.34 178.979 130.786 163.054 114.07 163.054C103.961 163.054 95.0177 168.88 89.5192 177.826C85.2991 168.488 78.3311 161.134 69.8771 157.247C69.8826 156.935 69.8962 156.624 69.8962 156.31C69.8962 131.769 52.9693 111.876 32.0871 111.876C26.4548 111.876 21.1147 113.334 16.3128 115.931C11.4125 91.3384 -7.35551 73.022 -29.7728 73.022C-44.4436 73.022 -57.552 80.8641 -66.2381 93.1746C-72.7964 86.7417 -81.2366 82.864 -90.4472 82.864C-111.329 82.864 -128.256 102.757 -128.256 127.297L-131.856 368.512H416.898V104.644C416.898 87.4896 405.065 73.5838 390.468 73.5838ZM239.297 179.39C239.101 179.621 238.909 179.855 238.713 180.089C238.666 179.98 238.628 179.865 238.582 179.756C238.822 179.64 239.06 179.515 239.297 179.393V179.39Z" fill="#F4D7E8"/>
<path opacity="0.2" d="M-125.847 365.302H464.153L464.139 221.252H457.297V237.992H450.075V194.278H440.952V205.904H437.529V194.278L435.248 191.488H427.647V185.444H422.705V139.405H418.523V131.034H399.898V141.73H393.435V147.309L384.12 158.701V225.897H377.087V186.368H371.766V226.824H361.883V182.648H355.8V189.158H337.175V158.001H309.425V169.628H304.864V164.511H298.781V168.697H293.84V178.462H288.136V182.648H282.815V204.505H278.254V190.089H249.363V235.196H241.761V185.903L238.339 181.717V173.345H229.975V204.502H218.191V192.875H214.769V204.502H211.346V193.34L206.785 187.761V169.159H203.744V187.296L198.041 194.271V204.502H188.159C187.017 204.502 188.159 176.6 188.159 176.6H163.829V168.694L161.357 171.718V217.987H156.225V206.826H142.54V197.061L137.028 190.317V156.602H133.797V146.371H125.053V224.032H119.35V198.454H115.927V184.503H98.4403V189.155H89.3171V196.595H81.7154V206.826L65.7499 226.356V187.293H50.164V184.969H47.1239V188.224H43.7014V218.915H38.3804V167.763L33.8189 162.184H25.4551L20.8935 167.763V198.454H17.4709V211.474L12.7182 205.661V191.013H1.88512L-4.1979 198.454H-15.2222L-21.114 205.661H-23.9656V197.989H-28.9069V190.548H-33.4684V198.454H-53.2362V218.449H-58.9395V152.881H-65.7819L-76.9946 139.161V152.416H-82.1271V223.566H-87.0683V209.615H-93.531V222.17H-98.0926V201.244H-104.176L-110.067 208.45H-116.719V231.469H-120.141V212.867H-125.844L-125.858 365.286L-125.847 365.302Z" fill="#C2819C"/>
</g>
</g>
</svg>
