<svg width="741" height="333" viewBox="0 0 741 333" fill="none" xmlns="http://www.w3.org/2000/svg">
    <g clipPath="url(#clip0_1121_5296)">
        <g clipPath="url(#clip1_1121_5296)">
            <g opacity="0.47">
                <mask id="mask0_1121_5296" style="mask-type:luminance" maskUnits="userSpaceOnUse"
                    x="-3" y="30" width="744" height="347">
                    <path d="M741 30H-3V376.683H741V30Z" fill="white" />
                </mask>
                <g mask="url(#mask0_1121_5296)">
                    <path
                        d="M702.731 103.584C693.702 103.584 685.421 106.229 678.946 110.633C673.854 92.8397 654.564 79.5984 631.531 79.5984C614.784 79.5984 600.008 86.5994 591.235 97.26C584.745 94.7176 577.494 93.2924 569.841 93.2924C542.162 93.2924 519.722 111.882 519.722 134.811C519.722 137.616 520.063 140.355 520.702 143.006C511.185 145.141 503.149 150.254 498.15 157.072C491.435 152.123 482.592 149.108 472.893 149.108C451.898 149.108 434.883 163.207 434.883 180.596C434.883 182.406 435.077 184.175 435.429 185.902C409.009 188.014 388.356 206.452 388.356 228.894C388.356 236.964 391.037 244.517 395.687 250.979C387.216 252.552 380.055 256.982 375.75 262.988C370.298 254.195 360.537 247.544 348.769 244.954C351.826 240.061 353.562 234.515 353.562 228.627C353.562 208.979 334.334 193.054 310.619 193.054C296.278 193.054 283.591 198.88 275.791 207.826C269.804 198.488 259.919 191.134 247.926 187.247C247.933 186.935 247.953 186.624 247.953 186.309C247.953 161.769 223.939 141.876 194.315 141.876C186.325 141.876 178.749 143.334 171.937 145.93C164.985 121.338 138.36 103.022 106.558 103.022C85.7453 103.022 67.1492 110.864 54.8267 123.175C45.5228 116.742 33.549 112.864 20.4825 112.864C-9.14182 112.864 -33.1552 132.757 -33.1552 157.297L-38.2625 398.512H740.225V134.644C740.225 117.49 723.439 103.584 702.731 103.584ZM488.273 209.39C487.994 209.621 487.722 209.855 487.443 210.089C487.377 209.98 487.323 209.865 487.257 209.756C487.598 209.64 487.935 209.515 488.273 209.393V209.39Z"
                        fill="#F4D7E8" />
                    <path opacity="0.2"
                        d="M-29.7374 395.302H807.263L807.243 251.252H797.536V267.992H787.291V224.278H774.348V235.904H769.493V224.278L766.257 221.488H755.473V215.444H748.463V169.405H742.531V161.034H716.107V171.729H706.939V177.309L693.725 188.701V255.897H683.747V216.368H676.198V256.824H662.179V212.648H653.549V219.158H627.125V188.001H587.759V199.628H581.288V194.511H572.658V198.697H565.649V208.462H557.558V212.648H550.009V234.505H543.538V220.089H502.552V265.196H491.768V215.903L486.912 211.717V203.345H475.047V234.502H458.331V222.875H453.475V234.502H448.62V223.34L442.148 217.761V199.159H437.836V217.296L429.745 224.271V234.502H415.725C414.105 234.502 415.725 206.6 415.725 206.6H381.21V198.694L377.703 201.718V247.987H370.422V236.826H351.008V227.061L343.189 220.317V186.602H338.605V176.371H326.201V254.031H318.11V228.454H313.254V214.503H288.447V219.155H275.504V226.595H264.72V236.826L242.071 256.356V217.293H219.96V214.969H215.647V218.224H210.792V248.915H203.243V197.763L196.772 192.184H184.907L178.435 197.763V228.454H173.58V241.474L166.837 235.66V221.013H151.469L142.84 228.454H127.2L118.842 235.66H114.796V227.989H107.786V220.548H101.315V228.454H73.2717V248.449H65.1807V182.881H55.4738L39.567 169.161V182.416H32.2858V253.566H25.276V239.615H16.1077V252.17H9.63645V231.243H1.00682L-7.35155 238.45H-16.7872V261.469H-21.6426V242.867H-29.7336L-29.7529 395.286L-29.7374 395.302Z"
                        fill="#C2819C" />
                </g>
            </g>
            <mask id="mask1_1121_5296" style="mask-type:luminance" maskUnits="userSpaceOnUse" x="-6"
                y="48" width="760" height="403">
                <path d="M753.686 48.9214H-5.60767V450.133H753.686V48.9214Z" fill="white" />
            </mask>
            <g mask="url(#mask1_1121_5296)">
                <path
                    d="M811.242 223.694V288.001C811.242 329.518 794.664 367.182 767.741 394.728C763.355 399.252 758.653 403.484 753.722 407.424C752.168 408.679 750.594 409.895 749 411.048C741.51 416.598 733.494 421.458 725.035 425.544C704.783 435.409 682.06 440.92 658.031 440.92H84.7286C21.9208 440.92 -32.0523 403.216 -55.6814 349.232C-12.892 320.032 55.6224 291.167 135.008 274.575C142.269 273.047 149.593 271.642 157.02 270.343C171.142 267.872 185.56 265.799 200.185 264.185C201.067 264.078 201.925 263.995 202.807 263.912C214.307 262.697 225.934 261.753 237.643 261.169C238.901 261.086 240.182 261.023 241.464 260.979C242.326 260.936 243.204 260.896 244.085 260.873C246.288 260.766 248.515 260.683 250.737 260.62C253.383 260.537 256.005 260.474 258.646 260.431C258.9 260.411 259.149 260.411 259.402 260.431H259.422C265.654 260.304 271.906 260.304 278.182 260.387H278.202C278.455 260.387 278.685 260.387 278.958 260.407C279.211 260.407 279.46 260.407 279.713 260.427C286.384 260.533 293.08 260.743 299.795 261.098C300.048 261.118 300.297 261.118 300.55 261.141C300.779 261.141 301.032 261.161 301.286 261.185C305.042 261.374 308.776 261.623 312.533 261.919C314.988 262.085 317.444 262.274 319.9 262.507C320.193 262.527 320.509 262.551 320.802 262.59C339.037 264.205 357.272 266.759 375.36 270.339C384.215 272.076 393.049 274.07 401.821 276.332C404.043 274.299 406.396 272.309 408.892 270.339C410.256 269.23 411.64 268.16 413.088 267.094C413.736 266.613 414.389 266.131 415.061 265.669C415.88 265.041 416.718 264.453 417.58 263.869C417.726 263.743 417.896 263.64 418.043 263.553C418.569 263.155 419.071 262.799 419.617 262.464L419.66 262.444C421.673 261.062 423.773 259.7 425.913 258.358C426.142 258.212 426.352 258.066 426.585 257.94C426.814 257.794 427.067 257.648 427.297 257.502C429.855 255.911 432.521 254.339 435.25 252.808C435.503 252.642 435.752 252.516 436.005 252.37C436.258 252.224 436.507 252.078 436.76 251.951C438.65 250.905 440.557 249.855 442.53 248.829C442.783 248.683 443.056 248.537 443.329 248.41C468.03 235.505 498.247 224.235 531.359 215.649C533.962 214.978 536.584 214.307 539.229 213.679C543.152 212.716 547.139 211.792 551.149 210.892C636.66 192.062 737.116 191.075 811.234 223.69L811.242 223.694Z"
                    fill="#E28AB2" />
                <path
                    d="M718.703 405.786C714.318 410.31 709.616 414.542 704.684 418.481C703.13 419.737 701.556 420.953 699.962 422.105C692.472 427.656 684.456 432.515 675.997 436.601L663.049 433.312L653.187 402.94C653.187 402.94 641.73 401.349 628.003 393.868C611.762 385.006 592.352 367.936 585.048 335.55C579.717 311.963 577.407 294.66 574.975 281.4C573.445 273.126 571.847 266.423 569.435 260.746C565.951 252.516 560.683 246.44 551.326 240.847C540.961 234.669 517.289 229.241 497.334 227.377C497.314 227.377 497.29 227.377 497.27 227.358C491.92 226.876 486.818 226.647 482.33 226.71C484.932 226.039 487.554 225.368 490.199 224.74C494.122 223.777 498.109 222.853 502.119 221.953C512.674 224.026 570.677 217.804 594.432 241.289C601.736 248.493 608.661 262.322 614.241 276.332C614.913 278.005 615.562 279.703 616.214 281.4C621.692 296.086 625.575 310.163 626.686 316.234C633.718 354.589 680.07 359.551 704.688 386.49C710.205 392.522 714.844 399.142 718.707 405.782L718.703 405.786Z"
                    fill="#F2A7CD" />
                <path
                    d="M590.703 415.963C606.419 421.892 621.992 428.299 637.479 435.128C629.988 440.679 621.972 445.538 613.513 449.624C593.262 459.489 570.538 465 546.51 465H-26.7927C-89.6005 465 -143.574 427.296 -167.203 373.313C-175.448 354.565 -180 333.868 -180 312.085V270.233C-115.662 271.847 -53.5024 279.971 6.59645 294.428C12.2397 295.77 17.887 297.191 23.4907 298.659C95.2361 317.426 163.984 345.269 229.896 381.737C293.25 368.832 353.938 366.57 412.57 372.582H412.613C436.305 374.99 459.661 378.784 482.701 383.746C510.736 389.778 538.312 397.591 565.528 406.891C573.943 409.761 582.359 412.797 590.711 415.963H590.703Z"
                    fill="#F2A7CD" />
                <path
                    d="M615.301 305.773C615.301 305.773 618.781 301.269 618.136 296.251C617.492 291.234 613.498 290.077 610.532 290.077C610.532 290.077 611.109 278.499 603.473 276.699C595.84 278.499 596.414 290.077 596.414 290.077C593.448 290.077 589.453 291.234 588.809 296.251C588.164 301.269 591.644 305.773 591.644 305.773C591.644 305.773 585.716 308.86 588.038 316.195C590.359 323.529 603.473 326.099 603.473 326.099C603.473 326.099 616.586 323.525 618.908 316.195C621.229 308.86 615.301 305.773 615.301 305.773Z"
                    fill="#E27491" />
                <path
                    d="M614.336 310.475L605.023 320.04L604.422 307.486L611.267 295.521L604.323 305.485L603.473 287.776L602.622 305.485L595.682 295.521L602.528 307.486L601.926 320.04L592.613 310.475L601.82 322.266L601.108 337.097H603.473H605.842L605.13 322.266L614.336 310.475Z"
                    fill="#2A426A" />
                <path
                    d="M237.631 324.722C237.631 324.722 241.111 320.217 240.467 315.2C239.822 310.182 235.828 309.026 232.862 309.026C232.862 309.026 233.439 297.447 225.803 295.647C218.17 297.447 218.744 309.026 218.744 309.026C215.778 309.026 211.784 310.182 211.139 315.2C210.494 320.217 213.975 324.722 213.975 324.722C213.975 324.722 208.047 327.809 210.368 335.143C212.689 342.478 225.803 345.048 225.803 345.048C225.803 345.048 238.917 342.474 241.238 335.143C243.559 327.809 237.631 324.722 237.631 324.722Z"
                    fill="#E27491" />
                <path
                    d="M236.666 329.423L227.353 338.988L226.752 326.435L233.597 314.47L226.653 324.433L225.803 306.724L224.953 324.433L218.012 314.47L224.858 326.435L224.257 338.988L214.943 329.423L224.15 341.215L223.438 356.046H225.803H228.172L227.46 341.215L236.666 329.423Z"
                    fill="#2A426A" />
                <path
                    d="M758.459 198.398C758.459 198.398 761.939 193.894 761.295 188.876C760.65 183.859 756.656 182.702 753.69 182.702C753.69 182.702 754.267 171.124 746.631 169.324C738.998 171.124 739.572 182.702 739.572 182.702C736.606 182.702 732.612 183.859 731.967 188.876C731.323 193.894 734.803 198.398 734.803 198.398C734.803 198.398 728.875 201.485 731.196 208.82C733.517 216.154 746.631 218.724 746.631 218.724C746.631 218.724 759.745 216.15 762.066 208.82C764.387 201.485 758.459 198.398 758.459 198.398Z"
                    fill="#E27491" />
                <path
                    d="M757.494 203.099L748.181 212.665L747.58 200.111L754.426 188.146L747.481 198.11L746.631 180.401L745.781 198.11L738.84 188.146L745.686 200.111L745.085 212.665L735.771 203.099L744.978 214.891L744.266 229.722H746.631H749L748.288 214.891L757.494 203.099Z"
                    fill="#2A426A" />
            </g>
            <path
                d="M587.84 158.302V148.149H581.671V137.743H560.145V148.149H553.972V158.302H547.229V270.217H594.586V158.302H587.84Z"
                fill="white" />
            <path
                d="M578.475 158.302V148.149H572.306V137.743H550.781V148.149H544.611V158.302H537.865V270.217H585.222V158.302H578.475Z"
                fill="#F9C3C0" />
            <path d="M547.981 166.28H545.398V258.982H547.981V166.28Z" fill="#2D3962" />
            <path d="M557.883 166.28H555.301V258.982H557.883V166.28Z" fill="#2D3962" />
            <path d="M567.786 166.28H565.203V258.982H567.786V166.28Z" fill="#2D3962" />
            <path d="M577.684 166.28H575.102V258.982H577.684V166.28Z" fill="#2D3962" />
            <path d="M469.038 204.722L452.037 169.549H501.106L520.29 189.551L469.038 204.722Z"
                fill="#FF8066" />
            <path d="M520.286 189.539H470.493V272.479H520.286V189.539Z" fill="white" />
            <path d="M471.221 272.479H452.037V169.549L471.221 189.551V265.144V272.479Z"
                fill="#F9C3C0" />
            <path d="M480.412 196.231H476.619V203.842H480.412V196.231Z" fill="#2D3962" />
            <path d="M488.898 196.231H485.106V203.842H488.898V196.231Z" fill="#2D3962" />
            <path d="M497.385 196.231H493.593V203.842H497.385V196.231Z" fill="#2D3962" />
            <path d="M505.868 196.231H502.075V203.842H505.868V196.231Z" fill="#2D3962" />
            <path d="M514.355 196.231H510.562V203.842H514.355V196.231Z" fill="#2D3962" />
            <path d="M480.412 210.426H476.619V218.037H480.412V210.426Z" fill="#2D3962" />
            <path d="M488.898 210.426H485.106V218.037H488.898V210.426Z" fill="#2D3962" />
            <path d="M497.385 210.426H493.593V218.037H497.385V210.426Z" fill="#2D3962" />
            <path d="M505.868 210.426H502.075V218.037H505.868V210.426Z" fill="#2D3962" />
            <path d="M514.355 210.426H510.562V218.037H514.355V210.426Z" fill="#2D3962" />
            <path d="M480.412 224.622H476.619V232.233H480.412V224.622Z" fill="#2D3962" />
            <path d="M488.898 224.622H485.106V232.233H488.898V224.622Z" fill="#2D3962" />
            <path d="M497.385 224.622H493.593V232.233H497.385V224.622Z" fill="#2D3962" />
            <path d="M505.868 224.622H502.075V232.233H505.868V224.622Z" fill="#2D3962" />
            <path d="M514.355 224.622H510.562V232.233H514.355V224.622Z" fill="#2D3962" />
            <path d="M480.412 238.817H476.619V246.428H480.412V238.817Z" fill="#2D3962" />
            <path d="M488.898 238.817H485.106V246.428H488.898V238.817Z" fill="#2D3962" />
            <path d="M497.385 238.817H493.593V246.428H497.385V238.817Z" fill="#2D3962" />
            <path d="M505.868 238.817H502.075V246.428H505.868V238.817Z" fill="#2D3962" />
            <path d="M514.355 238.817H510.562V246.428H514.355V238.817Z" fill="#2D3962" />
            <path d="M367.759 233.571L339.361 189.61H379.208L411.252 214.607L367.759 233.571Z"
                fill="#FF8066" />
            <path d="M411.253 214.595H370.191V269.767H411.253V214.595Z" fill="white" />
            <path
                d="M371.405 269.767H339.361H307.32V245.446V214.607L339.361 189.61L371.405 214.607V245.446V269.767Z"
                fill="#F9C3C0" />
            <path d="M361.685 222.747H314.099V226.004H361.685V222.747Z" fill="#2D3962" />
            <path d="M361.685 233.547H314.099V236.804H361.685V233.547Z" fill="#2D3962" />
            <path d="M361.685 244.348H314.099V247.605H361.685V244.348Z" fill="#2D3962" />
            <path d="M361.685 255.149H314.099V258.406H361.685V255.149Z" fill="#2D3962" />
            <path d="M387.264 227.63H381.636V236.95H387.264V227.63Z" fill="#2D3962" />
            <path d="M387.264 244.486H381.636V253.807H387.264V244.486Z" fill="#2D3962" />
            <path d="M403.766 227.63H398.139V236.95H403.766V227.63Z" fill="#2D3962" />
            <path d="M403.766 244.486H398.139V253.807H403.766V244.486Z" fill="#2D3962" />
            <path d="M254.605 231.771L269.976 248.308H331.669L316.293 231.771H254.605Z"
                fill="#FF8066" />
            <path d="M268.351 216.356L278.238 226.99H317.923L308.032 216.356H268.351Z"
                fill="#FF8066" />
            <path
                d="M278.238 226.99V242.406L268.351 231.771H264.978V219.983L268.351 216.356L278.238 226.99Z"
                fill="#F9C3C0" />
            <path d="M317.919 226.99H278.238V242.406H317.919V226.99Z" fill="white" />
            <path d="M331.665 248.308H269.976V302.654H331.665V248.308Z" fill="white" />
            <path d="M254.605 231.771L238.513 247.834V302.65H269.976V248.308L254.605 231.771Z"
                fill="#F9C3C0" />
            <path d="M249.313 254.533H242.812V265.338H249.313V254.533Z" fill="#2D3962" />
            <path d="M262.225 254.533H255.724V265.338H262.225V254.533Z" fill="#2D3962" />
            <path d="M249.313 271.346H242.812V282.15H249.313V271.346Z" fill="#2D3962" />
            <path d="M262.225 271.346H255.724V282.15H262.225V271.346Z" fill="#2D3962" />
            <path d="M270.641 222.068V231.305L274.093 235.02V225.782L270.641 222.068Z"
                fill="#2D3962" />
            <path
                d="M258.975 302.65H245.007V294.499C245.007 290.65 248.135 287.527 251.991 287.527C255.847 287.527 258.975 290.65 258.975 294.499V302.65Z"
                fill="#2D3962" />
            <path d="M645.914 215.337L629.19 183.121H662.86L681.727 201.441L645.914 215.337Z"
                fill="#FF8066" />
            <path d="M681.727 201.43H647.346V268.717H681.727V201.43Z" fill="white" />
            <path
                d="M648.061 268.721H629.19H610.318V224.042V201.441L629.19 183.121L648.061 201.441V224.042V268.721Z"
                fill="#F9C3C0" />
            <path
                d="M625.417 215.696H618.639V206.822C618.639 204.955 620.157 203.439 622.028 203.439C623.898 203.439 625.417 204.955 625.417 206.822V215.696Z"
                fill="#2D3962" />
            <path
                d="M639.741 215.696H632.962V206.822C632.962 204.955 634.481 203.439 636.352 203.439C638.222 203.439 639.741 204.955 639.741 206.822V215.696Z"
                fill="#2D3962" />
            <path
                d="M625.417 234.211H618.639V225.336C618.639 223.469 620.157 221.953 622.028 221.953C623.898 221.953 625.417 223.469 625.417 225.336V234.211Z"
                fill="#2D3962" />
            <path
                d="M639.741 234.211H632.962V225.336C632.962 223.469 634.481 221.953 636.352 221.953C638.222 221.953 639.741 223.469 639.741 225.336V234.211Z"
                fill="#2D3962" />
            <path
                d="M625.417 252.729H618.639V243.855C618.639 241.987 620.157 240.472 622.028 240.472C623.898 240.472 625.417 241.987 625.417 243.855V252.729Z"
                fill="#2D3962" />
            <path
                d="M639.741 252.729H632.962V243.855C632.962 241.987 634.481 240.472 636.352 240.472C638.222 240.472 639.741 241.987 639.741 243.855V252.729Z"
                fill="#2D3962" />
            <path d="M683.902 253.222L668.329 221.002H699.681L717.256 239.323L683.902 253.222Z"
                fill="#FF8066" />
            <path d="M717.256 239.315H685.235V268.646H717.256V239.315Z" fill="white" />
            <path d="M685.903 268.646H668.329V221.002L685.903 239.323V261.927V268.646Z"
                fill="#F9C3C0" />
            <path
                d="M702.359 250.491C699.579 250.491 697.328 252.741 697.328 255.512V268.642H707.393V255.512C707.393 252.737 705.139 250.491 702.363 250.491H702.359Z"
                fill="#2D3962" />
            <path d="M692.189 363.187H748.242V312.14H692.189V363.187Z" fill="white" />
            <path d="M626.201 312.93V363.187H692.189V311.954L659.927 279.75L626.201 312.93Z"
                fill="#F9C3C0" />
            <path d="M748.266 312.29L714.05 279.264L659.927 279.789L692.189 312.29H748.266Z"
                fill="#FF8066" />
            <path d="M721.176 344.013H731.534V327.259H721.176V344.013Z" fill="#2D3962" />
            <path d="M702.768 344.013H713.125V327.259H702.768V344.013Z" fill="#2D3962" />
            <path d="M663.83 306.546H653.888V316.471H663.83V306.546Z" fill="#2D3962" />
            <path
                d="M365.719 281.649C365.719 281.649 368.72 277.765 368.167 273.434C367.609 269.104 364.164 268.105 361.606 268.105C361.606 268.105 362.104 258.117 355.516 256.562C348.931 258.117 349.425 268.105 349.425 268.105C346.867 268.105 343.422 269.104 342.865 273.434C342.307 277.765 345.313 281.649 345.313 281.649C345.313 281.649 340.199 284.314 342.2 290.638C344.201 296.966 355.516 299.184 355.516 299.184C355.516 299.184 366.83 296.966 368.831 290.638C370.832 284.31 365.719 281.649 365.719 281.649Z"
                fill="#E27491" />
            <path
                d="M364.888 285.707L356.852 293.958L356.334 283.129L362.238 272.806L356.251 281.4L355.516 266.123L354.784 281.4L348.793 272.806L354.701 283.129L354.183 293.958L346.147 285.707L354.088 295.88L353.475 308.674H355.516H357.56L356.943 295.88L364.888 285.707Z"
                fill="#2A426A" />
            <path
                d="M33.9232 293.097C33.9232 293.097 36.9248 289.213 36.3711 284.882C35.8135 280.552 32.369 279.553 29.8103 279.553C29.8103 279.553 30.3086 269.565 23.7202 268.01C17.1357 269.565 17.63 279.553 17.63 279.553C15.0713 279.553 11.6268 280.552 11.0692 284.882C10.5116 289.213 13.5172 293.097 13.5172 293.097C13.5172 293.097 8.40378 295.762 10.4048 302.086C12.4059 308.414 23.7202 310.632 23.7202 310.632C23.7202 310.632 35.0344 308.414 37.0355 302.086C39.0365 295.758 33.9232 293.097 33.9232 293.097Z"
                fill="#E27491" />
            <path
                d="M33.0927 297.155L25.0568 305.406L24.5388 294.578L30.4431 284.255L24.4557 292.848L23.7201 277.571L22.9885 292.848L16.9972 284.255L22.9055 294.578L22.3874 305.406L14.3516 297.155L22.2925 307.328L21.6795 320.123H23.7201H25.7647L25.1478 307.328L33.0927 297.155Z"
                fill="#2A426A" />
            <path
                d="M534.076 246.176C530.596 247.297 523.541 262.74 525.336 270.126C527.132 277.512 534.076 278.073 534.076 278.073C534.076 278.073 541.024 277.512 542.816 270.126C544.611 262.74 537.552 247.293 534.076 246.176Z"
                fill="#E27491" />
            <path
                d="M541.044 265.543L535.069 271.677L534.685 263.628L539.075 255.95L534.622 262.341L534.076 250.984L533.53 262.341L529.077 255.95L533.471 263.628L533.083 271.677L527.108 265.543L533.016 273.106L532.557 282.62H534.076H535.595L535.14 273.106L541.044 265.543Z"
                fill="#2A426A" />
            <path
                d="M510.944 288.008C507.856 289.003 501.588 302.721 503.181 309.282C504.775 315.843 510.944 316.34 510.944 316.34C510.944 316.34 517.114 315.843 518.707 309.282C520.301 302.721 514.033 289.003 510.944 288.008Z"
                fill="#E27491" />
            <path
                d="M517.133 305.212L511.826 310.66L511.482 303.511L515.385 296.693L511.427 302.37L510.944 292.28L510.462 302.37L506.503 296.693L510.406 303.511L510.062 310.66L504.755 305.212L509.999 311.931L509.596 320.379H510.944H512.293L511.885 311.931L517.133 305.212Z"
                fill="#2A426A" />
            <path
                d="M203.048 256.171C199.959 257.166 193.691 270.884 195.285 277.445C196.879 284.006 203.048 284.503 203.048 284.503C203.048 284.503 209.217 284.006 210.811 277.445C212.405 270.884 206.137 257.166 203.048 256.171Z"
                fill="#E27491" />
            <path
                d="M209.237 273.375L203.93 278.823L203.586 271.673L207.489 264.856L203.53 270.533L203.048 260.443L202.565 270.533L198.607 264.856L202.51 271.673L202.166 278.823L196.859 273.375L202.103 280.094L201.699 288.542H203.048H204.396L203.989 280.094L209.237 273.375Z"
                fill="#2A426A" />
            <path
                d="M76.8945 258.54C73.5765 259.606 66.8536 274.326 68.562 281.369C70.2705 288.411 76.8945 288.944 76.8945 288.944C76.8945 288.944 83.5146 288.411 85.2269 281.369C86.9354 274.326 80.2124 259.606 76.8945 258.54Z"
                fill="#E27491" />
            <path
                d="M83.5344 277.003L77.8397 282.849L77.4719 275.175L81.6599 267.86L77.4126 273.951L76.8945 263.123L76.3765 273.951L72.1292 267.86L76.3172 275.175L75.9494 282.849L70.2507 277.003L75.8822 284.211L75.4472 293.279H76.8945H78.342L77.9069 284.211L83.5344 277.003Z"
                fill="#2A426A" />
            <path d="M790.971 165.092L777.473 179.607H723.318L736.816 165.092H790.971Z"
                fill="#FF8066" />
            <path d="M778.905 151.559L770.221 160.895H735.384L744.068 151.559H778.905Z"
                fill="#FF8066" />
            <path d="M770.221 160.896H735.384V174.428H770.221V160.896Z" fill="#F9C3C0" />
            <path d="M777.473 179.607H723.318V227.318H777.473V179.607Z" fill="#F9C3C0" />
            <mask id="mask2_1121_5296" style="mask-type:luminance" maskUnits="userSpaceOnUse"
                x="187" y="43" width="714" height="291">
                <path d="M900.103 43H187.079V333.939H900.103V43Z" fill="white" />
            </mask>
            <g mask="url(#mask2_1121_5296)">
                <path d="M445.508 239.986L426.083 261.007H393.144L412.57 239.986H445.508Z"
                    fill="#FF8066" />
                <path d="M418.438 284.262L426.189 275.874H393.251L385.5 284.262H418.438Z"
                    fill="#FF8066" />
                <path d="M426 261.007H393.144V275.874H426V261.007Z" fill="#F9C3C0" />
                <path
                    d="M426 261.007L445.508 239.986L465.016 261.007V275.874L472.582 284.262V350.342H385.5V284.262H418.438L426 275.874V261.007Z"
                    fill="white" />
                <path d="M418.438 284.262H385.5V350.345H418.438V284.262Z" fill="#F9C3C0" />
                <path
                    d="M442.74 251.331H448.28C448.628 251.331 448.913 251.616 448.913 251.963V265.16H442.111V251.963C442.111 251.616 442.396 251.331 442.744 251.331H442.74Z"
                    fill="#2D3962" />
                <path
                    d="M432.477 280.982H436.309C436.551 280.982 436.744 281.175 436.744 281.416V295.647H432.038V281.416C432.038 281.175 432.232 280.982 432.473 280.982H432.477Z"
                    fill="#2D3962" />
                <path
                    d="M449.838 298.312H453.67C453.912 298.312 454.105 298.505 454.105 298.746V312.977H449.399V298.746C449.399 298.505 449.593 298.312 449.834 298.312H449.838Z"
                    fill="#2D3962" />
            </g>
        </g>
    </g>
    <defs>
        <clipPath id="clip0_1121_5296">
            <rect width="741" height="333" rx="16" fill="white" />
        </clipPath>
        <clipPath id="clip1_1121_5296">
            <rect width="1124" height="422" fill="white" transform="translate(-180 43)" />
        </clipPath>
    </defs>
</svg>
    