<svg width="360" height="353" viewBox="0 0 360 353" fill="none" xmlns="http://www.w3.org/2000/svg">
    <g opacity="0.47">
        <mask id="mask0_0_1" style="mask-type:luminance" maskUnits="userSpaceOnUse" x="-84" y="0"
            width="526" height="348">
            <path d="M441.222 0.614258H-83.2222V347.298H441.222V0.614258Z" fill="white" />
        </mask>
        <g mask="url(#mask0_0_1)">
            <path
                d="M414.246 74.198C407.882 74.198 402.045 76.8431 397.48 81.2472C393.891 63.454 380.294 50.2126 364.058 50.2126C352.252 50.2126 341.837 57.2137 335.653 67.8742C331.078 65.3319 325.967 63.9066 320.573 63.9066C301.062 63.9066 285.244 82.4959 285.244 105.425C285.244 108.231 285.484 110.969 285.935 113.62C279.226 115.755 273.561 120.869 270.038 127.687C265.304 122.737 259.071 119.723 252.234 119.723C237.435 119.723 225.441 133.821 225.441 151.21C225.441 153.02 225.577 154.789 225.826 156.516C207.203 158.628 192.644 177.067 192.644 199.508C192.644 207.578 194.534 215.131 197.812 221.593C191.841 223.166 186.793 227.596 183.758 233.602C179.915 224.81 173.034 218.158 164.739 215.568C166.894 210.676 168.118 205.129 168.118 199.242C168.118 179.593 154.564 163.668 137.848 163.668C127.738 163.668 118.795 169.494 113.297 178.441C109.077 169.103 102.109 161.748 93.6549 157.861C93.6604 157.55 93.674 157.238 93.674 156.924C93.674 132.383 76.747 112.49 55.8649 112.49C50.2325 112.49 44.8925 113.948 40.0905 116.545C35.1903 91.9527 16.4223 73.6363 -5.99501 73.6363C-20.6658 73.6363 -33.7742 81.4784 -42.4603 93.7888C-49.0186 87.3559 -57.4589 83.4782 -66.6694 83.4782C-87.5516 83.4782 -104.479 103.371 -104.479 127.911L-108.079 369.126H440.676V105.258C440.676 88.1039 428.843 74.198 414.246 74.198ZM263.075 180.004C262.878 180.235 262.687 180.469 262.491 180.704C262.444 180.595 262.406 180.479 262.359 180.37C262.6 180.254 262.837 180.129 263.075 180.007V180.004Z"
                fill="#F4D7E8" />
            <path opacity="0.2"
                d="M-102.069 365.916H487.931L487.917 221.866H481.075V238.606H473.853V194.892H464.729V206.519H461.307V194.892L459.026 192.102H451.424V186.058H446.483V140.02H442.301V131.648H423.675V142.344H417.213V147.923L407.898 159.315V226.511H400.865V186.982H395.544V227.439H385.661V183.262H379.578V189.772H360.952V158.615H333.203V170.242H328.642V165.125H322.559V169.311H317.617V179.076H311.914V183.262H306.593V205.119H302.031V190.703H273.141V235.81H265.539V186.517L262.116 182.331V173.959H253.753V205.116H241.969V193.489H238.546V205.116H235.124V193.955L230.562 188.376V169.773H227.522V187.91L221.819 194.886V205.116H211.936C210.795 205.116 211.936 177.214 211.936 177.214H187.607V169.308L185.135 172.332V218.601H180.003V207.44H166.318V197.675L160.806 190.931V157.216H157.574V146.985H148.831V224.646H143.128V199.068H139.705V185.117H122.218V189.769H113.095V197.21H105.493V207.44L89.5277 226.97V187.907H73.9418V185.583H70.9017V188.838H67.4791V219.529H62.1582V168.377L57.5966 162.798H49.2328L44.6712 168.377V199.068H41.2487V212.088L36.4959 206.275V191.627H25.6629L19.5799 199.068H8.55562L2.66381 206.275H-0.187859V198.603H-5.1291V191.162H-9.69067V199.068H-29.4584V219.064H-35.1617V153.495H-42.0041L-53.2168 139.776V153.03H-58.3493V224.18H-63.2905V210.23H-69.7532V222.784H-74.3148V201.858H-80.3978L-86.2896 209.064H-92.9408V232.083H-96.3633V213.481H-102.067L-102.08 365.9L-102.069 365.916Z"
                fill="#C2819C" />
        </g>
    </g>
    <mask id="mask1_0_1" style="mask-type:luminance" maskUnits="userSpaceOnUse" x="1" y="67"
        width="522" height="276">
        <path d="M522.456 67.0692H1.62326V342.784H522.456V67.0692Z" fill="white" />
    </mask>
    <g mask="url(#mask1_0_1)">
        <path
            d="M561.936 187.174V231.365C561.936 259.896 550.564 285.779 532.096 304.709C529.088 307.818 525.863 310.726 522.48 313.434C521.414 314.296 520.334 315.132 519.241 315.924C514.103 319.738 508.605 323.078 502.802 325.885C488.911 332.665 473.324 336.452 456.842 336.452H63.5887C20.5061 336.452 -16.5164 310.542 -32.7245 273.444C-3.37348 253.377 43.6235 233.541 98.0776 222.139C103.058 221.089 108.082 220.124 113.176 219.231C122.863 217.533 132.754 216.109 142.785 214.999C143.39 214.926 143.979 214.869 144.584 214.812C152.472 213.976 160.447 213.328 168.479 212.926C169.342 212.869 170.221 212.826 171.1 212.796C171.691 212.766 172.293 212.739 172.898 212.723C174.409 212.65 175.937 212.593 177.461 212.549C179.276 212.492 181.074 212.449 182.886 212.419C183.06 212.406 183.231 212.406 183.405 212.419H183.418C187.693 212.332 191.982 212.332 196.287 212.389H196.301C196.474 212.389 196.632 212.389 196.819 212.403C196.992 212.403 197.163 212.403 197.337 212.416C201.913 212.49 206.506 212.633 211.112 212.878C211.285 212.891 211.456 212.891 211.63 212.907C211.787 212.907 211.961 212.921 212.134 212.937C214.711 213.067 217.272 213.238 219.849 213.442C221.534 213.556 223.218 213.686 224.903 213.846C225.104 213.86 225.321 213.876 225.521 213.903C238.03 215.013 250.538 216.768 262.945 219.228C269.019 220.422 275.079 221.792 281.096 223.346C282.62 221.949 284.234 220.582 285.946 219.228C286.882 218.466 287.831 217.731 288.824 216.998C289.269 216.667 289.717 216.336 290.178 216.019C290.739 215.588 291.315 215.183 291.906 214.782C292.006 214.695 292.123 214.625 292.223 214.565C292.584 214.291 292.929 214.047 293.303 213.816L293.333 213.803C294.713 212.853 296.154 211.917 297.621 210.995C297.779 210.894 297.923 210.794 298.083 210.707C298.24 210.607 298.414 210.507 298.571 210.406C300.326 209.313 302.154 208.233 304.026 207.181C304.2 207.067 304.371 206.98 304.544 206.88C304.718 206.779 304.889 206.679 305.062 206.592C306.359 205.873 307.667 205.151 309.02 204.446C309.194 204.346 309.381 204.245 309.568 204.159C326.511 195.29 347.239 187.545 369.952 181.645C371.737 181.184 373.535 180.723 375.35 180.291C378.041 179.629 380.776 178.994 383.526 178.376C442.182 165.436 511.089 164.758 561.93 187.171L561.936 187.174Z"
            fill="#E28AB2" />
        <path
            d="M498.459 312.308C495.451 315.417 492.226 318.325 488.843 321.032C487.777 321.895 486.697 322.73 485.604 323.522C480.466 327.337 474.968 330.676 469.165 333.484L460.284 331.224L453.519 310.352C453.519 310.352 445.66 309.258 436.244 304.118C425.103 298.027 411.79 286.297 406.779 264.041C403.123 247.832 401.538 235.942 399.87 226.83C398.82 221.144 397.724 216.537 396.07 212.636C393.68 206.98 390.066 202.805 383.648 198.961C376.538 194.715 360.3 190.985 346.612 189.705C346.599 189.705 346.582 189.705 346.569 189.691C342.899 189.36 339.399 189.203 336.32 189.246C338.105 188.785 339.904 188.324 341.719 187.893C344.41 187.231 347.144 186.596 349.895 185.977C357.135 187.402 396.921 183.126 413.216 199.265C418.227 204.216 422.977 213.719 426.804 223.346C427.265 224.497 427.71 225.663 428.158 226.83C431.915 236.921 434.579 246.595 435.341 250.767C440.164 277.125 471.959 280.535 488.846 299.047C492.63 303.193 495.812 307.742 498.462 312.305L498.459 312.308Z"
            fill="#F2A7CD" />
        <path
            d="M410.658 319.301C421.438 323.376 432.121 327.779 442.744 332.472C437.606 336.286 432.107 339.626 426.305 342.434C412.413 349.213 396.826 353 380.344 353H-12.9085C-55.9911 353 -93.0136 327.09 -109.222 289.992C-114.878 277.109 -118 262.886 -118 247.916V219.155C-73.8676 220.265 -31.2299 225.848 9.99454 235.782C13.8655 236.704 17.7392 237.681 21.5831 238.69C70.7963 251.587 117.953 270.72 163.165 295.781C206.622 286.913 248.251 285.359 288.469 289.49H288.499C304.75 291.145 320.771 293.752 336.575 297.162C355.805 301.307 374.721 306.676 393.389 313.067C399.162 315.039 404.935 317.126 410.664 319.301H410.658Z"
            fill="#F2A7CD" />
        <path
            d="M168.471 256.6C168.471 256.6 170.858 253.505 170.416 250.057C169.974 246.609 167.234 245.814 165.2 245.814C165.2 245.814 165.596 237.857 160.358 236.62C155.122 237.857 155.516 245.814 155.516 245.814C153.481 245.814 150.741 246.609 150.299 250.057C149.857 253.505 152.244 256.6 152.244 256.6C152.244 256.6 148.178 258.721 149.77 263.762C151.363 268.802 160.358 270.568 160.358 270.568C160.358 270.568 169.353 268.8 170.945 263.762C172.538 258.721 168.471 256.6 168.471 256.6Z"
            fill="#E27491" />
        <path
            d="M167.809 259.831L161.421 266.404L161.009 257.777L165.704 249.555L160.941 256.402L160.358 244.232L159.775 256.402L155.014 249.555L159.709 257.777L159.297 266.404L152.909 259.831L159.224 267.934L158.736 278.126H160.358H161.983L161.494 267.934L167.809 259.831Z"
            fill="#2A426A" />
    </g>
    <path d="M327.203 174.136L315.541 149.965H349.2L362.359 163.711L327.203 174.136Z" fill="#FF8066" />
    <path d="M362.357 163.702H328.201V220.699H362.357V163.702Z" fill="white" />
    <path d="M328.701 220.699H315.541V149.965L328.701 163.711V215.658V220.699Z" fill="#F9C3C0" />
    <path d="M335.005 168.301H332.403V173.531H335.005V168.301Z" fill="#2D3962" />
    <path d="M340.826 168.301H338.225V173.531H340.826V168.301Z" fill="#2D3962" />
    <path d="M346.648 168.301H344.046V173.531H346.648V168.301Z" fill="#2D3962" />
    <path d="M352.466 168.301H349.865V173.531H352.466V168.301Z" fill="#2D3962" />
    <path d="M358.288 168.301H355.686V173.531H358.288V168.301Z" fill="#2D3962" />
    <path d="M335.005 178.056H332.403V183.286H335.005V178.056Z" fill="#2D3962" />
    <path d="M340.826 178.056H338.225V183.286H340.826V178.056Z" fill="#2D3962" />
    <path d="M346.648 178.056H344.046V183.286H346.648V178.056Z" fill="#2D3962" />
    <path d="M352.466 178.056H349.865V183.286H352.466V178.056Z" fill="#2D3962" />
    <path d="M358.288 178.056H355.686V183.286H358.288V178.056Z" fill="#2D3962" />
    <path d="M335.005 187.811H332.403V193.041H335.005V187.811Z" fill="#2D3962" />
    <path d="M340.826 187.811H338.225V193.041H340.826V187.811Z" fill="#2D3962" />
    <path d="M346.648 187.811H344.046V193.041H346.648V187.811Z" fill="#2D3962" />
    <path d="M352.466 187.811H349.865V193.041H352.466V187.811Z" fill="#2D3962" />
    <path d="M358.288 187.811H355.686V193.041H358.288V187.811Z" fill="#2D3962" />
    <path d="M335.005 197.567H332.403V202.797H335.005V197.567Z" fill="#2D3962" />
    <path d="M340.826 197.567H338.225V202.797H340.826V197.567Z" fill="#2D3962" />
    <path d="M346.648 197.567H344.046V202.797H346.648V197.567Z" fill="#2D3962" />
    <path d="M352.466 197.567H349.865V202.797H352.466V197.567Z" fill="#2D3962" />
    <path d="M358.288 197.567H355.686V202.797H358.288V197.567Z" fill="#2D3962" />
    <path d="M257.732 193.961L238.252 163.751H265.585L287.566 180.929L257.732 193.961Z"
        fill="#FF8066" />
    <path d="M287.566 180.921H259.4V218.835H287.566V180.921Z" fill="white" />
    <path
        d="M260.233 218.835H238.252H216.274V202.121V180.929L238.252 163.751L260.233 180.929V202.121V218.835Z"
        fill="#F9C3C0" />
    <path d="M253.565 186.523H220.923V188.761H253.565V186.523Z" fill="#2D3962" />
    <path d="M253.565 193.945H220.923V196.183H253.565V193.945Z" fill="#2D3962" />
    <path d="M253.565 201.367H220.923V203.605H253.565V201.367Z" fill="#2D3962" />
    <path d="M253.565 208.789H220.923V211.028H253.565V208.789Z" fill="#2D3962" />
    <path d="M271.111 189.878H267.25V196.283H271.111V189.878Z" fill="#2D3962" />
    <path d="M271.111 201.462H267.25V207.867H271.111V201.462Z" fill="#2D3962" />
    <path d="M282.431 189.878H278.57V196.283H282.431V189.878Z" fill="#2D3962" />
    <path d="M282.431 201.462H278.57V207.867H282.431V201.462Z" fill="#2D3962" />
    <path d="M180.114 192.724L190.658 204.088H232.976L222.429 192.724H180.114Z" fill="#FF8066" />
    <path d="M189.543 182.131L196.325 189.439H223.547L216.762 182.131H189.543Z" fill="#FF8066" />
    <path
        d="M196.325 189.439V200.032L189.543 192.724H187.229V184.624L189.543 182.131L196.325 189.439Z"
        fill="#F9C3C0" />
    <path d="M223.544 189.439H196.325V200.033H223.544V189.439Z" fill="white" />
    <path d="M232.973 204.088H190.658V241.435H232.973V204.088Z" fill="white" />
    <path d="M180.114 192.724L169.076 203.763V241.433H190.658V204.088L180.114 192.724Z"
        fill="#F9C3C0" />
    <path d="M176.485 208.366H172.025V215.791H176.485V208.366Z" fill="#2D3962" />
    <path d="M185.341 208.366H180.882V215.791H185.341V208.366Z" fill="#2D3962" />
    <path d="M176.485 219.92H172.025V227.345H176.485V219.92Z" fill="#2D3962" />
    <path d="M185.341 219.92H180.882V227.345H185.341V219.92Z" fill="#2D3962" />
    <path d="M191.114 186.056V192.404L193.482 194.957V188.609L191.114 186.056Z" fill="#2D3962" />
    <path
        d="M183.112 241.433H173.53V235.831C173.53 233.186 175.676 231.04 178.321 231.04C180.966 231.04 183.112 233.186 183.112 235.831V241.433Z"
        fill="#2D3962" />
    <path
        d="M256.332 227.001C256.332 227.001 258.391 224.331 258.011 221.355C257.629 218.379 255.266 217.693 253.511 217.693C253.511 217.693 253.853 210.829 249.333 209.761C244.817 210.829 245.156 217.693 245.156 217.693C243.401 217.693 241.038 218.379 240.655 221.355C240.273 224.331 242.335 227.001 242.335 227.001C242.335 227.001 238.827 228.832 240.2 233.178C241.572 237.526 249.333 239.051 249.333 239.051C249.333 239.051 257.094 237.526 258.467 233.178C259.839 228.829 256.332 227.001 256.332 227.001Z"
        fill="#E27491" />
    <path
        d="M255.762 229.789L250.25 235.459L249.895 228.018L253.945 220.924L249.838 226.83L249.333 216.331L248.831 226.83L244.722 220.924L248.774 228.018L248.419 235.459L242.907 229.789L248.354 236.78L247.934 245.572H249.333H250.736L250.313 236.78L255.762 229.789Z"
        fill="#2A426A" />
    <path
        d="M28.7391 234.868C28.7391 234.868 30.798 232.198 30.4182 229.222C30.0357 226.246 27.673 225.56 25.9179 225.56C25.9179 225.56 26.2597 218.697 21.7404 217.628C17.2238 218.697 17.5629 225.56 17.5629 225.56C15.8078 225.56 13.445 226.246 13.0626 229.222C12.6801 232.198 14.7417 234.868 14.7417 234.868C14.7417 234.868 11.2342 236.699 12.6068 241.045C13.9794 245.393 21.7404 246.918 21.7404 246.918C21.7404 246.918 29.5013 245.393 30.8739 241.045C32.2465 236.696 28.7391 234.868 28.7391 234.868Z"
        fill="#E27491" />
    <path
        d="M28.1694 237.657L22.6573 243.326L22.3019 235.885L26.3519 228.791L22.2449 234.697L21.7404 224.198L21.2385 234.697L17.1288 228.791L21.1816 235.885L20.8262 243.326L15.3141 237.657L20.7611 244.647L20.3406 253.44H21.7404H23.1428L22.7196 244.647L28.1694 237.657Z"
        fill="#2A426A" />
    <path
        d="M144.749 209.492C142.63 210.176 138.331 219.603 139.424 224.111C140.517 228.62 144.749 228.962 144.749 228.962C144.749 228.962 148.981 228.62 150.074 224.111C151.167 219.603 146.868 210.176 144.749 209.492Z"
        fill="#E27491" />
    <path
        d="M148.994 221.315L145.354 225.058L145.118 220.145L147.795 215.46L145.08 219.361L144.749 212.427L144.418 219.361L141.703 215.46L144.38 220.145L144.144 225.058L140.504 221.315L144.101 225.932L143.824 231.737H144.749H145.674L145.395 225.932L148.994 221.315Z"
        fill="#2A426A" />
    <path
        d="M58.2149 211.12C55.939 211.852 51.3275 221.968 52.4994 226.808C53.6712 231.648 58.2149 232.014 58.2149 232.014C58.2149 232.014 62.7559 231.648 63.9305 226.808C65.1024 221.968 60.4909 211.852 58.2149 211.12Z"
        fill="#E27491" />
    <path
        d="M62.7695 223.808L58.8633 227.825L58.611 222.552L61.4837 217.525L58.5703 221.711L58.2149 214.269L57.8596 221.711L54.9462 217.525L57.8189 222.552L57.5666 227.825L53.6577 223.808L57.5205 228.761L57.2221 234.992H58.2149H59.2078L58.9094 228.761L62.7695 223.808Z"
        fill="#2A426A" />
    <mask id="mask2_0_1" style="mask-type:luminance" maskUnits="userSpaceOnUse" x="133" y="63"
        width="490" height="200">
        <path d="M622.889 63H133.795V262.935H622.889V63Z" fill="white" />
    </mask>
    <g mask="url(#mask2_0_1)">
        <path d="M311.063 198.369L297.738 212.815H275.144L288.469 198.369H311.063Z" fill="#FF8066" />
        <path d="M292.495 228.796L297.811 223.032H275.218L269.901 228.796H292.495Z" fill="#FF8066" />
        <path d="M297.681 212.815H275.144V223.032H297.681V212.815Z" fill="#F9C3C0" />
        <path
            d="M297.681 212.815L311.063 198.369L324.444 212.815V223.032L329.634 228.796V274.206H269.901V228.796H292.495L297.681 223.032V212.815Z"
            fill="white" />
        <path d="M292.495 228.796H269.901V274.209H292.495V228.796Z" fill="#F9C3C0" />
        <path
            d="M309.164 206.166H312.964C313.203 206.166 313.398 206.361 313.398 206.6V215.669H308.733V206.6C308.733 206.361 308.928 206.166 309.167 206.166H309.164Z"
            fill="#2D3962" />
        <path
            d="M302.124 226.542H304.753C304.919 226.542 305.051 226.675 305.051 226.84V236.62H301.823V226.84C301.823 226.675 301.956 226.542 302.122 226.542H302.124Z"
            fill="#2D3962" />
        <path
            d="M314.033 238.451H316.662C316.827 238.451 316.96 238.584 316.96 238.75V248.529H313.732V238.75C313.732 238.584 313.865 238.451 314.03 238.451H314.033Z"
            fill="#2D3962" />
    </g>
</svg>
    