<svg width="79" height="38" viewBox="0 0 79 38" fill="none" xmlns="http://www.w3.org/2000/svg">
    <path
        d="M36.4805 35.986V35.1937H38.0489C38.9187 35.1937 39.7754 35.1409 39.9731 35.0616C40.2762 34.9428 40.698 34.2693 40.698 33.8995C40.698 33.8203 39.9468 33.7543 39.0242 33.7146C37.1 33.6618 36.3487 33.3977 35.7425 32.6053C35.1494 31.8394 35.0439 31.3112 35.0308 29.2907V27.4023H36.0851H37.1395V29.119C37.1395 30.9678 37.2977 31.6149 37.7721 31.879C37.9303 31.9583 38.642 32.0243 39.3669 32.0243H40.698L40.7244 29.7529L40.7639 27.4683L41.7919 27.4287L42.8067 27.3891V30.7962C42.8067 32.6714 42.754 34.4013 42.6749 34.6522C42.4641 35.4182 41.8973 36.0917 41.1856 36.4482C40.553 36.752 40.3949 36.7784 38.497 36.7784H36.4805V35.986Z"
        fill="#1F191A" />
    <path
        d="M26.2137 33.5694C26.1082 33.4241 26.0687 32.5393 26.0951 30.4264L26.1346 27.4683L27.1494 27.4287L28.1643 27.3891L28.2038 28.5512L28.2433 29.7133L29.1 29.6737C30.0885 29.6076 30.2466 29.5152 31.0901 28.2606L31.67 27.4023H32.8299C33.5284 27.4023 33.9765 27.4551 33.9765 27.5343C33.9765 27.7588 32.1313 30.4396 31.9864 30.4396C31.9073 30.4396 32.0127 30.6377 32.2104 30.8754C32.8562 31.6017 34.0028 33.4505 33.9106 33.5958C33.871 33.675 33.3702 33.741 32.7903 33.741H31.7359L31.0242 32.711C30.6289 32.1431 30.1412 31.6017 29.9567 31.5225C29.7722 31.43 29.2977 31.364 28.9023 31.364H28.1906L28.1511 32.5261L28.1115 33.675L27.2417 33.7146C26.6223 33.741 26.3323 33.7014 26.2137 33.5694Z"
        fill="#1F191A" />
    <path
        d="M46.2071 33.5562C45.4558 33.3582 45.0209 33.0808 44.6123 32.5262C44.0588 31.7867 43.9665 31.2188 44.0192 28.6569C44.0588 26.0422 44.1115 25.8573 44.9418 25.0517C45.614 24.3782 46.3916 24.2198 48.6848 24.2594L50.6486 24.299L50.6881 24.9329C50.754 25.9233 50.6881 25.9497 48.6189 25.9497C46.8924 25.9497 46.787 25.9629 46.5234 26.2535C46.3652 26.4251 46.1939 26.7421 46.1543 26.9798L46.0753 27.4024H47.815C48.7771 27.4024 49.7919 27.4684 50.0687 27.5476C50.7408 27.7589 51.4525 28.3664 51.7952 29.0267C52.2038 29.8058 52.2038 31.2188 51.8084 31.9716C51.3866 32.7639 50.5563 33.4374 49.7655 33.5959C48.9089 33.794 46.9715 33.7675 46.2071 33.5562ZM49.3306 31.9451C49.8973 31.7206 50.1478 30.2152 49.726 29.5681C49.4229 29.0927 49.0143 28.987 47.4723 28.987H46.1016V29.9115C46.1016 30.9151 46.3257 31.6546 46.7211 31.8791C46.9715 32.0244 48.9748 32.0772 49.3306 31.9451Z"
        fill="#1F191A" />
    <path
        d="M55.6303 33.6615C55.4985 33.6086 55.4589 33.0012 55.4589 31.2844V28.9866H54.141H52.823V28.1943V27.4019L56.5528 27.4283L60.2695 27.4679V28.1943V28.9206L58.9252 28.9602L57.5677 28.9998L57.5413 31.3372L57.5018 33.6747L56.6451 33.7011C56.1706 33.7143 55.7093 33.6879 55.6303 33.6615Z"
        fill="#1F191A" />
    <path
        d="M63.3012 33.6219C62.2073 33.3313 61.3902 32.5522 61.0607 31.4693C60.8103 30.611 60.8103 30.3997 61.0739 29.5017C61.3243 28.6433 62.1283 27.7981 62.9322 27.5604C63.6044 27.3623 66.9256 27.3491 67.5978 27.5472C68.6522 27.8642 69.4429 28.8546 69.6275 30.0695C69.812 31.2712 69.9042 31.2316 66.9125 31.2316H64.2765L64.3161 30.5449L64.3556 29.845L65.8449 29.8054C66.6489 29.7922 67.321 29.7262 67.321 29.6601C67.321 29.6073 67.2024 29.4488 67.0443 29.3036C66.807 29.0923 66.5566 29.0527 65.265 29.0527C63.4989 29.0527 63.2485 29.1847 63.1431 30.2148C63.0508 30.9807 63.1563 31.4165 63.5253 31.7599C63.7889 32.0108 63.9866 32.024 66.3589 32.024C68.5467 32.024 68.9158 32.0504 68.9948 32.2353C69.0871 32.4862 68.5994 33.0276 67.9141 33.3842C67.466 33.6219 67.1233 33.6615 65.5418 33.7011C64.5269 33.7143 63.5253 33.6747 63.3012 33.6219Z"
        fill="#1F191A" />
    <path
        d="M70.0095 33.5426C69.97 33.437 70.4181 32.1692 70.998 30.743C71.7756 28.8678 72.1841 28.0226 72.4741 27.7717C72.8563 27.4151 72.8958 27.4019 74.4774 27.4019C76.2962 27.4019 76.5071 27.4812 76.9288 28.2999C77.5219 29.462 79.0639 33.3841 78.998 33.5558C78.9453 33.6879 78.6817 33.7407 78.0227 33.7407C76.9288 33.7407 76.8893 33.7011 76.283 32.156C75.4395 30.0035 75.0046 29.1451 74.7146 29.0526C74.1611 28.881 73.8711 29.2639 73.0145 31.3901C72.5532 32.5126 72.1182 33.503 72.026 33.5954C71.8019 33.8199 70.1018 33.7935 70.0095 33.5426Z"
        fill="#1F191A" />
    <path
        d="M23.5652 22.4639C23.5652 22.2922 23.7102 21.8432 23.9079 21.4735C24.6591 19.968 24.7645 18.1852 24.211 16.5213C24.066 16.0987 23.9606 15.6233 23.9869 15.4648C24.0265 15.2139 24.1055 15.1875 25.0149 15.2139C26.1748 15.2403 27.5191 15.5309 28.3889 15.927C30.01 16.693 29.8255 18.3833 27.9276 20.285C26.9523 21.249 26.1616 21.8168 25.0149 22.3979C24.0265 22.8865 23.5652 22.9129 23.5652 22.4639Z"
        fill="#0085C1" />
    <path
        d="M6.89268 19.7558C3.47916 18.5277 1.30452 16.1903 0.40831 12.77C0.118358 11.6607 0.0656397 11.1193 0.0129213 8.78184C-0.105695 3.76365 0.579645 1.54508 2.59613 0.356556C3.14967 0.0264115 3.32101 0 4.52035 0C6.04919 0 6.44457 0.145263 8.64557 1.43943C11.4001 3.05053 14.9981 6.02183 18.7675 9.77227C21.1003 12.0965 22.9718 14.1698 23.209 14.7112C23.4199 15.1602 23.1036 15.3319 21.8384 15.4375C21.2585 15.4904 19.9537 15.7017 18.9389 15.913C15.6308 16.5997 13.0344 17.4844 10.0294 18.9635C8.85644 19.5313 7.82843 20.0067 7.723 19.9935C7.63074 19.9935 7.26171 19.8879 6.89268 19.7558Z"
        fill="#F40080" />
    <path
        d="M6.76041 37.0822C5.87738 36.62 5.29748 35.7616 4.99435 34.4674C4.71757 33.2789 4.4408 30.6774 4.3749 28.5909C4.28265 26.161 4.45398 25.0781 5.17886 23.6123C5.66651 22.6219 7.07672 21.0372 7.61709 20.8655C7.77524 20.8127 8.26289 20.9579 8.89551 21.2485C12.3618 22.8067 16.7637 23.5331 20.7308 23.2029C23.5249 22.9652 23.5249 22.9916 20.7967 26.4647C15.8675 32.7375 12.4408 35.9465 9.55449 37.0162C8.63192 37.3595 7.34032 37.3991 6.76041 37.0822Z"
        fill="#FFAA00" />
</svg>
    