<svg width="479" height="605" viewBox="0 0 479 605" fill="none" xmlns="http://www.w3.org/2000/svg">
    <path
        d="M382.152 364.295C382.152 361.511 384.503 354.229 387.709 348.233C399.892 323.819 401.602 294.908 392.625 267.924C390.274 261.071 388.564 253.362 388.991 250.792C389.632 246.723 390.915 246.295 405.662 246.723C424.471 247.151 446.272 251.863 460.378 258.287C486.667 270.708 483.675 298.12 452.897 328.959C437.081 344.592 424.257 353.801 405.662 363.224C389.632 371.148 382.152 371.576 382.152 364.295Z"
        fill="#0085C1" />
    <path
        d="M111.778 320.378C56.4212 300.462 21.1553 262.556 6.62152 207.089C1.9194 189.1 1.06447 180.32 0.209543 142.414C-1.71405 61.0346 9.40004 25.0563 42.1011 5.78223C51.0779 0.428313 53.8564 0 73.306 0C98.099 0 104.511 2.35572 140.204 23.3431C184.874 49.4702 243.223 97.6554 304.351 158.476C342.181 196.167 372.531 229.79 376.379 238.57C379.798 245.852 374.669 248.636 354.15 250.349C344.746 251.206 323.587 254.632 307.129 258.059C253.482 269.195 211.377 283.543 162.646 307.529C143.624 316.738 126.953 324.447 125.243 324.233C123.747 324.233 117.762 322.52 111.778 320.378Z"
        fill="#F40080" />
    <path
        d="M109.633 601.358C95.3132 593.862 85.909 579.942 80.9932 558.955C76.5048 539.681 72.0164 497.492 70.9477 463.655C69.4516 424.25 72.2301 406.689 83.9854 382.918C91.8935 366.856 114.763 341.157 123.526 338.373C126.091 337.517 133.999 339.872 144.258 344.584C200.47 369.854 271.856 381.633 336.19 376.279C381.501 372.424 381.501 372.853 337.258 429.176C257.322 530.9 201.752 582.94 154.945 600.287C139.983 605.855 119.038 606.497 109.633 601.358Z"
        fill="#FFAA00" />
</svg>
    