<svg width="24" height="24" viewBox="0 0 24 24" fill="none" xmlns="http://www.w3.org/2000/svg">
<path d="M14.4296 5.18C14.6196 5.18 14.8096 5.25 14.9596 5.4L21.0296 11.47C21.3196 11.76 21.3196 12.24 21.0296 12.53L14.9596 18.6C14.6696 18.89 14.1896 18.89 13.8996 18.6C13.6096 18.31 13.6096 17.83 13.8996 17.54L19.4396 12L13.8996 6.46C13.6096 6.17 13.6096 5.69 13.8996 5.4C14.0396 5.25 14.2396 5.18 14.4296 5.18Z" fill="white"/>
<path d="M3.49996 11.25L20.33 11.25C20.74 11.25 21.08 11.59 21.08 12C21.08 12.41 20.74 12.75 20.33 12.75L3.49996 12.75C3.08996 12.75 2.74996 12.41 2.74996 12C2.74996 11.59 3.08996 11.25 3.49996 11.25Z" fill="white"/>
</svg>
