<svg width="40" height="38" viewBox="0 0 40 38" fill="none" xmlns="http://www.w3.org/2000/svg">
    <path
        d="M4 38C2.9 38 1.958 37.608 1.174 36.824C0.390003 36.04 -0.00132994 35.0987 3.39559e-06 34V12C3.39559e-06 10.9 0.392003 9.958 1.176 9.174C1.96 8.39 2.90134 7.99867 4 8H12V4C12 2.9 12.392 1.958 13.176 1.174C13.96 0.390003 14.9013 -0.00132994 16 3.39559e-06H24C25.1 3.39559e-06 26.042 0.392003 26.826 1.176C27.61 1.96 28.0013 2.90134 28 4V8H36C37.1 8 38.042 8.392 38.826 9.176C39.61 9.96 40.0013 10.9013 40 12V34C40 35.1 39.608 36.042 38.824 36.826C38.04 37.61 37.0987 38.0013 36 38H4ZM16 8H24V4H16V8ZM36 26H26V30H14V26H4V34H36V26ZM18 26H22V22H18V26ZM4 22H14V18H26V22H36V12H4V22Z"
        fill="#EC008C" />
</svg>