<svg width="31" height="31" viewBox="0 0 31 31" fill="none" xmlns="http://www.w3.org/2000/svg">
    <path
        d="M20.7448 28.9706C21.9786 28.9706 22.9788 27.9618 22.9788 26.7174C22.9788 25.4729 21.9786 24.4641 20.7448 24.4641C19.511 24.4641 18.5107 25.4729 18.5107 26.7174C18.5107 27.9618 19.511 28.9706 20.7448 28.9706Z"
        fill="#97999B" />
    <path
        d="M10.5319 28.9706C11.7657 28.9706 12.7659 27.9618 12.7659 26.7174C12.7659 25.4729 11.7657 24.4641 10.5319 24.4641C9.29807 24.4641 8.29785 25.4729 8.29785 26.7174C8.29785 27.9618 9.29807 28.9706 10.5319 28.9706Z"
        fill="#97999B" />
    <path
        d="M6.17868 5.07306L5.92336 8.22764C5.8723 8.83281 6.34464 9.33496 6.94464 9.33496H26.4893C27.0255 9.33496 27.4723 8.92294 27.5106 8.38215C27.6765 6.10313 25.9531 4.24901 23.6936 4.24901H8.00421C7.87655 3.68248 7.62123 3.14169 7.22549 2.69104C6.58719 2.00862 5.69357 1.60947 4.77443 1.60947H2.55315C2.02975 1.60947 1.5957 2.04724 1.5957 2.57515C1.5957 3.10306 2.02975 3.54084 2.55315 3.54084H4.77443C5.17017 3.54084 5.54038 3.70823 5.80847 3.99149C6.07655 4.28764 6.20421 4.67391 6.17868 5.07306Z"
        fill="#97999B" />
    <path
        d="M26.1829 11.2664H6.59989C6.06372 11.2664 5.62967 11.6784 5.57861 12.2063L5.11903 17.8073C4.94031 20.009 6.65095 21.8889 8.83393 21.8889H23.0297C24.9446 21.8889 26.6297 20.3052 26.7701 18.3738L27.1914 12.3608C27.2424 11.7685 26.7829 11.2664 26.1829 11.2664Z"
        fill="#97999B" />
</svg>
    