<svg width="24" height="25" viewBox="0 0 24 25" fill="none" xmlns="http://www.w3.org/2000/svg">
    <path fillRule="evenodd" clipRule="evenodd"
        d="M6.90299 17.8962C6.50661 17.8962 6.18491 17.5717 6.18491 17.1719V10.5473C6.18491 10.1475 6.50661 9.82306 6.90299 9.82306C7.29937 9.82306 7.62108 10.1475 7.62108 10.5473V17.1719C7.62108 17.5717 7.29937 17.8962 6.90299 17.8962"
        fill="#97999B" />
    <path fillRule="evenodd" clipRule="evenodd"
        d="M11.3714 17.8952C10.975 17.8952 10.6533 17.5708 10.6533 17.171V7.376C10.6533 6.9762 10.975 6.65173 11.3714 6.65173C11.7678 6.65173 12.0895 6.9762 12.0895 7.376V17.171C12.0895 17.5708 11.7678 17.8952 11.3714 17.8952"
        fill="#97999B" />
    <path fillRule="evenodd" clipRule="evenodd"
        d="M15.7664 17.8952C15.37 17.8952 15.0483 17.5708 15.0483 17.171V14.0479C15.0483 13.6481 15.37 13.3237 15.7664 13.3237C16.1627 13.3237 16.4844 13.6481 16.4844 14.0479V17.171C16.4844 17.5708 16.1627 17.8952 15.7664 17.8952"
        fill="#97999B" />
    <path fillRule="evenodd" clipRule="evenodd"
        d="M6.84832 3.35054C4.19427 3.35054 2.47853 5.18245 2.47853 8.01964V16.5467C2.47853 19.3838 4.19427 21.2158 6.84832 21.2158H15.8215C18.4765 21.2158 20.1913 19.3838 20.1913 16.5467V8.01964C20.1913 5.18245 18.4765 3.35054 15.8215 3.35054H6.84832ZM15.8215 22.6643H6.84832C3.37566 22.6643 1.04236 20.2056 1.04236 16.5467V8.01964C1.04236 4.36065 3.37566 1.90201 6.84832 1.90201H15.8215C19.2942 1.90201 21.6275 4.36065 21.6275 8.01964V16.5467C21.6275 20.2056 19.2942 22.6643 15.8215 22.6643V22.6643Z"
        fill="#97999B" />
</svg>