<svg width="66" height="60" viewBox="0 0 66 60" fill="none" xmlns="http://www.w3.org/2000/svg">
<g clip-path="url(#clip0_324_1337)">
<path d="M21.0781 36.3294C21.004 37.505 20.9999 37.5543 19.7009 37.488C17.5393 37.3782 15.4477 36.903 13.4467 36.1609C10.7622 35.1632 8.37627 33.7111 6.38144 31.7782C4.82921 30.275 3.55285 28.5882 2.57705 26.6989C1.92446 25.4342 1.47362 24.1147 1.101 22.7762C0.91984 22.1269 0.748972 21.4378 0.790145 20.7392C0.796321 20.618 0.864256 20.4571 0.666626 20.389V19.2171C0.847787 18.865 0.85808 18.5147 0.666626 18.1626V17.1081C0.79838 17.0702 0.792204 16.9661 0.794262 16.8715C0.839552 15.5254 1.20393 14.2343 1.65889 12.9696C2.9579 9.35371 5.19977 6.34358 8.48332 3.9847C10.9187 2.23352 13.6258 1.07491 16.6356 0.452055C17.4693 0.279777 18.3381 0.28735 19.1451 -0.00230408H22.968C23.7379 0.35361 24.6046 0.285457 25.4178 0.457734C28.2463 1.05787 30.8279 2.14454 33.1809 3.69883C34.1979 4.3709 35.009 5.25501 35.958 5.98956C36.763 6.61241 37.2241 7.4435 37.8499 8.17426C38.0517 8.40902 38.4881 8.66649 38.484 8.76682C38.4614 9.21361 38.8978 9.39914 38.9987 9.72476C39.3054 10.7338 39.9148 11.6179 40.2997 12.5948C40.7197 13.6607 41.0923 14.7549 41.2591 15.8567C41.3558 16.4985 41.467 17.2198 41.3044 17.8919C41.2323 18.191 41.677 18.5223 41.3044 18.7154C41.0614 18.8403 40.6826 18.7419 40.3636 18.7457C40.2586 18.7457 40.1515 18.757 40.0465 18.7646C39.7501 18.7589 39.4495 18.7249 39.1572 18.7533C38.7249 18.7949 38.5849 18.634 38.6405 18.261C38.7249 17.6969 38.5314 17.146 38.5355 16.5856C38.5355 16.2713 38.3358 16.2562 38.0785 16.2581C35.4043 16.2694 32.728 16.2789 30.0538 16.2808C28.9257 16.2808 27.9911 15.9022 27.2664 15.0843C26.4121 14.1207 26.2783 12.9678 26.4409 11.8375C26.6859 10.1261 27.5361 8.96371 29.7224 8.78008C30.2906 8.73275 30.585 8.40523 30.5932 7.8865C30.6056 7.06676 30.5932 6.24703 30.5973 5.42539C30.5973 5.24554 30.585 5.10166 30.377 4.98997C29.2736 4.40309 28.1681 3.84271 26.9329 3.48679C25.6566 3.11763 24.3823 2.81662 23.0544 2.64055C22.4389 2.55914 22.4245 2.70681 22.4389 3.12899C22.4636 3.90518 22.4348 4.67759 22.2433 5.44054C21.8337 7.08002 20.2217 8.71382 17.4693 8.78576C16.1374 8.81983 15.2748 10.2605 15.6804 11.1314C16.0736 11.9757 16.755 12.4831 17.8563 12.5077C18.5933 12.5248 19.3303 12.4831 20.0632 12.6478C22.1548 13.1173 23.392 14.3592 23.6906 16.2713C23.9499 17.9354 23.3282 19.3534 21.8007 20.3927C20.7364 21.1178 19.5403 21.239 18.2743 21.2352C13.5826 21.22 8.88887 21.2314 4.19721 21.2238C3.73195 21.2238 3.55903 21.2787 3.6949 21.7842C3.82048 22.248 4.02222 22.7043 4.07575 23.1738C4.13957 23.7171 4.44836 23.7664 4.93009 23.7645C8.41126 23.7512 11.8945 23.755 15.3777 23.7588C15.9871 23.7588 16.5903 23.7815 17.2017 23.8837C18.546 24.1109 19.5403 24.7489 20.3 25.7712C21.0596 26.7954 21.214 27.9881 20.9731 29.0937C20.7899 29.9381 20.2444 30.7881 19.4147 31.4015C18.3442 32.1947 17.1379 32.4882 15.7998 32.4787C14.4966 32.4692 13.1935 32.4768 11.7689 32.4768C12.6336 33.111 13.5249 33.4272 14.3916 33.7982C16.0633 34.51 17.8563 34.7562 19.6433 35.0269C20.0776 35.0931 20.6561 34.9057 20.9402 35.1064C21.2819 35.3487 21.002 35.9091 21.0843 36.3256L21.0781 36.3294ZM11.4251 18.7476C13.9305 18.7476 16.4379 18.7343 18.9433 18.7533C20.2176 18.7627 21.3355 17.6211 20.9546 16.4114C20.6643 15.4951 20.0179 15.0862 18.791 15.0048C18.1363 14.9613 17.4467 15.1013 16.825 14.9613C14.5934 14.4558 12.9547 12.892 12.8929 10.5445C12.8394 8.56047 14.9516 6.2811 17.317 6.3095C18.1199 6.31897 18.8857 6.0615 19.3592 5.37049C19.9253 4.54507 19.6288 3.62689 19.6782 2.74657C19.6865 2.58565 19.5341 2.5705 19.4024 2.59133C18.5378 2.73521 17.6608 2.79958 16.8044 3.00214C14.2311 3.60985 11.911 4.65298 9.85644 6.22052C7.41694 8.0815 5.65062 10.3703 4.49571 13.07C3.79166 14.7132 3.54462 16.4474 3.34081 18.191C3.29346 18.6018 3.39639 18.7646 3.909 18.7589C6.41437 18.7305 8.91975 18.7457 11.4272 18.7457L11.4251 18.7476ZM5.43652 26.2464C6.02323 27.422 6.84051 28.4008 7.69485 29.3455C7.93983 29.6181 8.15805 30.0024 8.68095 30.0005C11.2501 29.9892 13.8193 30.0138 16.3885 29.9835C17.1688 29.974 17.8337 29.5916 18.1157 28.9252C18.3751 28.3156 18.3998 27.6606 17.9366 27.0453C17.4549 26.4035 16.7611 26.2596 16.0221 26.2559C12.965 26.2369 9.9079 26.2483 6.84875 26.2483C6.38967 26.2483 5.92853 26.2483 5.43652 26.2483V26.2464ZM33.29 7.10841C33.29 7.46054 33.3044 7.67636 33.288 7.89029C33.15 9.55817 32.5448 10.6808 30.4985 11.1844C29.2119 11.5006 29.2077 11.493 29.216 12.75C29.216 12.8863 29.2119 13.0245 29.2283 13.159C29.288 13.6455 29.6936 13.8348 30.1177 13.8064C32.448 13.6417 34.7805 13.7894 37.1109 13.7326C37.3353 13.7269 37.57 13.7894 37.8129 13.6644C36.8844 11.1901 35.4763 9.00536 33.2921 7.10841H33.29Z" fill="#1B2124"/>
<path d="M31.1199 60C30.562 59.6971 29.9094 59.593 29.3907 59.1878C28.5054 58.4949 27.9805 57.6317 27.8302 56.5961C27.7808 56.2515 27.6346 56.2383 27.3588 56.2477C27.0623 56.2572 26.7638 56.261 26.4674 56.2477C25.6913 56.2118 25.1416 55.6931 25.1396 54.9945C25.1354 51.7155 25.1334 48.4366 25.1375 45.1576C25.1375 44.2281 25.5863 43.8267 26.5909 43.8267C27.4295 43.8267 27.8487 43.4405 27.8487 42.6681C27.8487 41.8086 27.8487 40.951 27.8487 40.0915C27.8487 39.3077 28.3696 38.8098 29.2239 38.7871C30.1338 38.7619 30.5888 38.3201 30.5888 37.4619C30.5867 36.2919 30.5785 35.1201 30.5744 33.9501C30.5806 33.6983 30.5909 33.4446 30.5909 33.1928C30.5909 29.4122 30.6053 25.6315 30.5764 21.8509C30.5723 21.3189 30.7391 21.1637 31.2887 21.2205C31.6861 21.2621 32.0978 21.2621 32.4951 21.2205C33.1106 21.1542 33.3165 21.3132 33.3103 21.9323C33.2774 25.3229 33.3042 28.7136 33.3103 32.1024C33.3042 34.2094 33.3021 36.3184 33.2856 38.4255C33.2836 38.7019 33.3639 38.8288 33.6747 38.7871C33.7159 38.7814 33.7591 38.7871 33.8024 38.7871C35.7663 38.8136 36.0072 39.037 36.0072 40.8298C36.0072 41.6496 36.0195 42.4693 36.001 43.2891C35.9928 43.6033 36.0669 43.7358 36.4518 43.7339C42.5001 43.7245 48.5505 43.7245 54.5988 43.7339C54.9714 43.7339 55.0641 43.6223 55.0579 43.2966C55.0394 42.2421 55.0373 41.1876 55.0558 40.135C55.0723 39.1525 55.4923 38.7928 56.5566 38.7852C57.94 38.7758 57.7547 38.9556 57.7568 37.6569C57.763 32.3863 57.7691 27.1158 57.7424 21.8471C57.7403 21.3132 57.9009 21.1693 58.4464 21.2224C58.9076 21.2659 59.3831 21.264 59.8463 21.2224C60.3527 21.1788 60.4804 21.3397 60.4783 21.8017C60.4577 25.5104 60.466 29.2191 60.466 32.9278C60.466 34.7244 60.4783 36.5191 60.4557 38.3157C60.4516 38.7076 60.5792 38.7966 60.9909 38.7985C62.9219 38.8042 63.204 39.0787 63.204 40.845C63.204 41.625 63.2349 42.4087 63.1937 43.1868C63.1669 43.6734 63.274 43.9422 63.871 43.8305C63.9327 43.8191 64.0007 43.8381 64.0604 43.8267C64.8962 43.6847 65.5035 43.9763 65.9111 44.6483V55.4299C65.5261 55.6893 65.2791 56.1096 64.7541 56.208C64.3342 56.2875 63.9142 56.2326 63.4963 56.2459C63.2719 56.2534 63.1093 56.2383 63.099 56.5374C63.0578 57.7566 62.4052 58.6786 61.3265 59.3317C60.8592 59.6138 60.3075 59.7804 59.7949 60H58.2653C58.2344 59.8694 58.1109 59.9053 58.0182 59.8769C56.4331 59.3961 55.4038 58.4211 55.1053 56.9066C55.0064 56.4106 54.8953 56.2269 54.3168 56.2288C48.4188 56.2478 42.5187 56.2402 36.6206 56.2402C36.5136 56.2402 36.4086 56.2459 36.3016 56.2402C36.0772 56.225 35.9928 56.2799 35.9516 56.5185C35.8754 56.9804 35.7848 57.4442 35.5522 57.8778C34.947 59.0118 33.8703 59.5835 32.6516 59.9981H32.3963C32.2687 59.8145 32.141 59.8637 32.0134 59.9981H31.122L31.1199 60ZM45.5181 46.25C39.826 46.25 34.1359 46.2556 28.4437 46.2405C27.9805 46.2405 27.8282 46.3295 27.8323 46.7819C27.859 48.9099 27.8549 51.0397 27.8343 53.1676C27.8302 53.5879 27.9311 53.7431 28.4293 53.7431C39.8321 53.7355 51.237 53.7431 62.6399 53.7564C63.0887 53.7564 63.2122 53.6371 63.2081 53.2301C63.1875 51.1021 63.1793 48.9723 63.2122 46.8444C63.2204 46.337 63.0352 46.2386 62.5267 46.2405C56.8572 46.2556 51.1876 46.25 45.5161 46.25H45.5181ZM33.2856 42.5375C33.2856 41.6792 32.819 41.2501 31.8858 41.2501C31.0252 41.2501 30.595 41.6553 30.595 42.4655C30.595 43.3061 31.052 43.7264 31.966 43.7264C32.8458 43.7264 33.2856 43.3301 33.2856 42.5375ZM59.1484 43.7264C60.0199 43.7264 60.4557 43.344 60.4557 42.5791C60.4557 41.6931 59.9808 41.2501 59.0311 41.2501C58.1843 41.2501 57.7609 41.6414 57.7609 42.4239C57.7609 43.2922 58.2241 43.7264 59.1505 43.7264H59.1484ZM60.4001 56.2496C59.6199 56.2496 58.8417 56.2591 58.0635 56.2459C57.728 56.2402 57.6847 56.4636 57.7856 56.6169C57.9503 56.8687 58.0882 57.1394 58.4032 57.3174C59.1402 57.7339 60.3713 57.3041 60.4001 56.2496ZM33.2012 56.2496C32.4807 56.2496 31.7602 56.2686 31.0438 56.244C30.5332 56.2269 30.5435 56.4219 30.7082 56.7608C30.9614 57.2814 31.4596 57.4991 32.0031 57.5162C32.5733 57.5332 33.0962 56.916 33.2012 56.2496Z" fill="#1B2124"/>
<path d="M65.909 5.0396C65.3573 5.27814 65.2256 5.8404 64.8447 6.22093C62.8581 8.19928 59.5766 7.90395 58.1438 5.37469C57.9626 5.05474 57.7588 5.00173 57.4253 5.00363C55.9184 5.01309 54.4115 5.02634 52.9066 4.99795C52.4372 4.98848 52.2952 5.09639 52.3014 5.54507C52.3281 7.78847 52.2972 10.0338 52.324 12.2772C52.3302 12.8773 52.0399 13.2578 51.5644 13.6175C51.2515 13.8542 50.9591 13.7425 50.6442 13.7406C49.7322 13.733 48.8202 13.7387 47.9061 13.7387C46.3992 13.7387 44.8923 13.7254 43.3874 13.7481C42.9675 13.7538 42.7636 13.6876 42.8131 13.2502C42.8851 12.599 42.5145 11.7206 42.9592 11.3533C43.3524 11.0296 44.2891 11.2567 44.987 11.2548C46.3663 11.2492 47.7456 11.2378 49.1249 11.2624C49.5284 11.27 49.6128 11.1602 49.6107 10.8062C49.5922 8.56277 49.6004 6.31748 49.6025 4.07408C49.6025 2.91925 50.0677 2.49708 51.3523 2.49519C53.3677 2.4914 55.3852 2.47815 57.4006 2.50655C57.8309 2.51222 58.045 2.39485 58.1747 2.03893C58.5576 0.995801 59.5313 0.596344 60.5318 0.219605C60.7109 0.153344 60.9539 0.200673 61.0692 0.00378418H62.5987C62.6461 0.159024 62.8355 0.194994 62.9363 0.210139C63.6507 0.31237 64.1448 0.726972 64.6718 1.13022C65.345 1.64326 65.5467 2.38538 65.9111 3.04988V5.04149L65.909 5.0396ZM61.7897 2.58227C61.0259 2.58038 60.4104 3.12182 60.4351 3.77496C60.4557 4.33345 61.17 5.01877 61.7485 5.03392C62.432 5.05285 63.0969 4.43946 63.1031 3.78443C63.1093 3.01202 62.644 2.58606 61.7897 2.58227Z" fill="#1B2124"/>
<path d="M0.664307 55.5473C0.960752 55.0399 1.09251 54.4758 1.48159 53.9873C1.87273 53.4951 2.36475 53.1297 2.91029 52.9101C3.35702 52.7303 3.39819 52.5239 3.39613 52.1775C3.38996 50.3619 3.39202 48.5464 3.39408 46.7289C3.39408 45.3375 3.77287 44.9948 5.29627 44.9948C7.63283 44.9948 9.96734 44.9778 12.3039 45.008C12.8227 45.0137 12.9256 44.8661 12.9174 44.425C12.8906 42.7079 12.9174 40.9889 12.8968 39.2699C12.8906 38.8742 12.9833 38.7114 13.4485 38.7417C14.0393 38.7795 14.6364 38.7644 15.2313 38.7455C15.5401 38.736 15.6286 38.8401 15.6286 39.1165C15.6183 41.4603 15.6369 43.8021 15.6142 46.1458C15.606 46.9694 14.9822 47.4748 14.0496 47.4767C11.6081 47.4824 9.16653 47.49 6.72497 47.4692C6.26177 47.4654 6.10737 47.5544 6.11973 48.0087C6.15472 49.4343 6.14649 50.8598 6.12179 52.2854C6.11561 52.6318 6.25148 52.8003 6.56645 52.9555C7.96428 53.6409 8.79803 54.7275 8.8042 56.1758C8.81038 57.9081 7.73782 59.345 5.63594 59.8959C5.58654 59.9091 5.55154 59.9659 5.51037 60.0038H3.85315C2.76207 59.5949 1.75127 59.1083 1.17485 58.0747C0.971045 57.7093 0.91752 57.2966 0.668424 56.9558V55.5492L0.664307 55.5473ZM4.71779 55.0835C3.96432 55.0835 3.33643 55.6211 3.34467 56.2572C3.35496 56.8706 3.97873 57.4139 4.68073 57.4177C5.57213 57.4215 6.01268 57.0088 6.01268 56.1663C6.01268 55.4734 5.54536 55.0816 4.71779 55.0816V55.0835Z" fill="#1B2124"/>
<path d="M0.664307 18.1649C0.855761 18.517 0.845468 18.8672 0.664307 19.2194V18.1649Z" fill="#6A7179"/>
<path d="M32.0134 60C32.1411 59.8656 32.2687 59.8164 32.3963 60H32.0134Z" fill="#6A7179"/>
<path d="M33.3103 32.1061C33.3042 28.7155 33.2753 25.3248 33.3103 21.9361C33.3165 21.3151 33.1106 21.158 32.4951 21.2243C32.0978 21.2659 31.6861 21.2659 31.2887 21.2243C30.7391 21.1675 30.5723 21.3246 30.5765 21.8547C30.6032 25.6353 30.5909 29.416 30.5909 33.1966C30.5909 33.4484 30.5806 33.7021 30.5744 33.9539C29.4936 34.3704 28.4766 34.9194 27.3567 35.2545C25.5533 35.7921 23.7211 36.184 21.8148 36.2048C21.5534 36.2086 21.3228 36.2881 21.0799 36.3317C20.9976 35.9152 21.2775 35.3548 20.9358 35.1125C20.6517 34.9118 20.0732 35.0992 19.6388 35.033C17.8519 34.7623 16.0609 34.5161 14.3872 33.8043C13.5185 33.4352 12.6291 33.1171 11.7645 32.4829C13.1891 32.4829 14.4922 32.4753 15.7954 32.4848C17.1335 32.4942 18.3398 32.2008 19.4103 31.4076C20.24 30.7923 20.7855 29.9423 20.9687 29.0998C21.2096 27.9961 21.0552 26.8015 20.2956 25.7773C19.5359 24.755 18.5416 24.117 17.1973 23.8898C16.5859 23.7857 15.9827 23.7649 15.3733 23.7649C11.8901 23.7611 8.40892 23.7573 4.92569 23.7706C4.44396 23.7706 4.13517 23.7213 4.07135 23.1799C4.01576 22.7104 3.81607 22.2541 3.6905 21.7903C3.55257 21.2848 3.72755 21.2299 4.19281 21.2299C8.88447 21.2394 13.5782 21.2261 18.2698 21.2413C19.5359 21.2451 20.7299 21.1239 21.7963 20.3988C23.3238 19.3595 23.9455 17.9415 23.6862 16.2774C23.3876 14.3653 22.1504 13.1234 20.0588 12.6539C19.3259 12.4892 18.5889 12.5308 17.8519 12.5138C16.7506 12.4892 16.0692 11.9818 15.676 11.1375C15.2704 10.2647 16.135 8.82593 17.4649 8.79185C20.2194 8.71991 21.8293 7.08611 22.2389 5.44663C22.4304 4.68369 22.4592 3.91128 22.4345 3.13508C22.4201 2.71291 22.4345 2.56524 23.05 2.64665C24.3779 2.82271 25.6522 3.12562 26.9285 3.49289C28.1637 3.84881 29.2692 4.40729 30.3726 4.99606C30.5806 5.10776 30.595 5.24975 30.5929 5.43149C30.5888 6.25123 30.6012 7.07097 30.5888 7.8926C30.5806 8.41133 30.2841 8.73884 29.718 8.78617C27.5338 8.96792 26.6815 10.1322 26.4365 11.8436C26.2739 12.9738 26.4077 14.1268 27.262 15.0904C27.9867 15.9101 28.9213 16.2888 30.0494 16.2869C32.7236 16.285 35.3999 16.2755 38.0741 16.2642C38.3314 16.2642 38.5331 16.2793 38.5311 16.5917C38.529 17.1521 38.7205 17.703 38.6361 18.2671C38.5805 18.6401 38.7205 18.8029 39.1528 18.7594C39.4451 18.731 39.7457 18.765 40.0421 18.7707C39.9762 20.3894 39.758 21.9796 39.3072 23.5585C38.6464 25.8758 37.4359 27.9166 35.8116 29.7454C35.2805 30.3436 34.7514 31.0005 34.0165 31.4303C33.7097 31.6101 33.7653 32.0815 33.3083 32.108L33.3103 32.1061Z" fill="#D1D3D4"/>
<path d="M56.0111 31.5174C55.9123 31.6177 55.8341 31.7048 55.7476 31.7843C55.3277 32.1705 54.8933 32.5454 54.4918 32.9467C54.2366 33.2004 54.0575 33.2136 53.761 32.9732C52.1553 31.6688 50.3354 30.7014 48.215 30.3304C46.8934 30.0975 45.5676 29.9385 44.1883 30.0653C43.1693 30.16 42.1461 30.336 41.2465 30.6503C39.8548 31.1349 38.4756 31.7824 37.4277 32.835C37.0448 33.2193 36.7133 33.4105 36.316 32.8558C36.1905 32.6798 35.9928 32.5491 35.8261 32.3958C34.7967 31.4492 34.8235 31.4795 35.9619 30.6333C38.0227 29.0998 40.3777 28.1532 42.9511 27.6875C43.8486 27.5247 44.7915 27.5228 45.722 27.5323C49.2423 27.5644 52.3179 28.67 55.0271 30.7014C55.2638 30.8794 55.4965 31.0611 55.725 31.2466C55.8176 31.3224 55.8979 31.4095 56.0111 31.5193V31.5174Z" fill="#1B2124"/>
<path d="M38.7473 35.1201C40.9357 33.0016 43.6407 32.339 46.6443 32.5927C48.6824 32.765 50.4322 33.615 51.9803 34.8285C52.1738 34.98 52.1656 35.0917 51.9844 35.2507C51.4801 35.6975 50.9777 36.1462 50.5022 36.6157C50.2634 36.8523 50.1028 36.7065 49.934 36.574C47.7416 34.8304 45.2773 34.6562 42.6567 35.5441C42.0432 35.7524 41.4647 36.0875 41.0221 36.5513C40.7504 36.8372 40.5919 36.805 40.3284 36.5475C39.824 36.0534 39.2784 35.5952 38.7473 35.1201Z" fill="#1B2124"/>
<path d="M45.4769 37.6417C46.3951 37.4676 47.1403 37.867 47.8835 38.2362C48.2149 38.4009 48.462 38.6357 47.9782 38.9405C47.7888 39.0597 47.6509 39.2434 47.48 39.3872C46.9736 39.8151 46.6277 40.5345 45.6725 40.0915C45.4419 39.9855 45.0158 39.9722 44.7317 40.2486C44.5567 40.4209 44.39 40.2751 44.25 40.1464C43.7724 39.7053 43.3153 39.2434 42.8089 38.8325C42.5145 38.594 42.6916 38.4728 42.8769 38.3611C43.6674 37.8841 44.4826 37.4619 45.4769 37.6417Z" fill="#1B2124"/>
<path d="M11.4228 18.7499C8.91739 18.7499 6.40995 18.7347 3.90458 18.7631C3.39197 18.7688 3.28904 18.606 3.33639 18.1952C3.54019 16.4535 3.78723 14.7193 4.49129 13.0742C5.64825 10.3745 7.41457 8.08569 9.85201 6.22471C11.9065 4.65717 14.2266 3.61215 16.8 3.00634C17.6564 2.80377 18.5333 2.7394 19.398 2.59552C19.5297 2.57469 19.6821 2.58984 19.6738 2.75076C19.6244 3.63108 19.9209 4.54926 19.3547 5.37468C18.8812 6.06379 18.1154 6.32316 17.3126 6.31369C14.9472 6.28529 12.835 8.56466 12.8885 10.5487C12.9503 12.8943 14.589 14.46 16.8205 14.9654C17.4423 15.1055 18.1319 14.9654 18.7865 15.009C20.0135 15.0904 20.662 15.5012 20.9502 16.4156C21.3331 17.6234 20.2153 18.7669 18.9389 18.7574C16.4335 18.7366 13.9261 18.7518 11.4207 18.7518L11.4228 18.7499Z" fill="#EC008C"/>
<path d="M5.4342 26.2468C5.92622 26.2468 6.3853 26.2468 6.84644 26.2468C9.90353 26.2468 12.9606 26.2354 16.0198 26.2544C16.7588 26.2601 17.4547 26.402 17.9343 27.0438C18.3955 27.661 18.3708 28.316 18.1134 28.9237C17.8293 29.5901 17.1664 29.9725 16.3862 29.982C13.817 30.0123 11.2478 29.9877 8.67863 29.9991C8.1578 30.0009 7.93958 29.6166 7.69254 29.344C6.84026 28.3974 6.02298 27.4206 5.4342 26.2449V26.2468Z" fill="#EC008C"/>
<path d="M33.2898 7.10883C35.474 9.00577 36.8821 11.1886 37.8106 13.6648C37.5677 13.7898 37.333 13.7273 37.1086 13.733C34.7782 13.7898 32.4457 13.6421 30.1154 13.8068C29.6913 13.8371 29.2857 13.6459 29.226 13.1594C29.2096 13.025 29.2137 12.8868 29.2137 12.7505C29.2054 11.4934 29.2075 11.501 30.4962 11.1848C32.5446 10.6812 33.1477 9.55858 33.2857 7.8907C33.3042 7.67677 33.2877 7.46095 33.2877 7.10883H33.2898Z" fill="#EC008C"/>
<path d="M45.5202 46.25C51.1897 46.25 56.8592 46.2556 62.5308 46.2405C63.0392 46.2405 63.2245 46.337 63.2163 46.8444C63.1854 48.9723 63.1916 51.1021 63.2122 53.2301C63.2163 53.6371 63.0928 53.7582 62.644 53.7564C51.2411 53.7412 39.8362 53.7355 28.4334 53.7431C27.9352 53.7431 27.8343 53.5879 27.8384 53.1676C27.859 51.0397 27.8631 48.9099 27.8364 46.7819C27.8302 46.3295 27.9846 46.2386 28.4478 46.2405C34.1399 46.2556 39.83 46.25 45.5222 46.25H45.5202ZM51.0003 48.7451C48.4949 48.7451 45.9875 48.7414 43.4821 48.747C42.8274 48.747 41.9443 48.5445 41.5799 48.8512C41.1599 49.2033 41.5161 50.0306 41.4378 50.644C41.374 51.157 41.6005 51.2422 42.109 51.2403C47.5459 51.2233 52.9827 51.2328 58.4196 51.2252C59.0722 51.2252 59.9369 51.4789 60.3239 51.1267C60.7459 50.7443 60.3877 49.9416 60.4659 49.3282C60.5339 48.8114 60.293 48.7319 59.7886 48.7357C56.8571 48.7565 53.9277 48.747 50.9962 48.747L51.0003 48.7451ZM36.003 49.9284C36.003 50.7942 36.4772 51.2271 37.4255 51.2271H37.4894C38.3265 51.2271 38.7451 50.8409 38.7451 50.0685C38.7451 49.185 38.2607 48.7433 37.2917 48.7433C36.4326 48.7433 36.003 49.1377 36.003 49.9265V49.9284ZM33.2918 50.023C33.2918 49.1711 32.8402 48.7451 31.9372 48.7451C31.0341 48.7451 30.5853 49.1553 30.5908 49.9757C30.5963 50.7961 31.0595 51.2132 31.9804 51.2271C32.8547 51.2271 33.2918 50.8257 33.2918 50.023Z" fill="#EC008C"/>
<path d="M51.0003 48.7433C53.9318 48.7433 56.8613 48.7546 59.7928 48.7319C60.2971 48.7281 60.536 48.8095 60.4701 49.3245C60.3898 49.9378 60.748 50.7405 60.328 51.123C59.9389 51.4751 59.0764 51.2195 58.4238 51.2214C52.9869 51.2271 47.55 51.2176 42.1131 51.2366C41.6046 51.2366 41.3761 51.1533 41.442 50.6402C41.5202 50.0268 41.1641 49.1995 41.584 48.8474C41.9484 48.5407 42.8316 48.7452 43.4862 48.7433C45.9916 48.7376 48.499 48.7414 51.0044 48.7414L51.0003 48.7433Z" fill="#1B2124"/>
<path d="M36.001 49.9284C36.001 49.1396 36.4306 48.7451 37.2897 48.7451C38.2586 48.7451 38.7431 49.1869 38.7431 50.0704C38.7431 50.8428 38.3245 51.229 37.4873 51.229H37.4235C36.4752 51.229 36.001 50.7961 36.001 49.9303V49.9284Z" fill="#1B2124"/>
<path d="M33.2919 50.023C33.2919 50.8257 32.8548 51.2271 31.9805 51.2271C31.0541 51.2271 30.5909 50.81 30.5909 49.9757C30.5909 49.1415 31.0397 48.7313 31.9373 48.7452C32.8349 48.759 33.2864 49.185 33.2919 50.023Z" fill="#1B2124"/>
</g>
<defs>
<clipPath id="clip0_324_1337">
<rect width="65.2448" height="60" fill="white" transform="translate(0.664307)"/>
</clipPath>
</defs>
</svg>
