<svg width="46" height="46" fill="none" xmlns="http://www.w3.org/2000/svg">
    <path
        d="M43.937 14.184a22.73 22.73 0 0 0-4.88-7.277 22.501 22.501 0 0 0-7.262-4.89A22.543 22.543 0 0 0 23 .25h-.102a22.598 22.598 0 0 0-8.84 1.823 22.551 22.551 0 0 0-7.196 4.9 22.598 22.598 0 0 0-4.825 7.252 22.847 22.847 0 0 0-1.736 8.882 22.885 22.885 0 0 0 2.432 10.15v7.72a2.335 2.335 0 0 0 2.331 2.336h7.709a22.737 22.737 0 0 0 10.13 2.437h.107c3.037 0 5.977-.589 8.75-1.742a22.507 22.507 0 0 0 7.236-4.834 22.587 22.587 0 0 0 4.89-7.211 22.786 22.786 0 0 0 1.818-8.861c.01-3.093-.589-6.094-1.767-8.918ZM12.864 25.438a2.437 2.437 0 0 1 0-4.875A2.437 2.437 0 0 1 15.296 23a2.434 2.434 0 0 1-2.432 2.438Zm10.136 0a2.437 2.437 0 0 1 0-4.875 2.437 2.437 0 0 1 0 4.875Zm10.136 0a2.437 2.437 0 0 1 0-4.875 2.437 2.437 0 0 1 0 4.875Z"
        fill="#F63D74" />
</svg>