<svg width="60" height="60" viewBox="0 0 60 60" fill="none" xmlns="http://www.w3.org/2000/svg">
<g clip-path="url(#clip0_145_2255)">
<path d="M31.0392 42.4365C30.5906 43.4013 30.5954 43.39 29.5562 42.9811C27.2729 42.0858 25.2445 40.7833 23.3629 39.2189C22.619 38.5999 21.9703 37.8921 21.278 37.2247C21.0957 37.0501 21.0069 36.9871 20.7455 37.1681C19.6821 37.9018 19.7579 37.8679 19.9774 39.1332C20.1485 40.1142 20.9101 40.0948 21.5185 40.2564C24.2746 40.9901 26.5677 42.3848 28.3427 44.6457C29.6773 46.3474 30.4986 48.2479 30.7859 50.3747C30.994 51.9229 31.1054 53.4759 30.3066 54.9255C29.2706 56.8034 27.694 57.8668 25.5495 58.0365C25.2542 58.0591 25.1702 58.2094 25.1138 58.4098C24.812 59.4715 24.1698 59.9838 23.0999 59.9838C17.999 59.9838 12.8982 59.9838 7.79732 59.9838C6.81781 59.9838 6.01097 59.3019 5.88672 58.3306C5.85444 58.0801 5.76892 58.0494 5.55753 58.0429C2.76908 57.9589 0.514763 55.8758 0.10166 53.1866C-0.179121 51.3605 0.148457 49.5165 0.847182 47.7841C1.56366 46.008 2.62062 44.455 4.02775 43.1395C5.54946 41.7157 7.36647 40.8528 9.34 40.2887C9.70953 40.1821 10.0516 39.9655 10.4776 40.0156C10.6729 40.0399 10.8553 39.8314 10.9166 39.6148C11.0537 39.1268 11.178 38.6355 11.3022 38.1458C11.3571 37.9309 11.2312 37.842 11.0553 37.7353C9.35452 36.6962 8.30079 35.1997 7.93448 33.2346C7.8893 32.9889 7.76666 32.9178 7.52783 32.8968C5.6366 32.7255 4.50056 31.6734 3.99064 29.9378C3.76472 29.1653 3.78086 28.2538 4.23108 27.5024C4.47474 27.0951 4.43117 26.7153 4.27465 26.3824C3.9035 25.5938 3.9503 24.7728 3.93093 23.947C3.87284 21.4696 4.8233 19.3848 6.60965 17.7526C7.96353 16.5147 9.58528 15.739 11.4991 15.587C13.087 15.461 14.6668 15.5369 16.2498 15.4998C16.5193 15.4933 16.5967 15.4174 16.679 15.1636C17.5488 12.5133 18.943 10.1506 20.6955 7.99149C21.9445 6.45299 23.4242 5.15689 25.0411 4.02403C27.2745 2.45967 29.7515 1.40922 32.3673 0.673904C33.3823 0.387858 34.4425 0.122822 35.4623 0.0711077C37.1034 -0.0113121 38.7671 0.0258576 40.4228 0.223019C41.2409 0.319983 42.1204 0.363617 42.8707 0.568859C44.1036 0.905002 45.3461 1.31064 46.5386 1.82132C48.4073 2.62289 50.1388 3.66041 51.7105 4.92741C53.7341 6.55965 55.4333 8.50217 56.8001 10.7291C58.1104 12.8623 58.9882 15.1652 59.532 17.5942C59.7692 18.6511 59.9597 19.7274 59.9419 20.8199C59.9274 21.7087 60.0355 22.5863 59.979 23.4896C59.7902 26.4875 59.056 29.3091 57.7521 32.008C56.4773 34.647 54.7233 36.9192 52.5625 38.8763C51.5943 39.7538 50.5164 40.4988 49.4175 41.2164C48.9672 41.5105 48.7639 41.4507 48.5719 41.0079C48.5332 40.919 48.4815 40.835 48.4347 40.7477C48.3218 40.5425 48.2282 40.3227 48.0894 40.1352C47.9296 39.9187 47.9668 39.8039 48.1943 39.6746C50.4002 38.4189 52.1849 36.6881 53.818 34.7666C54.2989 34.201 54.6119 33.5707 54.9927 32.9356H32.6222C32.8239 33.4285 33.2145 33.9166 33.1418 34.3222C33.0499 34.8313 32.3076 34.744 31.8896 34.9993C31.8719 35.0106 31.8557 35.022 31.838 35.03C31.575 35.1399 31.3765 35.1205 31.2877 34.7941C31.1473 34.2834 30.852 33.8277 30.7697 33.2911C30.7342 33.0536 30.6229 32.892 30.2937 32.8952C28.0361 32.9162 25.7786 32.9097 23.5211 32.9C23.279 32.9 23.1338 32.9485 23.1386 33.2103C23.1483 33.8697 22.7691 34.4014 22.4899 34.9379C22.2801 35.3419 22.335 35.5504 22.619 35.8106C23.3726 36.5023 24.052 37.2651 24.8427 37.9244C26.5015 39.3062 28.3427 40.3728 30.3066 41.2374C31.1602 41.6123 31.1699 41.5881 31.0328 42.4413L31.0392 42.4365ZM22.1914 25.1477C22.7691 25.1978 23.3516 25.1186 23.9293 25.2657C24.1343 25.3174 24.4425 25.4015 24.6087 25.1671C25.0266 24.574 25.4914 24.0003 25.6915 23.2068H23.4226C24.1326 22.1418 24.8104 21.156 25.4543 20.146C26.1901 18.9905 26.3611 17.751 25.9658 16.4258C25.8206 15.941 25.6624 15.8957 25.2122 16.143C23.7922 16.9235 22.2398 17.3566 20.6326 17.4003C17.9942 17.473 15.351 17.4051 12.711 17.4342C11.7783 17.4439 10.8472 17.5344 9.95966 17.8996C7.14862 19.0568 5.54623 21.8477 5.8964 24.8407C5.95611 25.353 6.10295 25.7134 6.7339 25.3449C6.94529 25.2205 7.2406 25.1639 7.48588 25.1881C7.90544 25.2285 8.02323 24.9409 8.09908 24.671C8.45893 23.4121 9.25125 22.5055 10.3373 21.8267C11.2393 21.2643 11.2409 21.2675 11.6282 22.234C11.6347 22.2485 11.6621 22.255 11.6798 22.2647C11.6847 22.3649 11.654 22.4893 11.7024 22.5588C12.0106 23.0032 11.8461 23.2149 11.4007 23.446C10.3195 24.0084 9.75149 24.9312 9.74665 26.1642C9.7402 28.1359 9.7757 30.1091 9.7402 32.0791C9.70308 34.159 11.4217 36.2211 13.4194 36.6477C14.6264 36.9063 15.8657 36.8433 17.0679 36.7318C18.3379 36.6138 19.4094 35.9641 20.2614 34.9347C21.0731 33.9537 21.32 32.8241 21.349 31.633C21.3942 29.7632 21.3603 27.8902 21.3603 26.0188C21.3603 25.4586 21.6384 25.1677 22.1946 25.1461L22.1914 25.1477ZM15.614 46.4428C13.1757 46.4428 10.7375 46.4508 8.29918 46.4347C7.91189 46.4314 7.79409 46.5236 7.79732 46.926C7.8183 49.182 7.81668 51.438 7.79732 53.6925C7.79409 54.0835 7.89253 54.1918 8.29111 54.1902C13.1273 54.1757 17.9635 54.1757 22.7997 54.1902C23.187 54.1902 23.3048 54.1013 23.3016 53.6989C23.2806 51.4429 23.2822 49.1868 23.3016 46.9324C23.3048 46.5413 23.2064 46.4314 22.8078 46.4347C20.4099 46.4541 18.0119 46.4444 15.614 46.4444V46.4428ZM15.43 44.5051C17.9506 44.5051 20.4696 44.4954 22.9902 44.5099C24.0842 44.5164 24.996 45.0028 25.1541 46.1599C25.2751 47.0439 25.1831 47.9182 25.2283 48.7958C25.2542 49.2757 25.0734 49.8947 25.3106 50.2001C25.564 50.5266 26.2143 50.2664 26.6887 50.3084C26.7694 50.3149 26.8501 50.3116 26.9308 50.3084C27.0663 50.3052 27.1696 50.3391 27.1648 50.5023C27.1535 51.0631 27.2793 51.6804 27.0776 52.162C26.9647 52.4335 26.2982 52.2121 25.8851 52.2509C25.8657 52.2525 25.8448 52.2542 25.8254 52.2509C25.3832 52.1814 25.1928 52.3091 25.2187 52.8149C25.2671 53.7183 25.2913 54.633 25.2122 55.5332C25.1541 56.2038 25.5624 56.2055 25.9238 56.0939C27.268 55.6802 28.3298 54.8981 28.8462 53.5309C29.2416 52.4853 29.0286 51.43 28.8575 50.3747C28.5186 48.2818 27.5601 46.5009 26.1062 44.9851C24.5716 43.3835 22.6545 42.4624 20.5148 41.9808C20.0726 41.8806 19.6466 41.5929 19.148 41.8078C16.9743 42.7452 14.7426 42.9246 12.527 42.0616C11.6782 41.7303 10.9472 41.7578 10.1549 42.0745C9.97257 42.1472 9.77247 42.1715 9.58044 42.2183C7.77311 42.666 6.23527 43.6243 4.95724 44.9253C3.51137 46.3959 2.54639 48.1865 2.1704 50.2324C1.93803 51.493 1.72987 52.7955 2.40116 54.0011C3.07568 55.2116 4.02937 56.0503 5.51073 56.1085C5.8254 56.1214 5.87381 56.0067 5.87058 55.7352C5.85767 54.688 5.85767 53.6391 5.87058 52.5919C5.87381 52.3333 5.80442 52.2331 5.53332 52.2461C5.11054 52.2671 4.68614 52.2461 4.26335 52.2542C4.05841 52.2574 3.9503 52.2364 3.92125 51.9746C3.74536 50.3617 3.76795 50.3262 5.35743 50.31C5.39777 50.31 5.43973 50.3036 5.47846 50.31C5.81249 50.3666 5.87542 50.205 5.87219 49.9028C5.85606 48.7941 5.94481 47.6791 5.84315 46.5801C5.7431 45.5151 6.8162 44.4598 7.92964 44.4873C10.4276 44.5471 12.9288 44.5051 15.4284 44.5051H15.43ZM37.7973 23.2278C35.7431 23.2278 33.6873 23.2488 31.633 23.2133C31.1086 23.2036 30.9876 23.362 31.0263 23.8484C31.0973 24.7389 31.1715 25.6277 31.2667 26.5166C31.4136 27.8821 31.6798 29.2219 31.9703 30.5616C32.0526 30.9414 32.1849 30.9721 32.4948 30.9721C35.9997 30.964 39.5062 30.9575 43.0111 30.9802C43.4065 30.9834 43.5324 30.8137 43.5937 30.5083C44.0342 28.2797 44.4473 26.0479 44.4764 23.7628C44.4828 23.2828 44.3263 23.2133 43.9003 23.2181C41.8654 23.2392 39.8306 23.2278 37.7957 23.2278H37.7973ZM37.715 21.2934C39.8096 21.2934 41.9025 21.2853 43.9971 21.3015C44.3537 21.3047 44.4796 21.2336 44.4747 20.8441C44.4634 19.8276 44.3505 18.824 44.2391 17.814C44.0988 16.5405 43.818 15.2961 43.5969 14.0388C43.5404 13.7221 43.4016 13.5298 42.9789 13.5395C41.3087 13.5783 39.6369 13.5556 37.9651 13.5556C36.1723 13.5556 34.3811 13.5524 32.5883 13.5589C32.3495 13.5589 32.1042 13.4748 32.0042 13.8788C31.4442 16.1478 31.1618 18.4507 31.0263 20.7779C31.0005 21.2078 31.1328 21.3096 31.554 21.3047C33.6082 21.2821 35.6608 21.2934 37.715 21.2934ZM52.2559 23.2278C50.4631 23.2278 48.6719 23.2262 46.8791 23.2311C46.6645 23.2311 46.3741 23.1196 46.395 23.5414C46.4467 24.6387 46.2901 25.7214 46.1691 26.8091C46.0271 28.0793 45.8415 29.3415 45.4978 30.5697C45.3865 30.9656 45.5107 30.9672 45.8044 30.9672C49.106 30.964 52.4092 30.9608 55.7108 30.9721C55.9932 30.9721 56.1949 30.8783 56.2918 30.644C57.2051 28.4348 57.8909 26.1691 58.0248 23.7611C58.0523 23.2779 57.8748 23.2133 57.452 23.2181C55.7205 23.2408 53.989 23.2278 52.2575 23.2278H52.2559ZM45.4704 13.554C45.9819 15.9846 46.416 18.3925 46.3934 20.8571C46.3902 21.1884 46.4676 21.3015 46.8194 21.2999C50.4034 21.2869 53.989 21.2886 57.573 21.2999C57.8941 21.2999 58.0587 21.2433 58.0184 20.8797C57.9587 20.3464 57.9813 19.8018 57.878 19.2782C57.5601 17.6847 57.2035 16.1042 56.5725 14.5915C56.1465 13.5702 56.1869 13.554 55.0847 13.554H45.472H45.4704ZM40.1226 2.15908C40.5357 2.72632 40.8795 3.15296 41.1764 3.61193C42.6868 5.95524 43.9438 8.42298 44.7362 11.1073C44.862 11.5339 45.0831 11.6325 45.501 11.6293C48.4831 11.6115 51.4636 11.6212 54.4457 11.6163C54.6151 11.6163 54.7991 11.6745 55.0105 11.5291C52.9627 8.39066 50.3405 5.90514 47.005 4.19533C44.883 3.10771 42.6432 2.4128 40.1226 2.15908ZM20.4421 11.6196C23.7341 11.6196 26.9146 11.6083 30.0936 11.6325C30.5374 11.6357 30.6777 11.4806 30.8068 11.0895C31.1844 9.94209 31.5782 8.79953 32.1059 7.70706C33.0273 5.79363 34.0358 3.93353 35.3122 2.19786C28.964 3.06408 24.039 6.17017 20.4438 11.6212L20.4421 11.6196ZM42.8465 11.6196C42.5593 10.5627 42.1301 9.58817 41.6976 8.61045C40.8068 6.59682 39.6514 4.7448 38.3105 3.00752C37.9054 2.48229 37.6521 2.25927 37.2793 3.00752C37.2454 3.07539 37.1648 3.11902 37.1163 3.18205C35.2412 5.62717 33.8341 8.32278 32.7997 11.222C32.6545 11.626 32.8143 11.6196 33.1015 11.6196C36.3434 11.618 39.5869 11.6196 42.8465 11.6196ZM15.5253 58.0397C17.6585 58.0397 19.7934 58.0397 21.9267 58.0397C23.2903 58.0397 23.2661 58.0397 23.2935 56.6693C23.3032 56.2071 23.1709 56.1133 22.7287 56.115C18.2201 56.1327 13.7099 56.1263 9.20122 56.1263C7.80377 56.1263 7.82314 56.1263 7.80539 57.5274C7.79893 57.9589 7.92319 58.0542 8.33952 58.051C10.7342 58.03 13.1305 58.0413 15.5269 58.0413L15.5253 58.0397ZM30.1049 30.9656C29.929 30.4727 29.8919 30.0428 29.8047 29.6275C29.3949 27.6898 29.1593 25.736 29.0915 23.7579C29.085 23.5801 29.2642 23.2311 28.8979 23.2456C28.4864 23.2602 27.9103 22.9757 27.686 23.4476C27.2487 24.3656 26.884 25.3142 26.2627 26.1319C26.1239 26.3145 26.1304 26.4374 26.295 26.6668C27.0954 27.7771 27.41 28.9924 26.8872 30.3321C26.7339 30.7264 26.7371 31.0028 27.3164 30.9769C28.2185 30.9365 29.1238 30.9656 30.1065 30.9656H30.1049ZM27.0373 21.2918C27.6779 21.2918 28.2201 21.2789 28.7607 21.2966C29.0237 21.3047 29.1109 21.2223 29.1044 20.9556C29.0915 20.4385 29.1706 19.9214 29.198 19.4091C29.298 17.5522 29.5708 15.7244 30.0145 13.9241C30.1017 13.5734 29.9984 13.5508 29.7241 13.5524C28.7768 13.5573 27.8312 13.554 26.7452 13.554C28.2863 16.0945 28.6316 18.6479 27.034 21.2918H27.0373ZM18.6397 15.4545C21.2425 15.6889 23.584 15.0602 25.8496 13.554C24.2908 13.554 22.8724 13.5411 21.4555 13.5589C20.7778 13.5669 19.9613 13.2922 19.4626 13.672C19.0124 14.013 18.9011 14.8 18.6413 15.3915C18.6332 15.4077 18.6413 15.4319 18.6413 15.4545H18.6397ZM15.4349 40.6378C16.2724 40.6734 17.0663 40.4196 17.8715 40.2483C18.0152 40.2176 18.2572 40.1595 18.2056 39.9057C18.1265 39.5227 18.0378 39.1429 17.9313 38.7664C17.8893 38.6161 17.7489 38.5547 17.5924 38.5902C16.466 38.8424 15.3235 38.6403 14.1907 38.7001C13.8406 38.7195 13.4065 38.5789 13.1612 38.7389C12.8804 38.9215 12.9982 39.4338 12.8369 39.7554C12.6723 40.0851 12.8546 40.1094 13.0757 40.1934C13.8357 40.4827 14.6151 40.6653 15.4333 40.6362L15.4349 40.6378ZM7.80539 29.0199C7.80539 28.4962 7.78602 27.9726 7.81184 27.4506C7.83121 27.087 7.665 27.0499 7.37937 27.1193C6.64838 27.2987 5.88995 28.0793 5.87058 28.6756C5.83347 29.8085 6.31596 30.6214 7.21801 30.9204C7.56333 31.0351 7.81507 30.9785 7.80539 30.5276C7.79571 30.0251 7.80377 29.5225 7.80377 29.0182L7.80539 29.0199ZM23.2919 27.1226C23.2919 28.3217 23.2951 29.4837 23.2887 30.6472C23.2887 30.8589 23.3145 30.9866 23.5759 30.9656C24.3828 30.9058 25.33 29.5839 25.1815 28.7985C24.9863 27.7609 24.3715 27.2357 23.2935 27.121L23.2919 27.1226Z" fill="#1B2124"/>
<path d="M31.0392 42.4365C31.1764 41.5832 31.1667 41.6075 30.3131 41.2325C28.3492 40.3679 26.508 39.303 24.8491 37.9196C24.0584 37.2602 23.3774 36.4974 22.6255 35.8058C22.3415 35.5456 22.2866 35.3371 22.4964 34.9331C22.7755 34.3965 23.1548 33.8649 23.1451 33.2055C23.1402 32.9437 23.2855 32.8952 23.5275 32.8952C25.7851 32.9049 28.0426 32.9114 30.3001 32.8904C30.6293 32.8871 30.7407 33.0504 30.7762 33.2863C30.8569 33.8228 31.1538 34.2786 31.2942 34.7893C31.3829 35.1141 31.5814 35.1335 31.8444 35.0252C31.8622 35.0171 31.8783 35.0042 31.8961 34.9945C32.314 34.7392 33.0547 34.8264 33.1483 34.3174C33.2209 33.9133 32.8304 33.4253 32.6287 32.9308H54.9992C54.6184 33.5659 54.3053 34.1962 53.8244 34.7618C52.193 36.6833 50.4083 38.4141 48.2007 39.6698C47.9732 39.7991 47.9361 39.9154 48.0959 40.1304C48.2346 40.3178 48.3266 40.5376 48.4412 40.7429C46.7646 41.58 45.0783 42.388 43.2435 42.8341C42.7045 42.965 42.1704 43.1185 41.6347 43.2607C40.2356 42.3072 38.7316 42.346 37.4568 43.5532C35.9835 43.5322 34.5086 43.4708 33.0886 43.0425C32.4076 42.8373 31.6815 42.7775 31.0408 42.4349L31.0392 42.4365ZM39.6966 36.756C39.9306 36.651 40.2404 36.8805 40.5793 36.8966C42.1397 36.971 43.5307 37.543 44.7652 38.4658C45.9868 39.3789 45.9674 39.4064 46.9663 38.2024C46.9792 38.1862 46.9921 38.1717 47.0082 38.1588C47.1615 38.0392 47.1325 37.9244 46.9986 37.8162C46.5209 37.4299 46.0675 37.0065 45.5591 36.6655C43.4549 35.2563 41.1473 34.7068 38.6122 34.9412C36.4757 35.1399 34.6393 35.9625 33.0063 37.2926C32.1785 37.9665 32.2011 37.9939 32.9595 38.7519C33.016 38.8084 33.0821 38.8585 33.1289 38.9232C33.4468 39.3547 33.7099 39.3773 34.1246 38.962C35.6221 37.4639 37.5133 36.8869 39.6982 36.7544L39.6966 36.756ZM36.5435 42.1957C36.5919 42.1521 36.6419 42.1149 36.6823 42.0713C38.2798 40.3001 40.8036 40.1352 42.527 41.9226C42.7852 42.1893 42.9998 42.0729 43.2064 41.9307C43.5001 41.7287 43.7615 41.4782 44.0423 41.2552C44.2908 41.058 44.3198 40.898 44.0681 40.6491C42.8401 39.4339 41.3684 38.7228 39.6466 38.726C37.9781 38.7292 36.5451 39.3854 35.4204 40.6621C35.1686 40.9481 35.0863 41.0871 35.4978 41.3198C35.8867 41.5396 36.1998 41.8984 36.5451 42.1957H36.5435Z" fill="#D1D3D4"/>
<path d="M39.9016 50.3133C40.8327 50.3973 42.001 50.1565 43.1483 50.4361C43.8277 50.6009 44.3182 51.0373 44.4409 51.7144C44.528 52.1992 44.7426 52.2574 45.1541 52.2558C46.2627 52.2493 47.218 52.5661 47.9038 53.5373C48.9495 55.0193 48.2621 56.9505 46.8646 57.7117C46.082 58.1383 45.288 58.0656 44.4925 58.0333C43.839 58.0058 43.3823 58.1949 42.9224 58.6635C41.2587 60.3556 38.2475 60.5333 36.4241 58.6732C35.4026 57.6325 34.8249 56.4673 34.8975 54.9853C34.9443 54.0609 34.9589 53.1301 34.8943 52.2073C34.8104 51.0017 35.8432 50.3456 36.7775 50.3197C37.7441 50.2923 38.7107 50.3133 39.9032 50.3133H39.9016ZM39.7418 52.2558C38.9366 52.2558 38.1297 52.2816 37.3261 52.2445C36.9082 52.2251 36.8291 52.3786 36.842 52.7535C36.8678 53.5583 36.8452 54.3631 36.8517 55.168C36.8598 56.2879 37.3503 57.1266 38.325 57.6842C40.0081 58.6457 42.1769 57.5937 42.5303 55.6835C42.7239 54.6427 42.5738 53.6052 42.6432 52.5677C42.6626 52.2736 42.5125 52.2493 42.2801 52.2509C41.4346 52.259 40.589 52.2542 39.7434 52.2542L39.7418 52.2558ZM45.1073 56.115C45.188 56.115 45.2671 56.115 45.3477 56.115C45.9593 56.102 46.4983 55.6673 46.5161 55.1712C46.5338 54.6815 45.9916 54.2015 45.3962 54.1805C44.8873 54.1633 44.6168 54.4531 44.5845 55.05C44.5796 55.1486 44.57 55.2471 44.5457 55.3425C44.4188 55.8586 44.6065 56.1166 45.1089 56.1166L45.1073 56.115Z" fill="#1B2124"/>
<path d="M18.4525 0.980947C18.4525 2.06533 18.4492 2.00877 17.3406 2.08149C15.7964 2.18492 14.3908 2.6649 13.024 3.47455C11.5314 4.36016 10.3405 5.46879 9.43682 6.90709C8.43473 8.50377 7.79087 10.2281 7.81668 12.148C7.82153 12.468 7.76343 12.649 7.39713 12.5908C7.27933 12.5714 7.15507 12.5876 7.03405 12.5876C5.74956 12.5876 5.71405 12.5827 5.87542 11.2737C6.18525 8.7575 7.12441 6.51923 8.75746 4.54116C10.4825 2.45157 12.6626 1.14417 15.2283 0.413704C16.1401 0.153516 17.0986 0.168061 18.0281 0.0129179C18.3686 -0.0436447 18.4993 0.0953377 18.4525 0.437945C18.4283 0.615714 18.4476 0.799946 18.4476 0.980947H18.4525Z" fill="#1B2124"/>
<path d="M18.4525 4.85469C18.4525 5.92129 18.4428 5.83079 17.3407 5.95846C15.6382 6.15401 14.2053 6.97013 13.1499 8.3244C12.2462 9.48312 11.6573 10.797 11.6879 12.3161C11.6928 12.523 11.6185 12.6054 11.4087 12.5908C11.2087 12.5763 11.0069 12.5876 10.8052 12.5876C9.68533 12.5876 9.53849 12.4179 9.74827 11.2931C10.0855 9.48635 10.844 7.85574 12.1252 6.55156C13.5598 5.09225 15.2993 4.1323 17.4068 4.0014C17.4472 3.99817 17.4875 4.00463 17.5278 4.0014C18.1464 3.91952 18.4557 4.20395 18.4557 4.85469H18.4525Z" fill="#1B2124"/>
<path d="M37.4536 43.5548C38.7284 42.3492 40.2324 42.3104 41.6314 43.2623C42.0236 43.7051 42.3705 44.1738 42.5254 44.7604C42.8998 46.1793 42.0058 47.498 41.0053 48.0604C39.0996 49.1303 36.8049 47.4932 36.8162 45.5862C36.821 44.7992 37.1422 44.198 37.4536 43.5532V43.5548ZM39.7015 46.4233C40.2098 46.4056 40.7229 45.8917 40.6907 45.4327C40.6584 44.985 40.1468 44.5309 39.674 44.5309C39.1625 44.5309 38.7768 44.9656 38.7978 45.5216C38.8172 46.0403 39.219 46.4411 39.7015 46.4233Z" fill="#1B2124"/>
<path d="M22.1898 25.1477C21.6336 25.1682 21.3555 25.4591 21.3555 26.0204C21.3555 27.8918 21.3894 29.7632 21.3442 31.6347C21.3152 32.8273 21.0699 33.9553 20.2566 34.9363C19.4046 35.9657 18.3331 36.6154 17.0631 36.7334C15.8625 36.8449 14.6232 36.9079 13.4146 36.6493C11.4184 36.2211 9.69986 34.1606 9.73536 32.0807C9.76925 30.1091 9.73536 28.1375 9.74181 26.1659C9.74504 24.9328 10.3147 24.0116 11.3958 23.4476C11.8428 23.2149 12.0058 23.0048 11.6976 22.5604C11.6492 22.4909 11.6798 22.3649 11.675 22.2663C12.2366 22.3148 12.811 22.1467 13.3613 22.3697C12.7481 22.6396 12.7949 22.9693 13.2096 23.4185C13.4985 23.7321 13.7018 24.1264 13.939 24.4868C14.5016 25.3422 15.1837 25.478 15.9852 24.894C16.2062 24.7324 16.3127 24.6177 16.0965 24.2848C15.6656 23.6189 15.1105 23.0242 14.8265 22.2663C15.6269 22.3293 16.4386 22.1273 17.2309 22.3713C16.6161 22.6412 16.6661 22.9709 17.0792 23.4202C17.3681 23.7337 17.5714 24.128 17.8086 24.4884C18.3713 25.3427 19.0538 25.478 19.8564 24.894C20.0742 24.734 20.192 24.616 19.9726 24.2848C19.5336 23.6222 18.9834 23.0258 18.6945 22.2679C20.4518 22.5119 21.633 23.4509 22.1849 25.1526L22.1898 25.1477ZM14.933 34.8313C16.7016 34.8587 17.7199 34.3464 18.5783 33.4463C19.3739 32.6108 19.3739 32.5106 18.4202 31.9627C18.4025 31.953 18.3912 31.9336 18.375 31.9239C17.6327 31.4844 17.6295 31.4827 17.1276 32.1421C16.3983 33.1004 14.7733 33.1182 14.0826 32.3603C13.8422 32.0952 13.747 31.5652 13.3177 31.6056C12.9708 31.6379 12.6464 31.9142 12.3124 32.0807C12.2414 32.1162 12.172 32.1599 12.0978 32.1841C11.7944 32.2827 11.767 32.4427 11.9235 32.7126C12.7061 34.0733 13.8793 34.7715 14.9346 34.8313H14.933ZM12.6013 29.0279C13.095 29.0118 13.6324 28.4801 13.6082 28.0292C13.584 27.567 13.0176 27.0806 12.5319 27.1032C12.0139 27.1274 11.6524 27.5638 11.6815 28.1294C11.7089 28.653 12.1091 29.0425 12.6013 29.0279ZM18.4008 29.0279C18.8914 29.0166 19.4336 28.4865 19.4142 28.0357C19.3949 27.5767 18.8301 27.0838 18.3444 27.1032C17.828 27.1226 17.4601 27.5589 17.4875 28.1229C17.5117 28.6465 17.9087 29.0392 18.4008 29.0279Z" fill="#EEF6FF"/>
<path d="M15.6124 46.4428C18.0103 46.4428 20.4083 46.4525 22.8062 46.4331C23.2048 46.4298 23.3032 46.5413 23.3 46.9308C23.2806 49.1869 23.2806 51.4429 23.3 53.6973C23.3032 54.0997 23.1854 54.1886 22.7981 54.1886C17.9619 54.1757 13.1257 54.1757 8.28949 54.1886C7.89091 54.1886 7.79248 54.0819 7.79571 53.6909C7.81507 51.4348 7.81507 49.1788 7.79571 46.9243C7.79248 46.5219 7.91028 46.4298 8.29756 46.4331C10.7358 46.4508 13.1741 46.4411 15.6124 46.4411V46.4428Z" fill="#EC008C"/>
<path d="M17.2341 22.3665C16.4418 22.1224 15.6301 22.3261 14.8298 22.2614C14.557 21.7637 14.2311 21.7184 13.8164 22.1144C13.6953 22.2291 13.5775 22.3988 13.3629 22.3649C12.8126 22.1418 12.2382 22.3099 11.6766 22.2614C11.6589 22.2517 11.6314 22.2453 11.625 22.2307C11.2377 21.2643 11.2361 21.2611 10.334 21.8235C9.24802 22.5022 8.4557 23.4088 8.09585 24.6678C8.0184 24.9376 7.90221 25.2253 7.48265 25.1849C7.23737 25.1607 6.94368 25.2188 6.73068 25.3417C6.10134 25.7085 5.95449 25.3497 5.89317 24.8374C5.543 21.8445 7.14539 19.0535 9.95643 17.8964C10.8456 17.5312 11.7751 17.4407 12.7078 17.431C15.3477 17.4019 17.991 17.4698 20.6293 17.397C22.2366 17.3534 23.7889 16.9187 25.209 16.1397C25.6592 15.8925 25.8173 15.9377 25.9626 16.4225C26.3579 17.7477 26.1885 18.9889 25.451 20.1428C24.8072 21.1512 24.1278 22.1386 23.4194 23.2036H25.6882C25.4865 23.9955 25.0218 24.5692 24.6055 25.1639C24.4409 25.3982 24.131 25.3142 23.9261 25.2625C23.3484 25.1154 22.7659 25.1962 22.1882 25.1445C21.6363 23.4444 20.4534 22.5038 18.6978 22.2598C18.4267 21.7588 18.0991 21.7168 17.686 22.1111C17.5649 22.2259 17.4455 22.3939 17.2325 22.3616L17.2341 22.3665Z" fill="#EC008C"/>
<path d="M15.4284 44.5051C12.9288 44.5051 10.4276 44.5455 7.92964 44.4873C6.8162 44.4614 5.7431 45.5151 5.84315 46.5801C5.94481 47.679 5.85606 48.7941 5.8722 49.9028C5.87704 50.205 5.81249 50.3666 5.47846 50.31C5.43973 50.3035 5.39777 50.31 5.35743 50.31C3.76795 50.3262 3.74375 50.3617 3.92125 51.9746C3.9503 52.2364 4.05842 52.259 4.26335 52.2541C4.68614 52.2461 5.11054 52.2671 5.53332 52.2461C5.80442 52.2331 5.87381 52.3333 5.87058 52.5919C5.85767 53.6391 5.85767 54.6879 5.87058 55.7352C5.87381 56.0083 5.82379 56.1214 5.51073 56.1085C4.02937 56.0503 3.07407 55.2116 2.40116 54.0011C1.72987 52.7955 1.93804 51.493 2.17041 50.2324C2.54801 48.1865 3.51299 46.3959 4.95724 44.9252C6.23528 43.6243 7.77312 42.666 9.58044 42.2183C9.77247 42.1714 9.97418 42.1472 10.1549 42.0745C10.9472 41.7561 11.6782 41.7303 12.527 42.0616C14.7442 42.9245 16.976 42.7468 19.148 41.8078C19.6466 41.5929 20.071 41.8822 20.5148 41.9808C22.6529 42.4623 24.5716 43.3835 26.1062 44.985C27.5585 46.5009 28.5186 48.2802 28.8575 50.3746C29.0286 51.4299 29.24 52.4852 28.8462 53.5308C28.3298 54.8997 27.268 55.6818 25.9238 56.0939C25.5624 56.2054 25.1541 56.2038 25.2122 55.5332C25.2897 54.633 25.2655 53.7199 25.2187 52.8149C25.1912 52.3091 25.3832 52.1814 25.8254 52.2509C25.8448 52.2541 25.8657 52.2525 25.8851 52.2509C26.2998 52.2121 26.9647 52.4335 27.0776 52.162C27.2793 51.6804 27.1535 51.0631 27.1648 50.5023C27.168 50.3391 27.0647 50.3052 26.9308 50.3084C26.8501 50.31 26.7694 50.3132 26.6887 50.3084C26.2143 50.2664 25.5656 50.5266 25.3106 50.2001C25.0734 49.8947 25.2542 49.2757 25.2283 48.7957C25.1815 47.9182 25.2751 47.0423 25.1541 46.1599C24.996 45.0028 24.0826 44.5164 22.9902 44.5099C20.4696 44.4954 17.9506 44.5051 15.43 44.5051H15.4284Z" fill="#EEF6FF"/>
<path d="M37.7973 23.2279C39.8322 23.2279 41.867 23.2392 43.9019 23.2182C44.3279 23.2133 44.4844 23.2828 44.478 23.7628C44.4489 26.0479 44.0358 28.2797 43.5953 30.5083C43.5356 30.8137 43.4081 30.9834 43.0127 30.9802C39.5078 30.9575 36.0013 30.964 32.4964 30.9721C32.1865 30.9721 32.0542 30.9414 31.9719 30.5616C31.6815 29.2219 31.4152 27.8821 31.2684 26.5166C31.1731 25.6277 31.0989 24.7389 31.0279 23.8484C30.9892 23.362 31.1102 23.2052 31.6347 23.2133C33.6889 23.2489 35.7447 23.2279 37.7989 23.2279H37.7973Z" fill="#D1D3D4"/>
<path d="M37.715 21.2934C35.6608 21.2934 33.6066 21.2805 31.554 21.3047C31.1328 21.3096 31.0021 21.2077 31.0263 20.7779C31.1635 18.4507 31.4442 16.1478 32.0042 13.8788C32.1042 13.4748 32.3495 13.5589 32.5883 13.5589C34.3795 13.5524 36.1723 13.5556 37.9651 13.5556C39.6369 13.5556 41.3087 13.5783 42.9789 13.5395C43.4016 13.5298 43.542 13.7221 43.5969 14.0388C43.818 15.2961 44.0971 16.5405 44.2391 17.814C44.3505 18.824 44.4634 19.8276 44.4747 20.8441C44.4796 21.2336 44.3553 21.3031 43.9971 21.3015C41.9025 21.2853 39.8096 21.2934 37.715 21.2934Z" fill="#D1D3D4"/>
<path d="M52.2559 23.2278C53.9874 23.2278 55.7189 23.2407 57.4504 23.2181C57.8732 23.2117 58.0507 23.2779 58.0232 23.7611C57.8893 26.1707 57.2035 28.4348 56.2901 30.644C56.1933 30.8783 55.9916 30.9737 55.7092 30.972C52.4076 30.9624 49.1044 30.964 45.8028 30.9672C45.5107 30.9672 45.3865 30.9672 45.4962 30.5696C45.8399 29.3414 46.0239 28.0793 46.1675 26.809C46.2885 25.7214 46.4451 24.6387 46.3934 23.5413C46.374 23.1195 46.6629 23.2311 46.8775 23.2311C48.6703 23.2262 50.4615 23.2278 52.2543 23.2278H52.2559Z" fill="#D1D3D4"/>
<path d="M45.4704 13.554H55.0831C56.1869 13.554 56.1449 13.5702 56.5709 14.5915C57.2003 16.1026 57.5585 17.6847 57.8764 19.2782C57.9813 19.8001 57.9587 20.3464 58.0168 20.8797C58.0571 21.2433 57.8941 21.2999 57.5714 21.2999C53.9874 21.2902 50.4018 21.2885 46.8178 21.2999C46.466 21.2999 46.3886 21.1884 46.3918 20.8571C46.416 18.3925 45.9803 15.983 45.4688 13.554H45.4704Z" fill="#D1D3D4"/>
<path d="M40.1226 2.15906C42.6432 2.41278 44.883 3.10769 47.005 4.19531C50.3405 5.90512 52.9627 8.39064 55.0105 11.5291C54.7975 11.6745 54.6151 11.6163 54.4457 11.6163C51.4636 11.6212 48.4815 11.6115 45.501 11.6293C45.0831 11.6325 44.862 11.5339 44.7362 11.1073C43.9438 8.42296 42.6868 5.95522 41.1764 3.61191C40.8811 3.15294 40.5357 2.7263 40.1226 2.15906Z" fill="#D1D3D4"/>
<path d="M20.4422 11.6196C24.0374 6.16854 28.9624 3.06244 35.3106 2.19623C34.0358 3.93351 33.0273 5.79199 32.1042 7.70543C31.5766 8.79951 31.1828 9.94046 30.8052 11.0879C30.6761 11.479 30.5374 11.6341 30.092 11.6309C26.913 11.6066 23.7325 11.6179 20.4405 11.6179L20.4422 11.6196Z" fill="#D1D3D4"/>
<path d="M42.8465 11.6196C39.5869 11.6196 36.3434 11.6196 33.1015 11.6196C32.8143 11.6196 32.6561 11.6277 32.7997 11.222C33.8357 8.32279 35.2412 5.6288 37.1163 3.18206C37.1648 3.11903 37.2454 3.0754 37.2793 3.00752C37.6521 2.25928 37.9054 2.4823 38.3105 3.00752C39.6514 4.74319 40.8068 6.59683 41.6976 8.61046C42.1301 9.58656 42.5577 10.5611 42.8465 11.6196Z" fill="#D1D3D4"/>
<path d="M15.5253 58.0397C13.1289 58.0397 10.7342 58.0284 8.3379 58.0494C7.92157 58.0527 7.79893 57.9573 7.80378 57.5258C7.82314 56.1247 7.80377 56.1247 9.19961 56.1247C13.7082 56.1247 18.2185 56.1311 22.7271 56.1134C23.1693 56.1117 23.3016 56.2055 23.2919 56.6677C23.2645 58.0381 23.2871 58.0381 21.9251 58.0381C19.7918 58.0381 17.6569 58.0381 15.5236 58.0381L15.5253 58.0397Z" fill="#EC008C"/>
<path d="M30.1049 30.9656C29.1205 30.9656 28.2169 30.9365 27.3148 30.9769C26.7355 31.0028 26.7323 30.7264 26.8856 30.3321C27.4084 28.9908 27.0938 27.7771 26.2934 26.6669C26.1272 26.4374 26.1207 26.3146 26.2611 26.1319C26.8824 25.3126 27.2471 24.364 27.6844 23.4476C27.9103 22.9758 28.4848 23.2602 28.8962 23.2456C29.2625 23.2327 29.0834 23.5802 29.0899 23.7579C29.1577 25.736 29.3933 27.6898 29.8031 29.6275C29.8903 30.0428 29.9274 30.4743 30.1033 30.9656H30.1049Z" fill="#D1D3D4"/>
<path d="M27.0373 21.2934C28.6332 18.6479 28.2879 16.0961 26.7484 13.5556C27.8328 13.5556 28.7801 13.5589 29.7273 13.554C30.0016 13.554 30.1033 13.575 30.0178 13.9257C29.574 15.726 29.3013 17.5538 29.2012 19.4107C29.1738 19.923 29.0947 20.4401 29.1076 20.9573C29.1141 21.2239 29.027 21.3063 28.7639 21.2982C28.2233 21.2805 27.6811 21.2934 27.0405 21.2934H27.0373Z" fill="#D1D3D4"/>
<path d="M18.6397 15.4561C18.6397 15.4319 18.6332 15.4093 18.6397 15.3931C18.8995 14.8016 19.0108 14.0162 19.461 13.6736C19.9597 13.2938 20.7762 13.5702 21.4539 13.5605C22.8707 13.5427 24.2876 13.5556 25.848 13.5556C23.5824 15.0634 21.2409 15.6921 18.638 15.4561H18.6397Z" fill="#D1D3D4"/>
<path d="M15.4349 40.6378C14.6151 40.6669 13.8373 40.4859 13.0757 40.1966C12.8546 40.1126 12.6723 40.0883 12.8369 39.7586C12.9982 39.437 12.8804 38.9247 13.1612 38.7421C13.4081 38.5805 13.8422 38.7211 14.1907 38.7033C15.3235 38.6419 16.4644 38.8456 17.5924 38.5934C17.7505 38.5579 17.8893 38.6193 17.9313 38.7696C18.0361 39.1461 18.1265 39.5259 18.2056 39.9089C18.2572 40.1627 18.0152 40.2208 17.8715 40.2515C17.0663 40.4228 16.274 40.6766 15.4349 40.6394V40.6378Z" fill="#EEF6FF"/>
<path d="M7.80539 29.0215C7.80539 29.5241 7.79732 30.0283 7.80701 30.5309C7.81507 30.9802 7.56495 31.0383 7.21962 30.9236C6.31757 30.623 5.83508 29.8101 5.8722 28.6789C5.89156 28.0825 6.64999 27.302 7.38099 27.1226C7.66661 27.0531 7.83121 27.0903 7.81346 27.4539C7.78603 27.9759 7.80701 28.4995 7.80701 29.0231L7.80539 29.0215Z" fill="#EEF6FF"/>
<path d="M23.2919 27.1242C24.3715 27.2389 24.9847 27.7626 25.1799 28.8017C25.3284 29.5871 24.3812 30.9091 23.5743 30.9688C23.3129 30.9882 23.2855 30.8622 23.2871 30.6505C23.2935 29.4869 23.2903 28.325 23.2903 27.1258L23.2919 27.1242Z" fill="#EEF6FF"/>
<path d="M39.695 36.7544C37.5101 36.8869 35.6188 37.4638 34.1213 38.9619C33.7066 39.3772 33.4436 39.3546 33.1257 38.9231C33.0789 38.8585 33.0127 38.8084 32.9563 38.7518C32.1978 37.9939 32.1752 37.9664 33.0031 37.2925C34.6361 35.9609 36.4725 35.1399 38.609 34.9411C41.1457 34.7052 43.4533 35.2563 45.5559 36.6655C46.0642 37.0065 46.5177 37.4299 46.9953 37.8161C47.1293 37.9244 47.1583 38.0391 47.005 38.1587C46.9889 38.1717 46.976 38.1862 46.963 38.2024C45.9642 39.4063 45.9852 39.3805 44.762 38.4658C43.5275 37.543 42.1381 36.9709 40.5761 36.8966C40.2372 36.8804 39.9274 36.6509 39.6934 36.756L39.695 36.7544Z" fill="#1B2124"/>
<path d="M36.5419 42.1941C36.1949 41.8967 35.8835 41.538 35.4946 41.3182C35.0831 41.0855 35.1654 40.9465 35.4171 40.6604C36.5419 39.3837 37.9748 38.7276 39.6434 38.7244C41.3652 38.7211 42.8352 39.4322 44.0649 40.6475C44.3166 40.8964 44.2876 41.0564 44.0391 41.2535C43.7583 41.4749 43.4985 41.727 43.2032 41.9291C42.9966 42.0713 42.782 42.1876 42.5238 41.921C40.8004 40.1336 38.2782 40.2984 36.679 42.0697C36.6387 42.1149 36.5903 42.1505 36.5403 42.1941H36.5419Z" fill="#1B2124"/>
<path d="M39.7418 52.2558C40.5874 52.2558 41.433 52.2606 42.2785 52.2525C42.5109 52.2509 42.661 52.2752 42.6416 52.5693C42.5722 53.6052 42.7223 54.6443 42.5286 55.6851C42.1752 57.5953 40.0065 58.649 38.3234 57.6858C37.3487 57.1298 36.8582 56.2895 36.8501 55.1695C36.8453 54.3647 36.8662 53.5583 36.8404 52.7551C36.8275 52.3802 36.9066 52.2267 37.3245 52.2461C38.1281 52.2816 38.935 52.2574 39.7402 52.2574L39.7418 52.2558Z" fill="#1B2124"/>
<path d="M39.7015 46.4217C39.2174 46.4379 38.8172 46.0371 38.7978 45.52C38.7768 44.9656 39.1625 44.5293 39.674 44.5293C40.1485 44.5293 40.6584 44.9834 40.6907 45.4311C40.7229 45.89 40.2098 46.4039 39.7015 46.4217Z" fill="#EEF6FF"/>
<path d="M14.933 34.8313C13.8777 34.7731 12.7045 34.0733 11.9219 32.7126C11.767 32.4427 11.7928 32.2811 12.0962 32.1841C12.1704 32.1599 12.2398 32.1162 12.3108 32.0807C12.6448 31.9126 12.9692 31.6379 13.3161 31.6056C13.7454 31.5652 13.8406 32.0969 14.081 32.3603C14.7717 33.1182 16.3966 33.1004 17.126 32.1421C17.6279 31.4827 17.6311 31.4844 18.3734 31.9239C18.3912 31.9336 18.4025 31.953 18.4186 31.9627C19.3723 32.5106 19.3723 32.6108 18.5767 33.4463C17.7183 34.3481 16.7016 34.8603 14.9314 34.8313H14.933Z" fill="#1B2124"/>
<path d="M17.2341 22.3664C17.4488 22.3988 17.5682 22.2307 17.6876 22.116C18.1007 21.72 18.4283 21.762 18.6994 22.2646C18.9866 23.0226 19.5385 23.6189 19.9774 24.2815C20.1969 24.6128 20.0791 24.7308 19.8612 24.8908C19.0587 25.4769 18.3761 25.3416 17.8135 24.4851C17.5762 24.1247 17.3729 23.7304 17.0841 23.4169C16.671 22.9676 16.6209 22.6379 17.2358 22.3681L17.2341 22.3664Z" fill="#1B2124"/>
<path d="M13.3613 22.3665C13.5759 22.4004 13.6953 22.2308 13.8147 22.116C14.2279 21.7201 14.5554 21.7653 14.8281 22.2631C15.1122 23.021 15.6673 23.6157 16.0981 24.2815C16.3143 24.6145 16.2062 24.7308 15.9868 24.8908C15.1853 25.4758 14.5033 25.3401 13.9406 24.4836C13.7034 24.1232 13.5017 23.7289 13.2112 23.4153C12.7965 22.9661 12.7497 22.6364 13.3629 22.3665H13.3613Z" fill="#1B2124"/>
<path d="M12.6013 29.0279C12.1091 29.0425 11.7089 28.653 11.6815 28.1294C11.6524 27.5638 12.0139 27.1274 12.5319 27.1032C13.0176 27.0806 13.584 27.567 13.6082 28.0292C13.6324 28.4801 13.095 29.0118 12.6013 29.0279Z" fill="#1B2124"/>
<path d="M18.4025 29.028C17.9103 29.0393 17.5133 28.6466 17.4891 28.123C17.4633 27.5589 17.8296 27.1226 18.346 27.1032C18.8317 27.0838 19.3965 27.5767 19.4158 28.0357C19.4352 28.485 18.893 29.0166 18.4025 29.028Z" fill="#1B2124"/>
</g>
<defs>
<clipPath id="clip0_145_2255">
<rect width="60" height="60" fill="white"/>
</clipPath>
</defs>
</svg>
