<svg width="30" height="25" viewBox="0 0 30 25" fill="none" xmlns="http://www.w3.org/2000/svg">
<path d="M17.2398 10.3488C17.1227 10.3481 17.0101 10.3934 16.9266 10.4749C16.843 10.5565 16.7952 10.6676 16.7936 10.7841V14.0372C16.7952 14.1539 16.8432 14.2653 16.9271 14.3469C17.011 14.4285 17.124 14.4737 17.2412 14.4725H27.0843C27.2016 14.4737 27.3146 14.4285 27.3985 14.3469C27.4824 14.2653 27.5304 14.1539 27.5319 14.0372V10.7841C27.5304 10.6674 27.4824 10.556 27.3985 10.4744C27.3146 10.3928 27.2016 10.3477 27.0843 10.3488H17.2398ZM23.2759 0.0014707C24.638 0.0661785 25.6174 0.333833 26.2378 0.901497C26.8509 1.46328 27.1656 2.27654 27.2276 3.35304V6.43696C27.2245 6.69959 27.1168 6.95025 26.9282 7.1339C26.7395 7.31754 26.4854 7.41915 26.2216 7.4164C26.0908 7.41795 25.961 7.39385 25.8396 7.34547C25.7183 7.29709 25.6076 7.22537 25.5141 7.13442C25.4205 7.04347 25.3459 6.93506 25.2944 6.81539C25.2429 6.69572 25.2156 6.56713 25.2141 6.43696L25.2156 3.40893C25.1831 2.85009 25.0486 2.50302 24.8566 2.32654C24.6705 2.15595 24.1032 2.003 23.2272 1.95888H3.91034C3.11705 1.98829 2.60148 2.1383 2.35182 2.35154C2.15977 2.51478 2.015 2.96479 2.01352 3.74276L2.00909 21.0521C2.08295 21.808 2.24989 22.3124 2.46409 22.5639C2.62659 22.7551 3.13034 22.9463 3.87193 23.0404H23.2478C24.1549 23.058 24.6897 22.9227 24.8699 22.7419C25.0693 22.5404 25.2141 22.011 25.2141 21.1448V18.1373C25.2141 17.5976 25.6647 17.1579 26.2216 17.1579C26.777 17.1579 27.2276 17.5976 27.2276 18.1373V21.1448C27.2276 22.4683 26.9558 23.4581 26.3191 24.1007C25.6632 24.7625 24.6202 25.0272 23.2272 24.9978L3.75227 24.9934C2.42716 24.8405 1.47727 24.4787 0.911477 23.8125C0.398864 23.2095 0.11375 22.3492 0 21.1462V3.74129C0.00295455 2.45301 0.313182 1.48387 1.02523 0.877967C1.67818 0.319127 2.62068 0.0470602 3.87193 0H23.2759V0.0014707ZM27.0843 8.38996C28.4434 8.38996 29.5455 9.46205 29.5455 10.7841V14.0372C29.5455 15.3593 28.4434 16.4314 27.0843 16.4314H17.2412C15.8822 16.4314 14.7801 15.3578 14.7801 14.0372V10.7841C14.7801 9.46205 15.8822 8.38996 17.2412 8.38996H27.0843ZM19.7024 11.243C19.0228 11.243 18.4718 11.7724 18.4718 12.4239C18.4718 13.0769 19.0228 13.6048 19.7024 13.6048C20.3819 13.6048 20.933 13.0754 20.933 12.4239C20.933 11.7709 20.3819 11.2415 19.7024 11.2415V11.243Z" fill="#EC008C"/>
</svg>
