<svg width="44" height="44" fill="none" xmlns="http://www.w3.org/2000/svg">
    <path
        d="M22 .125C9.92.125.125 9.92.125 22S9.92 43.875 22 43.875 43.875 34.08 43.875 22 34.08.125 22 .125Zm0 34.57a1.953 1.953 0 1 1-.001-3.905A1.953 1.953 0 0 1 22 34.695Zm3.071-10.718a2.358 2.358 0 0 0-1.509 2.188v1.108c0 .215-.175.391-.39.391h-2.344a.392.392 0 0 1-.39-.39v-1.05c0-1.128.327-2.242.971-3.17a5.458 5.458 0 0 1 2.544-1.996c1.66-.64 2.735-2.032 2.735-3.55 0-2.153-2.105-3.906-4.688-3.906-2.583 0-4.688 1.752-4.688 3.906v.37c0 .216-.175.392-.39.392h-2.344a.392.392 0 0 1-.39-.391v-.371c0-1.92.84-3.711 2.363-5.044 1.465-1.284 3.398-1.987 5.449-1.987 2.05 0 3.984.708 5.45 1.987 1.523 1.333 2.363 3.125 2.363 5.044 0 2.822-1.86 5.361-4.742 6.47Z"
        fill="#F63D74" />
</svg>