<svg width="70" height="70" viewBox="0 0 70 70" fill="none" xmlns="http://www.w3.org/2000/svg">
<g clip-path="url(#clip0_145_2228)">
<path d="M3.77683 69.9942C2.70108 70.0059 2.3386 69.6608 2.33665 68.5927C2.33275 62.9302 2.3347 57.2678 2.33665 51.6034C2.33665 50.1122 2.43993 48.6542 3.47086 47.4301C3.6599 47.206 3.88986 47.0227 4.18219 46.7401C3.34419 46.5881 2.57635 46.7557 1.88452 46.3249C0.705476 45.5959 0 44.6427 0 43.214C0.00584649 29.7976 0.00584649 16.3812 0.011693 2.9667C0.011693 1.87319 1.39146 0.356705 2.47112 0.144241C3.16685 0.00779684 3.85868 0 4.55636 0C25.0405 0 45.5247 0 66.0088 0C68.5384 0 69.9961 1.45801 69.9961 3.99003C69.9961 16.9445 70.0078 29.8989 69.9844 42.8514C69.9805 44.9078 68.9905 45.9019 67.4334 46.5627C67.1859 46.668 66.9696 46.6602 66.7396 46.6602C59.1333 46.668 51.529 46.6797 43.9227 46.6543C43.2582 46.6524 43.1198 46.8356 43.151 47.4535C43.2036 48.5197 43.2075 49.5937 43.151 50.6599C43.1178 51.2681 43.342 51.3597 43.8798 51.3519C45.7994 51.3227 47.719 51.3402 49.6386 51.3402C52.2228 51.3402 53.6669 52.7846 53.6669 55.3692C53.6669 56.6089 53.6669 57.8486 53.6669 59.0883C53.6649 60.2013 53.1991 60.673 52.098 60.673C46.4854 60.673 40.8708 60.6828 35.2582 60.6633C34.5449 60.6613 33.9155 60.7276 33.3445 61.2188C32.791 61.6964 32.1206 61.864 31.3606 61.8543C28.299 61.8211 25.2373 61.8543 22.1757 61.8289C21.6086 61.825 21.2111 61.8718 20.9791 62.5033C20.6108 63.5013 19.8332 64.244 19.1706 65.051C18.8413 65.4506 18.6308 65.8618 18.662 66.4076C18.701 67.0859 18.6737 67.7682 18.6717 68.4484C18.6678 69.5458 18.2021 69.9981 17.0776 70.002C16.7326 69.7447 16.3565 69.501 16.3507 69.0059C16.337 68.082 16.3292 67.1561 16.3409 66.2322C16.3526 65.2946 16.6469 64.4818 17.2647 63.7333C17.7421 63.1563 18.3326 62.6261 18.625 61.8426C17.709 61.8426 16.871 61.9342 16.0603 61.8211C14.7585 61.6398 13.823 62.1232 13.0844 63.1349C12.985 63.2694 12.8935 63.4078 12.7902 63.5403C12.2737 64.1992 11.424 64.3609 10.9018 63.9009C10.3268 63.3941 10.36 62.669 10.9972 62.018C11.7963 61.2032 12.6011 60.3923 13.4079 59.5834C14.2635 58.7238 14.242 58.1508 13.4294 57.2541C12.5466 56.2795 12.186 55.1821 12.6674 53.8508C13.1312 52.5682 14.1953 51.8217 15.0956 50.9367C16.0954 49.9543 16.3137 49.1337 15.881 47.9622C15.6121 47.2332 15.425 47.2254 14.8774 47.7712C13.4489 49.1961 12.0282 50.6268 10.5977 52.0478C9.9897 52.652 9.44013 52.6813 8.91589 52.1667C8.29811 51.5585 8.30006 51.1258 8.95877 50.4553C9.7422 49.6581 10.5432 48.8784 11.3305 48.0831C11.4767 47.935 11.6715 47.82 11.6715 47.5549C11.6637 45.9136 11.6676 44.2724 11.6676 42.6721C11.4806 42.5766 11.4123 42.6429 11.3422 42.713C9.52003 44.5336 7.66864 46.3269 5.89131 48.1884C5.20727 48.9037 4.66745 49.7224 4.6616 50.8412C4.63432 56.7122 4.76294 62.5852 4.62457 68.4582C4.60508 69.2476 4.35174 69.6375 3.78073 69.9903L3.77683 69.9942ZM34.9815 7.00156C25.9175 7.00156 16.8535 7.00741 7.78947 6.98792C7.16779 6.98792 6.98266 7.10682 6.9846 7.7715C7.01189 15.4514 7.00214 23.1332 7.00214 30.8131C7.00214 32.7584 7.02748 34.7018 6.98655 36.6451C6.97291 37.2435 7.16779 37.3702 7.71931 37.3507C8.83599 37.3098 9.95462 37.3157 11.0713 37.3507C11.5488 37.3644 11.6852 37.2221 11.6793 36.7445C11.654 34.6297 11.7417 32.5128 11.6462 30.4018C11.5624 28.5637 13.1955 26.8309 15.1736 26.8348C20.5679 26.8445 25.9623 26.827 31.3567 26.8504C32.3038 26.8543 33.1691 27.1583 33.9057 27.8386C34.8119 28.6748 34.9581 29.7586 34.9854 30.8618C35.0341 32.7799 35.0185 34.7018 34.9854 36.6217C34.9756 37.1695 35.0926 37.3566 35.6909 37.3546C44.56 37.3313 53.4311 37.3274 62.3002 37.3469C62.9063 37.3469 62.9998 37.15 62.9998 36.6081C62.9881 26.9829 62.9881 17.3577 63.0115 7.73446C63.0115 7.11266 62.8361 6.98792 62.2456 6.98792C53.1582 7.00741 44.0689 7.00156 34.9815 7.00156ZM11.2253 39.6703C9.26863 39.6703 7.5673 39.6781 5.86793 39.6664C5.18194 39.6625 4.71032 39.2512 4.68304 38.6626C4.6655 38.2903 4.66939 37.916 4.66939 37.5437C4.66939 27.1154 4.66939 16.6872 4.66939 6.26086C4.66939 4.98023 4.97536 4.66836 6.23041 4.66836C25.3816 4.66836 44.5307 4.66836 63.6819 4.66836C64.8999 4.66836 65.3306 5.09523 65.3306 6.30569C65.3306 16.8802 65.3306 27.4527 65.3306 38.0271C65.3306 39.2415 64.8999 39.6723 63.6897 39.6723C58.7319 39.6723 53.774 39.6723 48.8162 39.6723C44.4411 39.6723 40.0679 39.684 35.6928 39.6567C35.1062 39.6528 34.9639 39.8204 34.9873 40.3798C35.0322 41.4226 35.0361 42.4713 34.9873 43.5141C34.9562 44.1496 35.1023 44.3582 35.7961 44.3562C45.8579 44.3309 55.9178 44.3387 65.9796 44.3387C67.2463 44.3387 67.6653 43.9215 67.6653 42.6643C67.6653 29.782 67.6653 16.8977 67.6653 4.01537C67.6653 2.75033 67.2502 2.3332 65.9874 2.3332C45.3298 2.3332 24.6722 2.3332 4.01654 2.3332C2.60753 2.3332 2.33665 2.60609 2.33665 4.02707C2.33665 16.9094 2.33665 29.7937 2.33665 42.676C2.33665 42.8943 2.31911 43.1165 2.35029 43.3309C2.43799 43.9254 2.77903 44.3036 3.39291 44.3231C4.34004 44.3523 5.28912 44.3309 6.23625 44.3406C6.42334 44.3426 6.55586 44.2763 6.68254 44.1515C8.14611 42.7052 9.60968 41.2628 11.2272 39.6684L11.2253 39.6703ZM14.0004 45.401C14.7799 44.9741 15.6043 44.861 16.2786 45.1749C16.9607 45.4926 17.6077 45.5004 18.2937 45.5043C19.1434 45.5101 19.995 45.4887 20.8447 45.5101C21.6983 45.5316 22.1972 46.1358 22.1679 46.9623C22.1329 47.9252 22.129 48.892 22.1679 49.8549C22.1991 50.6892 21.7139 51.2973 20.8739 51.3363C20.3887 51.3578 19.8975 51.3851 19.4181 51.3324C18.3911 51.2194 17.479 51.3246 16.9295 52.3558C16.91 52.3928 16.8535 52.4045 16.9119 52.4961C16.9782 52.5 17.0698 52.5078 17.1594 52.5078C22.1387 52.5078 27.118 52.4922 32.0972 52.5175C32.713 52.5214 32.6663 52.2174 32.6663 51.808C32.6624 44.8123 32.6663 37.8147 32.6682 30.8189C32.6682 29.6046 32.2375 29.1738 31.0254 29.1738C25.8766 29.1738 20.7277 29.1738 15.577 29.1738C14.3142 29.1738 14.0043 29.4857 14.0023 30.7566C14.0023 35.3957 14.0023 40.0368 14.0023 44.6759V45.4029L14.0004 45.401ZM43.151 58.3418C45.6767 58.3418 48.2004 58.3301 50.7261 58.3515C51.2016 58.3554 51.3595 58.219 51.3419 57.7395C51.3068 56.7941 51.3478 55.8448 51.3263 54.8995C51.3088 54.1276 50.8664 53.6832 50.0869 53.6812C45.2323 53.6715 40.3758 53.6812 35.5213 53.6676C35.0965 53.6676 34.9873 53.8177 34.9932 54.2173C35.0146 55.3829 35.0263 56.5485 34.9893 57.7141C34.9717 58.2424 35.1569 58.3593 35.6519 58.3535C38.1522 58.3301 40.6526 58.3437 43.1529 58.3437L43.151 58.3418ZM23.764 54.8839C21.0201 54.8839 18.2781 54.8819 15.5341 54.8897C15.3353 54.8897 15.0645 54.7669 14.9475 55.0106C14.8403 55.2308 15.0683 55.4063 15.1405 55.6031C15.2691 55.9521 15.6218 56.0612 15.8362 56.3205C16.4793 57.0943 16.3819 57.9987 16.376 58.8876C16.3741 59.2852 16.4208 59.4801 16.9158 59.4782C21.7217 59.4567 26.5294 59.4684 31.3372 59.4606C32.1966 59.4606 32.6098 59.0201 32.6195 58.1391C32.6312 57.2658 32.5922 56.3887 32.6331 55.5174C32.6565 55.0086 32.5104 54.8644 31.9939 54.8683C29.25 54.8936 26.508 54.88 23.764 54.88V54.8839ZM37.9028 51.3597C38.7038 51.3597 39.5028 51.3441 40.3037 51.3675C40.6935 51.3792 40.8689 51.2837 40.8592 50.849C40.8319 49.6132 40.8377 48.3755 40.8475 47.1397C40.8494 46.8122 40.7637 46.6582 40.4012 46.6621C38.7525 46.6758 37.1038 46.6738 35.4551 46.6621C35.1179 46.6602 34.9815 46.7615 34.9854 47.1163C34.9971 48.3774 34.999 49.6386 34.9756 50.8997C34.9678 51.3149 35.1627 51.3734 35.5057 51.3675C36.3047 51.3519 37.1057 51.3617 37.9067 51.3636L37.9028 51.3597ZM19.8021 48.4924C19.8449 48.1201 19.8352 47.818 19.3129 47.855C18.9563 47.8804 18.6406 47.8355 18.6815 48.3618C18.7088 48.7185 18.6639 49.0382 19.1901 48.9914C19.537 48.9602 19.9073 49.0304 19.804 48.4905L19.8021 48.4924Z" fill="#1B2124"/>
<path d="M3.77682 69.9941C4.34783 69.6413 4.60118 69.2495 4.62067 68.4621C4.75903 62.5891 4.63041 56.7181 4.6577 50.8451C4.66354 49.7263 5.20337 48.9076 5.88741 48.1922C7.66669 46.3307 9.51808 44.5375 11.3383 42.7169C11.4084 42.6467 11.4766 42.5805 11.6637 42.676C11.6637 44.2763 11.6598 45.9175 11.6676 47.5587C11.6676 47.8219 11.4747 47.9388 11.3266 48.087C10.5393 48.8803 9.73829 49.66 8.95486 50.4592C8.29421 51.1316 8.29226 51.5644 8.91199 52.1706C9.43623 52.6852 9.9858 52.6559 10.5938 52.0517C12.0243 50.6307 13.4469 49.198 14.8735 47.7751C15.4211 47.2293 15.6082 47.2352 15.8771 47.9661C16.3097 49.1376 16.0895 49.9582 15.0917 50.9406C14.1914 51.8256 13.1293 52.5721 12.6635 53.8547C12.1821 55.186 12.5427 56.2834 13.4255 57.258C14.2381 58.1546 14.2596 58.7277 13.404 59.5873C12.5992 60.3962 11.7943 61.2071 10.9933 62.0219C10.3541 62.6729 10.321 63.398 10.8978 63.9048C11.4201 64.3648 12.2679 64.205 12.7863 63.5442C12.8896 63.4136 12.9831 63.2733 13.0805 63.1388C13.8191 62.1271 14.7546 61.6437 16.0564 61.825C16.8671 61.9381 17.7051 61.8464 18.6211 61.8464C18.3287 62.63 17.7363 63.1602 17.2608 63.7372C16.643 64.4837 16.3487 65.2985 16.337 66.2361C16.3253 67.16 16.3331 68.0839 16.3468 69.0098C16.3546 69.5049 16.7287 69.7485 17.0737 70.0058C12.642 70.0058 8.21041 70.0019 3.77682 70V69.9941Z" fill="#D1D3D4"/>
<path d="M34.9815 7.00158C44.0689 7.00158 53.1582 7.00743 62.2456 6.98794C62.838 6.98794 63.0134 7.11074 63.0115 7.73449C62.9881 17.3597 62.9862 26.9849 62.9998 36.6081C62.9998 37.1481 62.9063 37.3469 62.3002 37.3469C53.431 37.3274 44.56 37.3313 35.6909 37.3547C35.0926 37.3547 34.9776 37.1714 34.9854 36.6218C35.0166 34.7018 35.0322 32.7818 34.9854 30.8619C34.9581 29.7586 34.8139 28.6748 33.9057 27.8386C33.1671 27.1584 32.3038 26.8543 31.3567 26.8504C25.9623 26.827 20.5679 26.8465 15.1736 26.8348C13.1955 26.8309 11.5624 28.5637 11.6462 30.4018C11.7417 32.5128 11.654 34.6297 11.6793 36.7446C11.6852 37.2221 11.5488 37.3644 11.0713 37.3508C9.95462 37.3176 8.83404 37.3118 7.71931 37.3508C7.16779 37.3703 6.97291 37.2416 6.98655 36.6452C7.02748 34.7018 7.00214 32.7565 7.00214 30.8131C7.00214 23.1332 7.01189 15.4514 6.9846 7.77152C6.98265 7.10684 7.16974 6.98599 7.78947 6.98794C16.8535 7.00938 25.9175 7.00158 34.9815 7.00158ZM54.803 24.87C53.9904 22.8428 53.2459 20.9833 52.4995 19.1237C52.0649 18.038 51.6498 16.9445 51.1821 15.8724C50.9366 15.3111 50.2389 15.0382 49.74 15.2214C49.1787 15.428 48.8727 16.0771 49.0442 16.7145C49.0871 16.8763 49.1514 17.0342 49.2157 17.1901C50.691 20.8663 52.1682 24.5386 53.6376 28.2168C53.8481 28.745 54.1385 29.1855 54.7602 29.166C55.3935 29.1446 55.7852 28.7665 56.021 28.17C57.4885 24.4548 58.9774 20.7474 60.4449 17.0322C60.5638 16.734 60.7509 16.4299 60.6105 16.0654C60.4098 15.545 60.0395 15.237 59.4978 15.1824C58.9053 15.122 58.5545 15.4943 58.3499 15.9933C57.8042 17.3246 57.28 18.6676 56.746 20.0048C56.1165 21.5817 55.4871 23.1566 54.803 24.8739V24.87ZM32.9956 18.0945C33.6621 18.077 34.2526 17.9386 34.4358 17.4805C34.5976 17.0751 34.3696 16.5098 34.0149 16.159C31.2339 13.4145 27.9443 11.822 23.9764 11.8142C22.6727 11.8122 21.3533 11.7031 20.0729 11.9955C17.4089 12.6075 15.0625 13.8589 13.0065 15.6561C12.6791 15.9426 12.3634 16.2662 12.2659 16.697C12.1412 17.2525 12.3926 17.7456 12.8584 17.9912C13.3241 18.2349 13.864 18.1374 14.2576 17.7378C15.1619 16.8236 16.1928 16.0732 17.3173 15.4709C19.8683 14.1006 22.6025 13.9232 25.4205 14.278C27.8215 14.5801 29.8639 15.6073 31.6958 17.1492C32.1245 17.5098 32.3759 18.2076 32.9976 18.0926L32.9956 18.0945ZM40.8338 22.9383C40.8338 24.6146 40.8338 26.291 40.8338 27.9673C40.8338 28.4741 41.0423 28.8347 41.5042 29.0666C41.9661 29.2986 42.3578 29.1232 42.7066 28.86C43.1023 28.5618 43.1724 28.1135 43.1705 27.634C43.1607 24.4996 43.1841 21.3673 43.149 18.2329C43.1412 17.6092 43.3225 17.4493 43.9169 17.4883C44.7393 17.541 45.5675 17.5078 46.3938 17.5C47.226 17.4903 47.8535 16.9562 47.8262 16.2993C47.7989 15.6561 47.2026 15.1707 46.3977 15.1707C43.4102 15.1649 40.4226 15.1649 37.437 15.1707C36.6282 15.1707 36.1742 15.6054 36.1722 16.3305C36.1722 17.0576 36.6243 17.4883 37.4292 17.4981C38.3763 17.5098 39.3235 17.5234 40.2706 17.4922C40.7149 17.4766 40.8533 17.5994 40.8455 18.0575C40.8182 19.6851 40.8338 21.3127 40.8358 22.9403L40.8338 22.9383ZM15.6023 20.2075C15.5224 20.8 15.8908 21.1587 16.3663 21.3751C16.8827 21.609 17.2744 21.2815 17.6447 20.9423C19.8001 18.9736 22.3044 18.3538 25.1613 18.9288C26.7087 19.2407 27.9443 20.0437 29.0902 21.0593C29.706 21.6051 30.1542 21.5622 30.7428 20.954C31.2047 20.4765 31.1852 19.9209 30.6746 19.3752C29.9613 18.6111 29.1116 18.0127 28.1898 17.5429C26.6951 16.7808 25.0834 16.3188 23.4132 16.3792C22.6045 16.4085 21.784 16.1258 20.9655 16.4806C19.574 17.0848 18.0695 17.4669 16.9139 18.5175C16.3877 18.9951 15.54 19.2485 15.6023 20.2075ZM23.3548 23.334C24.1401 23.4568 24.9801 23.6147 25.6446 24.2443C26.2702 24.8368 26.9172 24.8291 27.4668 24.2365C27.9209 23.7453 27.8312 23.0182 27.231 22.5056C24.8827 20.5018 21.3299 20.5486 19.042 22.7921C18.9173 22.9149 18.8491 23.1254 18.8198 23.3048C18.738 23.8057 18.9621 24.2209 19.3558 24.4762C19.8157 24.7745 20.3224 24.753 20.757 24.369C21.48 23.7297 22.3082 23.3574 23.3528 23.3321L23.3548 23.334Z" fill="#EEF6FF"/>
<path d="M11.2253 39.6703C9.60773 41.2648 8.14416 42.7091 6.68059 44.1535C6.55392 44.2782 6.4214 44.3445 6.23431 44.3426C5.28718 44.3309 4.3381 44.3542 3.39097 44.325C2.77904 44.3055 2.43604 43.9274 2.34835 43.3329C2.31716 43.1184 2.3347 42.8962 2.3347 42.6779C2.3347 29.7956 2.3347 16.9113 2.3347 4.02901C2.3347 2.60803 2.60559 2.33514 4.0146 2.33514C24.6722 2.33514 45.3298 2.33514 65.9854 2.33514C67.2483 2.33514 67.6634 2.75228 67.6634 4.01731C67.6634 16.8996 67.6634 29.7839 67.6634 42.6662C67.6634 43.9235 67.2444 44.3406 65.9776 44.3406C55.9158 44.3406 45.856 44.3328 35.7942 44.3581C35.1004 44.3581 34.9542 44.1496 34.9854 43.5161C35.0361 42.4733 35.0302 41.4246 34.9854 40.3818C34.962 39.8223 35.1043 39.6547 35.6909 39.6586C40.066 39.6859 44.4392 39.6742 48.8143 39.6742C53.7721 39.6742 58.7299 39.6742 63.6877 39.6742C64.8999 39.6742 65.3287 39.2434 65.3287 38.0291C65.3287 27.4546 65.3287 16.8821 65.3287 6.30763C65.3287 5.09717 64.898 4.6703 63.68 4.6703C44.5288 4.6703 25.3796 4.6703 6.22846 4.6703C4.97342 4.6703 4.66745 4.98412 4.66745 6.2628C4.66745 16.6911 4.66745 27.1193 4.66745 37.5457C4.66745 37.918 4.66161 38.2922 4.68109 38.6645C4.71033 39.2532 5.18 39.6644 5.86598 39.6683C7.56731 39.68 9.26864 39.6722 11.2233 39.6722L11.2253 39.6703ZM60.5755 43.1711C60.9633 43.1711 61.3511 43.1886 61.737 43.1672C62.3996 43.1321 62.9764 42.598 62.992 42.0288C63.0096 41.4343 62.4171 40.8632 61.7136 40.8437C60.9633 40.8223 60.213 40.8262 59.4627 40.8457C58.7786 40.8632 58.348 41.3174 58.3363 41.9801C58.3246 42.6818 58.7592 43.1379 59.4861 43.1672C59.8486 43.1808 60.213 43.1691 60.5755 43.1711Z" fill="#D1D3D4"/>
<path d="M14.0004 45.401V44.6739C14.0004 40.0348 14.0004 35.3937 14.0004 30.7546C14.0004 29.4837 14.3103 29.1719 15.575 29.1719C20.7239 29.1719 25.8727 29.1719 31.0234 29.1719C32.2356 29.1719 32.6663 29.6027 32.6663 30.817C32.6663 37.8127 32.6604 44.8104 32.6643 51.8061C32.6643 52.2174 32.7131 52.5195 32.0953 52.5156C27.116 52.4903 22.1368 52.5039 17.1575 52.5059C17.0678 52.5059 16.9763 52.4981 16.91 52.4942C16.8496 52.4025 16.908 52.3909 16.9275 52.3538C17.4771 51.3246 18.3892 51.2194 19.4162 51.3305C19.8956 51.3831 20.3867 51.3558 20.872 51.3344C21.7119 51.2973 22.1972 50.6872 22.166 49.853C22.129 48.8901 22.1329 47.9233 22.166 46.9604C22.1972 46.1339 21.6983 45.5296 20.8427 45.5082C19.993 45.4868 19.1434 45.5082 18.2917 45.5023C17.6057 45.4985 16.9587 45.4887 16.2766 45.1729C15.6023 44.8591 14.776 44.9722 13.9984 45.399L14.0004 45.401ZM16.337 34.3802C16.337 34.3802 16.3351 34.3802 16.3331 34.3802C16.3331 34.9142 16.3331 35.4464 16.3331 35.9805C16.3331 36.0292 16.3331 36.0779 16.3331 36.1267C16.3663 36.9239 16.7521 37.3254 17.5414 37.3352C18.6308 37.3488 19.7222 37.3527 20.8116 37.3352C21.6476 37.3215 22.1465 36.8225 22.1601 35.9902C22.1757 34.9493 22.1757 33.9065 22.1601 32.8637C22.1484 32.0294 21.6515 31.5226 20.8213 31.509C19.7066 31.4914 18.5918 31.4934 17.4771 31.5109C16.7794 31.5226 16.3663 31.9339 16.339 32.6337C16.3156 33.2145 16.3351 33.7973 16.3351 34.3782L16.337 34.3802ZM24.5026 34.3626C24.5026 34.9688 24.4851 35.575 24.5065 36.1793C24.5338 36.9258 24.9392 37.3215 25.6914 37.3313C26.7808 37.3469 27.8722 37.3488 28.9616 37.3313C29.8015 37.3196 30.3121 36.8245 30.3277 36.0039C30.3452 34.9376 30.3472 33.8714 30.3277 32.8052C30.3121 32.0177 29.8073 31.5207 29.0083 31.507C27.8936 31.4875 26.7789 31.4914 25.6641 31.507C24.9353 31.5187 24.5299 31.9398 24.5046 32.6863C24.487 33.2438 24.5007 33.8012 24.5026 34.3587V34.3626ZM16.337 41.3856C16.337 41.9918 16.3175 42.598 16.3409 43.2023C16.3682 43.9118 16.7716 44.3192 17.4732 44.3309C18.6113 44.3504 19.7514 44.3562 20.8895 44.3309C21.6398 44.3153 22.1426 43.8046 22.1582 43.058C22.1816 41.9684 22.1816 40.8769 22.1582 39.7873C22.1426 39.0388 21.6398 38.53 20.8895 38.5125C19.7514 38.4871 18.6113 38.4949 17.4732 38.5125C16.7716 38.5242 16.3663 38.9316 16.339 39.6411C16.3156 40.2219 16.3351 40.8048 16.3351 41.3856H16.337ZM24.5026 41.4168C24.5026 41.9977 24.487 42.5805 24.5065 43.1613C24.5319 43.9059 24.9392 44.3211 25.6739 44.3328C26.7886 44.3504 27.9033 44.3543 29.0181 44.3328C29.8151 44.3172 30.314 43.8182 30.3296 43.0269C30.3491 41.9606 30.3491 40.8944 30.3296 39.8282C30.316 39.0349 29.819 38.5261 29.0298 38.5105C27.915 38.4891 26.8003 38.4949 25.6856 38.5105C24.9411 38.5203 24.5338 38.9257 24.5085 39.6723C24.489 40.2531 24.5046 40.8359 24.5046 41.4168H24.5026ZM24.5046 48.4496H24.5007C24.5007 48.7166 24.5007 48.9836 24.5007 49.2507C24.5007 49.5411 24.4929 49.8335 24.5007 50.1239C24.5202 50.9192 24.9138 51.3324 25.6992 51.3422C26.7906 51.3578 27.8819 51.3597 28.9752 51.3422C29.8132 51.3305 30.3218 50.8295 30.3355 50.0031C30.353 48.9602 30.3511 47.9155 30.3355 46.8726C30.3238 46.0247 29.8424 45.5238 29.0044 45.5101C27.8897 45.4907 26.773 45.4946 25.6563 45.5101C24.9528 45.5218 24.5377 45.9292 24.5085 46.627C24.4831 47.2332 24.5026 47.8395 24.5026 48.4476L24.5046 48.4496Z" fill="#EC008C"/>
<path d="M43.1529 58.3398C40.6526 58.3398 38.1522 58.3282 35.6519 58.3496C35.1569 58.3535 34.9717 58.2365 34.9893 57.7103C35.0283 56.5466 35.0146 55.379 34.9932 54.2134C34.9854 53.8138 35.0945 53.6637 35.5213 53.6637C40.3759 53.6773 45.2323 53.6676 50.0869 53.6773C50.8684 53.6773 51.3107 54.1237 51.3263 54.8956C51.3478 55.8429 51.3068 56.7902 51.3419 57.7356C51.3595 58.2171 51.2016 58.3515 50.7261 58.3476C48.2024 58.3262 45.6767 58.3379 43.151 58.3379L43.1529 58.3398Z" fill="#808285"/>
<path d="M23.766 54.8819C26.5099 54.8819 29.2519 54.8956 31.9959 54.8702C32.5123 54.8644 32.6604 55.0106 32.6351 55.5193C32.5942 56.3906 32.6332 57.2677 32.6215 58.141C32.6098 59.022 32.1986 59.4606 31.3391 59.4626C26.5314 59.4704 21.7256 59.4587 16.9178 59.4801C16.4228 59.482 16.376 59.2871 16.378 58.8895C16.3838 58.0007 16.4832 57.0962 15.8381 56.3224C15.6218 56.0631 15.2691 55.954 15.1424 55.6051C15.0703 55.4063 14.8423 55.2328 14.9495 55.0125C15.0664 54.7689 15.3373 54.8917 15.5361 54.8917C18.28 54.8839 21.022 54.8858 23.766 54.8858V54.8819ZM23.2632 58.3807C23.6763 58.3807 24.0875 58.3963 24.5007 58.3768C25.2179 58.3437 25.6992 57.8584 25.707 57.1878C25.7148 56.5134 25.2393 55.9949 24.5319 55.9715C23.7329 55.9442 22.9299 55.9442 22.1309 55.9715C21.4235 55.9949 20.9499 56.5154 20.9616 57.1917C20.9714 57.8623 21.4547 58.3437 22.1718 58.3768C22.5343 58.3944 22.8988 58.3807 23.2632 58.3807Z" fill="#EC008C"/>
<path d="M37.9047 51.3578C37.1037 51.3578 36.3047 51.348 35.5038 51.3636C35.1608 51.3695 34.9659 51.311 34.9737 50.8958C34.9971 49.6347 34.9971 48.3735 34.9834 47.1124C34.9795 46.7576 35.1179 46.6563 35.4531 46.6582C37.1018 46.6699 38.7505 46.6719 40.3992 46.6582C40.7617 46.6543 40.8474 46.8083 40.8455 47.1358C40.8358 48.3716 40.8299 49.6093 40.8572 50.8451C40.8669 51.2798 40.6935 51.3753 40.3018 51.3636C39.5028 51.3402 38.7018 51.3558 37.9008 51.3558L37.9047 51.3578Z" fill="#808285"/>
<path d="M19.8021 48.4905C19.9053 49.0304 19.5351 48.9602 19.1882 48.9914C18.662 49.0382 18.7068 48.7166 18.6795 48.3618C18.6386 47.8355 18.9563 47.8803 19.3109 47.855C19.8332 47.818 19.843 48.1201 19.8001 48.4924L19.8021 48.4905Z" fill="#808285"/>
<path d="M54.803 24.87C55.489 23.1546 56.1185 21.5777 56.746 20.0008C57.28 18.6637 57.8023 17.3226 58.3499 15.9894C58.5545 15.4923 58.9053 15.12 59.4978 15.1785C60.0376 15.2331 60.4098 15.541 60.6106 16.0615C60.7509 16.426 60.5618 16.7301 60.4449 17.0283C58.9774 20.7435 57.4885 24.4509 56.0211 28.1661C55.7852 28.7645 55.3935 29.1426 54.7602 29.1621C54.1404 29.1816 53.8501 28.743 53.6376 28.2128C52.1682 24.5347 50.691 20.8604 49.2157 17.1862C49.1534 17.0302 49.0891 16.8723 49.0442 16.7106C48.8728 16.0732 49.1787 15.4241 49.74 15.2175C50.2389 15.0342 50.9366 15.3071 51.1821 15.8685C51.6498 16.9386 52.0649 18.0341 52.4995 19.1198C53.2459 20.9793 53.9904 22.8408 54.803 24.8661V24.87Z" fill="#1B2124"/>
<path d="M32.9956 18.0945C32.3739 18.2095 32.1245 17.5137 31.6938 17.1511C29.8619 15.6073 27.8195 14.582 25.4186 14.2799C22.6006 13.9252 19.8664 14.1025 17.3153 15.4728C16.1909 16.0771 15.1619 16.8256 14.2557 17.7398C13.862 18.1394 13.3222 18.2368 12.8564 17.9932C12.3907 17.7495 12.1393 17.2564 12.264 16.6989C12.3614 16.2662 12.6771 15.9445 13.0045 15.658C15.0605 13.8608 17.4089 12.6094 20.071 11.9974C21.3514 11.7031 22.6707 11.8122 23.9745 11.8161C27.9423 11.8239 31.2319 13.4164 34.0129 16.1609C34.3676 16.5118 34.5956 17.0751 34.4339 17.4825C34.2507 17.9405 33.6621 18.0789 32.9937 18.0965L32.9956 18.0945Z" fill="#1B2124"/>
<path d="M40.8319 22.9402C40.8319 21.3126 40.8143 19.685 40.8436 18.0574C40.8514 17.5994 40.713 17.4766 40.2687 17.4922C39.3235 17.5234 38.3744 17.5097 37.4273 17.498C36.6204 17.4883 36.1683 17.0575 36.1703 16.3304C36.1703 15.6053 36.6282 15.1726 37.4351 15.1707C40.4226 15.1629 43.4102 15.1648 46.3958 15.1707C47.2006 15.1707 47.797 15.658 47.8243 16.2993C47.8535 16.9561 47.226 17.4902 46.3919 17.5C45.5656 17.5078 44.7373 17.5409 43.9149 17.4883C43.3186 17.4493 43.1393 17.6091 43.1471 18.2329C43.1821 21.3653 43.1588 24.4996 43.1685 27.6339C43.1685 28.1154 43.0984 28.5617 42.7047 28.86C42.3558 29.1231 41.9641 29.2985 41.5023 29.0666C41.0423 28.8346 40.8319 28.474 40.8319 27.9672C40.8338 26.2909 40.8319 24.6146 40.8319 22.9383V22.9402Z" fill="#1B2124"/>
<path d="M15.6043 20.2094C15.5419 19.2484 16.3916 18.997 16.9158 18.5194C18.0715 17.4688 19.576 17.0867 20.9675 16.4825C21.786 16.1277 22.6064 16.4104 23.4152 16.3811C25.0873 16.3207 26.699 16.7827 28.1918 17.5448C29.1136 18.0146 29.9613 18.613 30.6765 19.3771C31.1871 19.9228 31.2066 20.4784 30.7447 20.9559C30.1562 21.5641 29.708 21.607 29.0921 21.0612C27.9443 20.0456 26.7107 19.2426 25.1633 18.9307C22.3063 18.3557 19.8021 18.9755 17.6466 20.9442C17.2764 21.2834 16.8847 21.6109 16.3682 21.3769C15.8927 21.1625 15.5263 20.8019 15.6043 20.2094Z" fill="#1B2124"/>
<path d="M23.3548 23.336C22.3102 23.3593 21.482 23.7336 20.7589 24.3729C20.3244 24.7569 19.8177 24.7784 19.3577 24.4801C18.9641 24.2248 18.738 23.8077 18.8218 23.3087C18.851 23.1293 18.9212 22.9188 19.044 22.796C21.33 20.5505 24.8846 20.5037 27.233 22.5095C27.8312 23.0202 27.9228 23.7492 27.4688 24.2404C26.9192 24.8349 26.2722 24.8407 25.6466 24.2482C24.9821 23.6186 24.1441 23.4607 23.3567 23.3379L23.3548 23.336Z" fill="#1B2124"/>
<path d="M60.5755 43.1691C60.213 43.1691 59.8485 43.1808 59.4861 43.1672C58.7592 43.138 58.3246 42.6818 58.3363 41.9801C58.348 41.3174 58.7786 40.8632 59.4627 40.8457C60.213 40.8262 60.9633 40.8223 61.7136 40.8437C62.4171 40.8632 63.0096 41.4343 62.992 42.0289C62.9745 42.5961 62.3976 43.1321 61.737 43.1672C61.3511 43.1886 60.9633 43.1711 60.5755 43.1691Z" fill="#1B2124"/>
<path d="M16.339 34.3802C16.339 33.7993 16.3195 33.2165 16.3429 32.6356C16.3721 31.9359 16.7833 31.5246 17.481 31.5129C18.5957 31.4953 19.7104 31.4934 20.8252 31.5109C21.6554 31.5246 22.1523 32.0314 22.164 32.8656C22.1796 33.9065 22.1796 34.9493 22.164 35.9922C22.1504 36.8245 21.6515 37.3235 20.8154 37.3371C19.726 37.3547 18.6347 37.3508 17.5453 37.3371C16.758 37.3274 16.3721 36.9258 16.337 36.1286C16.3351 36.0799 16.337 36.0312 16.337 35.9824C16.337 35.4483 16.337 34.9162 16.337 34.3821C16.337 34.3821 16.339 34.3821 16.3409 34.3821L16.339 34.3802ZM19.8001 34.4328C19.8897 33.9884 19.7065 33.848 19.2603 33.848C18.8315 33.848 18.6678 33.9553 18.6756 34.4133C18.6834 34.8402 18.7848 35.0098 19.2427 34.9961C19.6598 34.9844 19.9014 34.9045 19.8001 34.4328Z" fill="#1B2124"/>
<path d="M24.5026 34.3626C24.5026 33.8051 24.489 33.2477 24.5065 32.6902C24.5299 31.9436 24.9372 31.5226 25.6661 31.5109C26.7808 31.4934 27.8956 31.4914 29.0103 31.5109C29.8093 31.5246 30.3141 32.0216 30.3296 32.8091C30.3511 33.8753 30.3491 34.9415 30.3296 36.0077C30.316 36.8303 29.8054 37.3254 28.9635 37.3351C27.8741 37.3507 26.7828 37.3488 25.6934 37.3351C24.9392 37.3234 24.5358 36.9278 24.5085 36.1832C24.4871 35.5789 24.5046 34.9708 24.5026 34.3665V34.3626ZM27.9677 34.4484C28.0456 34.0293 27.915 33.8344 27.4434 33.848C27.042 33.8597 26.8256 33.9162 26.8432 34.3957C26.8588 34.7973 26.9114 35.0175 27.3908 34.9941C27.7845 34.9747 28.0709 34.9435 27.9657 34.4484H27.9677Z" fill="#1B2124"/>
<path d="M16.337 41.3856C16.337 40.8048 16.3195 40.2219 16.3409 39.6411C16.3702 38.9335 16.7736 38.5242 17.4752 38.5125C18.6133 38.493 19.7533 38.4871 20.8915 38.5125C21.6398 38.5281 22.1446 39.0388 22.1602 39.7873C22.1835 40.8769 22.1835 41.9684 22.1602 43.058C22.1446 43.8065 21.6418 44.3153 20.8915 44.3309C19.7533 44.3562 18.6133 44.3484 17.4752 44.3309C16.7736 44.3192 16.3702 43.9098 16.3429 43.2023C16.3195 42.598 16.339 41.9918 16.339 41.3856H16.337ZM19.2583 40.8808C18.8803 40.7833 18.662 40.8944 18.6795 41.3778C18.6932 41.756 18.699 42.0269 19.2038 41.9957C19.5799 41.9723 19.8566 41.9743 19.8196 41.4694C19.7943 41.101 19.8177 40.7677 19.2564 40.8808H19.2583Z" fill="#1B2124"/>
<path d="M24.5026 41.4168C24.5026 40.836 24.487 40.2531 24.5065 39.6723C24.5319 38.9257 24.9392 38.5223 25.6836 38.5106C26.7984 38.495 27.9131 38.4891 29.0278 38.5106C29.8171 38.5261 30.314 39.0349 30.3277 39.8282C30.3452 40.8944 30.3472 41.9607 30.3277 43.0269C30.3121 43.8183 29.8132 44.3192 29.0161 44.3328C27.9014 44.3543 26.7867 44.3484 25.6719 44.3328C24.9372 44.3211 24.5299 43.904 24.5046 43.1614C24.4851 42.5805 24.5007 41.9977 24.5007 41.4168H24.5026ZM27.4122 41.9646C27.7923 42.0679 28.0027 41.9451 27.9871 41.4675C27.9754 41.0894 27.9657 40.8204 27.4629 40.8516C27.0868 40.8749 26.812 40.8749 26.8471 41.3798C26.8724 41.7482 26.851 42.0796 27.4122 41.9665V41.9646Z" fill="#1B2124"/>
<path d="M24.5046 48.4476C24.5046 47.8414 24.4851 47.2332 24.5104 46.627C24.5396 45.9292 24.9567 45.5218 25.6583 45.5101C26.775 45.4926 27.8897 45.4887 29.0064 45.5101C29.8444 45.5238 30.3257 46.0247 30.3374 46.8726C30.3511 47.9155 30.353 48.9602 30.3374 50.0031C30.3238 50.8295 29.8151 51.3285 28.9771 51.3422C27.8858 51.3578 26.7944 51.3558 25.7011 51.3422C24.9158 51.3305 24.5221 50.9172 24.5026 50.1239C24.4948 49.8335 24.5026 49.5411 24.5026 49.2507C24.5026 48.9836 24.5026 48.7166 24.5026 48.4495H24.5065L24.5046 48.4476ZM26.8763 48.4476C26.7457 48.8862 26.9776 48.9856 27.4064 48.9934C27.8351 49.0012 27.9988 48.8881 27.991 48.4301C27.9832 48.0032 27.8838 47.8336 27.4259 47.8472C27.0088 47.8589 26.7652 47.9369 26.8763 48.4476Z" fill="#1B2124"/>
<path d="M23.2632 58.3827C22.8987 58.3827 22.5343 58.3963 22.1718 58.3788C21.4527 58.3457 20.9713 57.8642 20.9616 57.1937C20.9519 56.5173 21.4235 55.9969 22.1309 55.9735C22.9299 55.9462 23.7328 55.9462 24.5319 55.9735C25.2393 55.9969 25.7148 56.5153 25.707 57.1898C25.6992 57.8603 25.2178 58.3457 24.5007 58.3788C24.0895 58.3983 23.6763 58.3827 23.2632 58.3827Z" fill="#1B2124"/>
<path d="M19.8001 34.4308C19.9014 34.9025 19.6598 34.9825 19.2427 34.9942C18.7848 35.0078 18.6834 34.8402 18.6756 34.4113C18.6678 33.9533 18.8315 33.848 19.2603 33.8461C19.7065 33.8461 19.8897 33.9845 19.8001 34.4308Z" fill="#808285"/>
<path d="M27.9657 34.4484C28.071 34.9435 27.7825 34.9747 27.3908 34.9942C26.9114 35.0176 26.8588 34.7973 26.8432 34.3958C26.8237 33.9163 27.04 33.8617 27.4434 33.848C27.915 33.8344 28.0437 34.0274 27.9677 34.4484H27.9657Z" fill="#808285"/>
<path d="M19.2583 40.8788C19.8176 40.7657 19.7943 41.0991 19.8215 41.4675C19.8586 41.9723 19.5818 41.9703 19.2057 41.9937C18.699 42.0249 18.6951 41.754 18.6815 41.3758C18.6639 40.8924 18.8803 40.7794 19.2603 40.8788H19.2583Z" fill="#808285"/>
<path d="M27.4122 41.9645C26.851 42.0776 26.8724 41.7462 26.8471 41.3778C26.812 40.873 27.0848 40.873 27.4629 40.8496C27.9676 40.8204 27.9754 41.0874 27.9871 41.4655C28.0027 41.9431 27.7922 42.0659 27.4122 41.9626V41.9645Z" fill="#808285"/>
<path d="M26.8763 48.4496C26.7652 47.9369 27.0088 47.8609 27.4259 47.8492C27.8839 47.8356 27.9852 48.0051 27.991 48.432C27.9988 48.8901 27.8351 49.0012 27.4064 48.9953C26.9757 48.9875 26.7438 48.8881 26.8763 48.4496Z" fill="#808285"/>
</g>
<defs>
<clipPath id="clip0_145_2228">
<rect width="70" height="70" fill="white"/>
</clipPath>
</defs>
</svg>
