<svg viewBox="0 0 55 55" fill="none" xmlns="http://www.w3.org/2000/svg" class="card">
    <path
        d="M0 50.8109V24.0699C0.0253713 24.0449 0.0462405 24.0158 0.0616871 23.9838C0.768949 21.2236 2.45461 19.9181 5.31522 19.9167C7.26629 19.9167 9.21735 19.9052 11.167 19.9267C11.3681 19.9378 11.5691 19.9042 11.7557 19.8283C11.9422 19.7524 12.1096 19.6361 12.2458 19.4877C18.1755 13.5437 24.1086 7.60725 30.045 1.6785C32.2916 -0.565227 35.1364 -0.558054 37.3945 1.69141C38.0917 2.38767 38.788 3.08394 39.4833 3.7802C44.1276 8.4245 48.7728 13.0669 53.4191 17.7074C54.462 18.7475 55.109 19.9827 54.9598 21.4474C54.8508 22.5305 54.9598 23.5835 54.9598 24.6523C55.0158 33.1868 55.0014 41.7241 54.9842 50.2572C54.9842 52.3775 53.5496 54.1866 51.5196 54.7948C51.2815 54.8666 51.0433 54.9311 50.8023 55H4.17758C4.05994 54.9627 3.94517 54.9197 3.82466 54.891C2.05436 54.4606 0.859331 53.3889 0.238145 51.6818C0.143461 51.3991 0.0817726 51.1022 0 50.8109ZM27.4986 51.7779H49.8368C51.1653 51.7779 51.7736 51.1696 51.7736 49.8469C51.7736 41.5979 51.7736 33.3479 51.7736 25.097C51.7736 23.7356 51.1753 23.1388 49.8081 23.1388H5.19185C3.8261 23.1388 3.22787 23.737 3.22787 25.0999V49.7952C3.22787 51.1911 3.81749 51.7779 5.22054 51.7779H27.4986ZM42.0254 10.8987C41.8992 10.7639 41.8174 10.6721 41.7299 10.5845C39.4909 8.34369 37.2491 6.10426 35.0044 3.86628C34.1437 3.00551 33.2556 3.01842 32.3863 3.88493L16.8265 19.4461C16.706 19.5666 16.5941 19.6957 16.3961 19.9167H17.1393C21.7027 19.9167 26.2677 19.8435 30.8283 19.9568C32.4064 19.997 33.5053 19.5508 34.5827 18.3974C36.9684 15.8352 39.5091 13.4136 42.0254 10.8987ZM46.5372 15.5081L44.3739 13.3361C42.1961 15.5091 39.9997 17.7026 37.7847 19.9167C38.6455 19.9167 39.5564 19.8349 40.4488 19.9367C41.661 20.0802 42.5246 19.6656 43.318 18.7532C44.3294 17.5998 45.4771 16.5697 46.5372 15.5081ZM46.784 19.931H50.9042L48.8527 17.8709L46.784 19.931Z"
        fill="#F63D74"></path>
    <path
        d="M11.8958 37.0988C11.0192 37.0988 10.1441 37.1118 9.26757 37.0988C7.52165 37.0701 6.45 35.9684 6.44569 34.2167C6.44569 32.894 6.44569 31.5713 6.44569 30.2486C6.4543 28.5916 7.5776 27.454 9.24175 27.4411C11.0106 27.4267 12.7809 27.4238 14.5498 27.4411C16.1896 27.4568 17.2956 28.5801 17.3085 30.2213C17.321 31.5966 17.321 32.9729 17.3085 34.3501C17.2928 35.944 16.2211 37.0458 14.6287 37.0917C13.7177 37.1175 12.8053 37.0917 11.8943 37.0917L11.8958 37.0988ZM14.0477 33.848V30.6919H9.69508V33.848H14.0477Z"
        fill="#F63D74"></path>
    <path d="M6.36536 46.8674V43.7256H13.8253V46.8674H6.36536Z" fill="#F63D74"></path>
    <path d="M17.9713 43.7097H25.4212V46.8659H17.9713V43.7097Z" fill="#F63D74"></path>
    <path d="M37.0272 46.8773H29.5673V43.7212H37.0272V46.8773Z" fill="#F63D74"></path>
    <path d="M48.6418 43.7312V46.8615H41.1819V43.7312H48.6418Z" fill="#F63D74"></path>
</svg>