<svg viewBox="0 0 46 47" fill="none" xmlns="http://www.w3.org/2000/svg" class="sb">
    <g clip-path="url(#clip0_147_177)">
        <path
            d="M24.4824 0C25.5367 0.164055 26.6038 0.286801 27.6452 0.501607C31.1191 1.21156 34.3766 2.7404 37.1512 4.96296C37.2402 5.03377 37.3175 5.11875 37.444 5.23678C36.0255 6.29901 34.6467 7.36123 33.2422 8.37389C33.125 8.46123 32.8006 8.38451 32.6377 8.27947C30.487 6.89739 28.1688 5.97562 25.6374 5.61682C20.6929 4.90867 16.2158 6.08892 12.2834 9.16584C8.28302 12.2935 5.94255 16.4515 5.41073 21.5195C4.83908 26.9806 6.39823 31.8125 10.1128 35.8891C12.8351 38.8775 16.183 40.7565 20.147 41.382C25.8284 42.279 30.8478 40.7718 35.1012 36.8392C38.2242 33.9511 40.0094 30.336 40.656 26.1402C40.7872 25.2916 40.7521 24.4171 40.8282 23.5566C40.8481 23.33 40.936 23.0338 41.0988 22.9075C42.5045 21.817 43.936 20.7559 45.3604 19.689C45.4519 19.6321 45.5466 19.5804 45.6439 19.5343C45.72 19.9297 45.8161 20.2767 45.8524 20.6308C46.4779 26.8661 45.1132 32.5868 41.3624 37.6323C37.8962 42.2943 33.3382 45.3559 27.6464 46.4937C20.0322 48.0174 13.2849 46.0888 7.54386 40.8509C3.20263 36.89 0.845758 31.8515 0.154628 26.0069C0.1066 25.602 0.0503711 25.1972 -0.00234222 24.7936V22.197C0.114798 21.326 0.231939 20.4549 0.36548 19.5863C1.83208 10.1065 9.17446 2.36877 18.5082 0.490985C19.5555 0.2809 20.6168 0.161695 21.6781 0H24.4824Z"
            fill="#F63D74"></path>
        <path
            d="M41.38 9.18481C42.2093 10.6566 42.993 12.0528 43.7837 13.4443C43.9793 13.7878 43.7614 13.9318 43.5295 14.1065C40.5104 16.3749 37.494 18.6461 34.4804 20.9201C30.8373 23.6606 27.1958 26.4031 23.5558 29.1476C23.1927 29.4226 22.9373 29.4639 22.5344 29.2007C19.9631 27.5248 17.3696 25.8854 14.7925 24.2177C14.6039 24.0997 14.3661 23.853 14.3638 23.663C14.3333 21.6211 14.3451 19.5781 14.3451 17.4218C14.6016 17.5693 14.7832 17.6578 14.953 17.77C17.4903 19.3916 20.0311 21.0074 22.5578 22.6444C22.9291 22.8864 23.1786 22.8805 23.5371 22.6055C29.2325 18.2999 34.9361 14.0042 40.6478 9.71829C40.8317 9.57784 41.0215 9.44447 41.38 9.18481Z"
            fill="#F63D74"></path>
    </g>
    <defs>
        <clipPath id="clip0_147_177">
            <rect width="46" height="47" fill="white"></rect>
        </clipPath>
    </defs>
</svg>