<svg width="48" height="48" fill="none" viewBox="0 0 120 120" xmlns="http://www.w3.org/2000/svg">
    <path d="M 12.5,26.12 27.032,52.095 V 67.939 L 12.517,93.863 Z" fill="#F63D74"></path>
    <path d="M 68.297,42.643 81.914,34.297 109.782,34.271 68.297,59.685 Z" fill="#F63D74"></path>
    <path d="m 68.22,25.967 0.077,34.39 -14.566,-8.95 V 0 l 14.49,25.967 z" fill="#F63D74"
        id="path70"></path>
    <path d="M 109.782,34.271 81.913,34.297 68.22,25.967 53.731,0 l 56.05,34.271 z" fill="#F63D74"
        id="path72"></path>
    <path d="M 68.297,94.007 V 77.322 L 53.731,68.542 53.739,120 Z" fill="#F63D74" id="path74"></path>
    <path d="M 81.88,85.737 27.031,52.095 12.5,26.12 109.723,85.703 81.879,85.737 Z" fill="#F63D74"
        id="path76"></path>
    <path d="m 53.74,120 14.556,-25.993 13.583,-8.27 27.843,-0.034 z" fill="#F63D74" id="path78"></path>
    <path d="M 12.517,93.863 53.85,68.543 39.954,60.017 27.032,67.939 Z" fill="#F63D74" id="path80"></path>
</svg>