<svg viewBox="0 0 68 48" fill="none" xmlns="http://www.w3.org/2000/svg" class="ym">
    <path
        d="M19.1286 25.8141V27.6137C19.1286 32.0512 19.1286 36.4888 19.1286 40.9263C19.1286 42.0515 19.1286 42.0546 17.9709 42.0546C15.8884 42.0546 13.8059 42.0152 11.7218 42.0751C10.9688 42.0972 10.6813 41.8104 10.472 41.1296C7.29742 30.8342 4.1114 20.5455 0.913936 10.2637C0.620227 9.31819 0.323392 8.37269 0 7.33894H19.102V22.2164L19.3207 22.2668C19.9988 15.3773 22.8609 9.64911 28.2132 5.31241C33.5656 0.975705 39.7148 -0.694682 46.4654 0.260275C58.9183 2.01103 67.5437 13.0813 66.9875 25.1585C66.4532 36.6133 57.5654 46.4559 45.9873 47.8285C32.3455 49.4485 20.2144 39.1913 19.1286 25.8141ZM43.1362 14.9518C38.3571 15.0684 34.1999 18.7055 34.1765 23.9798C34.1546 29.1233 38.1806 33.0408 43.1674 33.0314C48.3729 33.0219 52.1286 28.8144 52.1349 23.9325C52.1458 19.0206 48.2198 15.0558 43.1362 14.9518Z"
        fill="#F63D74"></path>
</svg>